<?xml version="1.0" encoding="UTF-8"?>
<svg xmlns="http://www.w3.org/2000/svg" width="97" height="96" viewBox="0 0 97 96" fill="none">
  <g clip-path="url(#clip0_327_4893)">
    <path d="M50.0097 76C49.5044 64.8701 68.7091 42.6102 94.4839 44.1279C94.9892 43.9593 96 43.8244 96 44.6338C86.3976 66.8937 74.7737 76 50.0097 76Z" fill="#A0E18A"></path>
    <path d="M50.3185 74.9812C50.8815 75.0107 51.6322 75.0352 52.5211 75.0352C58.156 75.0352 68.9566 74.1265 77.9843 68.0309C88.5231 60.9087 93.3777 48.7911 94.6864 45.0139C94.1185 44.9893 93.3728 44.9648 92.4838 44.9648C86.844 44.9648 76.0434 45.8735 67.0207 51.9691C56.4966 59.0766 51.6272 71.204 50.3185 74.9812ZM52.5211 77C50.2938 77 48.9407 76.8624 48.8863 76.8526C48.595 76.8231 48.3332 76.666 48.1703 76.4302C48.0073 76.1895 47.9579 75.8899 48.0369 75.6149C48.2246 74.9469 52.7779 59.2141 65.9095 50.3432C75.3717 43.9529 86.6169 43 92.4838 43C94.7111 43 96.0593 43.1375 96.1137 43.1424C96.405 43.1719 96.6668 43.3291 96.8297 43.5697C96.9927 43.8104 97.0421 44.1051 96.9631 44.3851C96.7754 45.0531 92.2221 60.7859 79.0905 69.6518C69.6283 76.0471 58.3831 77 52.5211 77Z" fill="#344428"></path>
    <path d="M3.31382 45.0139C4.62761 48.796 9.49254 60.9234 20.0176 68.0309C29.0462 74.1216 39.8479 75.0352 45.4834 75.0352C46.3724 75.0352 47.1182 75.0107 47.6862 74.9812C46.3773 71.204 41.5075 59.0766 30.9824 51.9691C21.9587 45.8735 11.1521 44.9648 5.51662 44.9648C4.62759 44.9648 3.88181 44.9893 3.31382 45.0139ZM45.4834 77C39.6208 77 28.3696 76.0422 18.9064 69.6518C5.77344 60.7859 1.22461 45.0531 1.03693 44.3851C0.957904 44.1051 1.00724 43.8104 1.17023 43.5697C1.33322 43.3291 1.59503 43.1719 1.88643 43.1424C1.94076 43.1375 3.28911 43 5.51662 43C11.3793 43 22.6304 43.9529 32.0937 50.3432C45.2266 59.2141 49.7803 74.9469 49.9631 75.6149C50.0421 75.8899 49.9927 76.1895 49.8297 76.4302C49.6667 76.666 49.405 76.8231 49.1185 76.8526C49.0593 76.8624 47.7109 77 45.4834 77Z" fill="#344428"></path>
    <path d="M40.0063 39C39.9157 39 39.8251 38.9898 39.7295 38.9645C39.1962 38.8077 38.8842 38.2511 39.0402 37.7147C42.2051 26.4961 48.9776 18.673 49.2644 18.3441C49.4606 18.1214 49.7474 18.0101 50.0443 18C50.3361 18.0051 50.6179 18.1417 50.8041 18.3745C51.0607 18.6932 57.1237 26.3039 59.9666 37.1024C60.1075 37.6388 59.7905 38.1954 59.2521 38.3371C58.7137 38.4788 58.1653 38.16 58.0244 37.6186C55.8658 29.4362 51.6896 23.0349 49.989 20.6566C48.1172 23.0602 43.3875 29.7094 40.9723 38.2662C40.8465 38.7115 40.4441 39 40.0063 39Z" fill="#344428"></path>
    <path d="M49.0045 56C48.562 56 48.1542 55.6936 48.0448 55.2414C47.2939 52.2625 46.2447 49.4695 44.9219 46.9376C38.9347 35.4791 27.2885 29.1998 23.6285 27.4466C23.1561 30.4556 22.2312 38.5786 24.2551 47.219C24.3844 47.7565 24.0512 48.299 23.5141 48.4246C22.9821 48.5502 22.445 48.2186 22.3207 47.6761C19.6702 36.3582 21.8134 26.2158 21.9029 25.7888C21.9675 25.5025 22.1516 25.2563 22.4101 25.1157C22.6687 24.98 22.9771 24.9599 23.2506 25.0754C23.897 25.3367 39.2231 31.7215 46.6823 45.9982C48.0747 48.6707 49.1836 51.6145 49.9693 54.7441C50.1036 55.2816 49.7853 55.8292 49.2532 55.9648C49.1686 55.9899 49.0841 56 49.0045 56Z" fill="#344428"></path>
    <path d="M48.9944 77C48.4475 77 48 76.5589 48 76.0087V54.5911C48 54.5118 48.0149 54.4276 48.0348 54.3483C48.8204 51.2553 49.9292 48.3557 51.3213 45.7188C58.7795 31.6321 74.1036 25.3322 74.75 25.0744C75.0235 24.9604 75.3268 24.9803 75.5853 25.1141C75.8439 25.2529 76.0328 25.4958 76.0925 25.7783C76.187 26.1996 78.3299 36.207 75.6798 47.3743C75.5555 47.9096 75.0185 48.2417 74.4815 48.1129C73.9495 47.9889 73.6163 47.4536 73.7456 46.9233C75.7693 38.383 74.8445 30.383 74.3721 27.419C70.7126 29.1488 59.058 35.3545 53.0815 46.6457C51.7788 49.1091 50.7396 51.8204 49.9889 54.72V76.0087C49.9889 76.5589 49.5463 77 48.9944 77Z" fill="#344428"></path>
  </g>
  <defs>
    <clipPath id="clip0_327_4893">
      <rect width="96" height="59" fill="white" transform="translate(1 18)"></rect>
    </clipPath>
  </defs>
</svg>
