<?xml version="1.0" encoding="UTF-8"?>
<svg xmlns="http://www.w3.org/2000/svg" width="96" height="96" viewBox="0 0 96 96" fill="none">
  <path d="M47.8235 49.0612C54.7647 49.0612 72.1176 45 86 45C81.5378 45 75.0924 60.2295 67.1597 67.8443C59.2269 75.459 36.916 73.9361 27 67.8443C30.6359 61.5833 39.8908 49.0612 47.8235 49.0612Z" fill="#A0E18A"></path>
  <path d="M12.0561 42.7388C18.9141 42.9824 24.6095 43.9585 30.1416 44.9065C35.938 45.8999 41.4125 46.8382 47.737 46.8393L47.7473 47.9196V46.8393C54.5109 46.8393 61.3835 45.8048 68.0293 44.8044C73.0468 44.0487 78.192 43.2746 83.3355 42.9359C78.7607 40.7098 75.8099 37.1565 73.1103 33.9073C69.2113 29.2142 65.8448 25.1607 58.608 25.1607C48.8583 25.1607 48.5858 33.9916 48.5858 34.0807C48.5858 34.6771 48.0995 35.1611 47.5004 35.1611C46.9007 35.1611 46.4149 34.6771 46.4149 34.0807C46.4149 33.9916 46.1424 25.1607 36.3928 25.1607C29.156 25.1607 25.7889 29.2142 21.8904 33.9073C19.2695 37.062 16.411 40.504 12.0561 42.7388ZM47.7473 49H47.7365C41.2269 48.9989 35.6634 48.0455 29.7731 47.0359C23.479 45.9572 16.9711 44.8417 8.80295 44.8417C7.50147 44.8417 6.17231 44.8709 4.85021 44.9281C3.65674 45.0831 2.39107 45.1615 1.08579 45.1615C0.503438 45.1615 0.0247678 44.7039 0.000887573 44.1249C-0.02245 43.5458 0.417163 43.0515 0.997346 43.0045C2.22392 42.9046 3.45538 42.8268 4.6597 42.7733C12.589 41.713 16.4669 37.0453 20.2171 32.5304C24.1091 27.8454 28.134 23 36.3928 23C42.8215 23 46.0323 26.4237 47.5004 29.6232C48.9685 26.4237 52.1793 23 58.608 23C66.8667 23 70.8911 27.8449 74.783 32.5304C78.5523 37.0679 82.4508 41.76 90.4615 42.7895C91.6664 42.8268 92.8658 42.8992 94.0164 43.0051C94.5917 43.0586 95.0259 43.5539 94.9988 44.1308C94.9717 44.7072 94.494 45.1615 93.9133 45.1615C92.6596 45.1615 91.4439 45.0891 90.2933 44.9459C83.0098 44.7347 75.563 45.8556 68.3538 46.9408C61.6288 47.9531 54.6742 49 47.7473 49Z" fill="#344428"></path>
  <path d="M46.9261 74C24.9706 74 18.9832 62.0752 14.6115 53.3678C11.9998 48.165 10.3616 45.222 7.07388 45.222C6.48056 45.222 6 44.7243 6 44.111C6 43.4972 6.48056 43 7.07388 43C11.8263 43 14.0004 47.3295 16.5176 52.3434C20.6354 60.5453 26.2754 71.778 46.9261 71.778C47.5189 71.778 48 72.2757 48 72.889C48 73.5028 47.5189 74 46.9261 74Z" fill="#344428"></path>
  <path d="M47.0739 74C46.4806 74 46 73.5028 46 72.889C46 72.2757 46.4806 71.778 47.0739 71.778C66.8725 71.778 72.5498 61.0808 77.1119 52.4851C79.8113 47.3956 82.1471 43 86.9261 43C87.5221 43 88 43.4972 88 44.111C88 44.7243 87.5221 45.222 86.9261 45.222C83.4197 45.222 81.5618 48.7172 78.9951 53.555C74.4147 62.1829 68.1435 74 47.0739 74Z" fill="#344428"></path>
  <path d="M56.0778 68C55.5784 68 55.1302 67.6531 55.0234 67.148C54.9005 66.5683 55.2737 65.9999 55.8567 65.8776C65.4133 63.8775 68.9096 56.6901 68.9436 56.6177C69.1965 56.0831 69.8378 55.8503 70.3771 56.1008C70.9159 56.3506 71.1499 56.9861 70.8997 57.5223C70.7438 57.8569 66.9546 65.7468 56.301 67.9764C56.2261 67.9925 56.1511 68 56.0778 68Z" fill="#344428"></path>
</svg>
