<?xml version="1.0" encoding="UTF-8"?>
<svg xmlns="http://www.w3.org/2000/svg" width="180" height="180" viewBox="0 0 180 180" fill="none">
  <path d="M90 153.305C124.962 153.305 153.305 124.962 153.305 90C153.305 55.0376 124.962 26.6949 90 26.6949C55.0376 26.6949 26.6949 55.0376 26.6949 90C26.6949 124.962 55.0376 153.305 90 153.305ZM179.237 90C179.237 139.284 139.284 179.237 90 179.237C40.7156 179.237 0.762712 139.284 0.762712 90C0.762712 40.7156 40.7156 0.762712 90 0.762712C139.284 0.762712 179.237 40.7156 179.237 90Z" stroke="#89564C" stroke-width="1.52542"></path>
  <circle cx="14.4915" cy="100.678" r="2.66949" stroke="#89564C" stroke-width="0.762712"></circle>
  <circle cx="162.458" cy="67.1187" r="3.05085" fill="#89564C"></circle>
  <circle cx="20.5933" cy="57.9659" r="3.05085" fill="#89564C"></circle>
  <path d="M52.883 113.341C52.4437 113.429 52.1142 113.385 51.8945 113.209C51.7188 113.033 51.6309 112.814 51.6309 112.55C51.6309 112.155 51.8726 111.847 52.3558 111.628C55.7386 110.354 58.5283 108.223 60.7249 105.235C62.9215 102.204 64.4372 98.0964 65.2719 92.9124C65.3598 92.561 65.3158 92.3413 65.1401 92.2534C64.9644 92.1656 64.7447 92.2315 64.4811 92.4511C63.1192 93.5055 61.4498 94.0327 59.4728 94.0327C57.408 94.0327 55.5629 93.3957 53.9374 92.1217C52.3119 90.8476 51.0159 89.1343 50.0494 86.9816C49.1268 84.785 48.6655 82.3687 48.6655 79.7328C48.6655 77.0529 49.1707 74.5927 50.1812 72.3522C51.1916 70.0677 52.5316 68.2225 54.201 66.8167C55.9143 65.4109 57.8034 64.708 59.8682 64.708C62.1088 64.708 64.0638 65.4548 65.7332 66.9485C67.4026 68.4422 68.6986 70.529 69.6212 73.2088C70.5877 75.8448 71.0709 78.942 71.0709 82.5005C71.0709 87.9481 70.2362 92.8465 68.5668 97.1958C66.9413 101.501 64.7447 105.038 61.977 107.805C59.2532 110.573 56.2219 112.418 52.883 113.341ZM53.4102 79.4033C53.4102 88.0579 55.453 92.3852 59.5387 92.3852C61.7793 92.3852 63.4707 91.221 64.6129 88.8926C65.7551 86.5642 66.3263 83.2693 66.3263 79.0079C66.3263 74.9222 65.7771 71.825 64.6788 69.7162C63.6244 67.5635 61.9989 66.4872 59.8023 66.4872C55.5409 66.4872 53.4102 70.7926 53.4102 79.4033ZM86.2612 113.407C83.7131 113.407 81.5165 112.836 79.6714 111.693C77.8262 110.507 76.3984 109.014 75.388 107.212C74.4215 105.367 73.9382 103.456 73.9382 101.479C73.9382 98.7554 74.707 96.3391 76.2446 94.2304C77.7823 92.0777 79.9569 90.2545 82.7686 88.7608C83.0322 88.629 83.164 88.4753 83.164 88.2995C83.164 88.0799 83.0541 87.8822 82.8345 87.7065C80.3743 86.037 78.5511 84.148 77.3649 82.0392C76.1788 79.8865 75.5857 77.7558 75.5857 75.6471C75.5857 73.4505 76.1129 71.5394 77.1672 69.9139C78.2655 68.2884 79.6933 67.0144 81.4506 66.0918C83.2079 65.1692 85.119 64.708 87.1838 64.708C89.1607 64.708 90.94 65.1692 92.5215 66.0918C94.1031 66.9705 95.3552 68.2006 96.2777 69.7821C97.2003 71.3198 97.6616 73.077 97.6616 75.054C97.6616 77.3385 96.9587 79.4692 95.5529 81.4461C94.147 83.3791 92.2799 84.9827 89.9515 86.2567C89.6879 86.3885 89.5561 86.5642 89.5561 86.7839C89.5561 86.9596 89.6879 87.1353 89.9515 87.3111C93.1585 89.332 95.4211 91.4187 96.739 93.5714C98.1009 95.6802 98.7819 98.0086 98.7819 100.557C98.7819 103.017 98.2327 105.213 97.1344 107.146C96.0361 109.079 94.5424 110.617 92.6533 111.759C90.7642 112.858 88.6335 113.407 86.2612 113.407ZM86.9861 85.4659C87.5572 85.8613 88.1283 85.8393 88.6994 85.4C90.3689 84.2139 91.6209 82.6982 92.4556 80.853C93.3343 79.0079 93.7736 77.009 93.7736 74.8563C93.7736 72.3082 93.2025 70.2873 92.0602 68.7936C90.9619 67.256 89.2925 66.4872 87.052 66.4872C84.7675 66.4872 82.9223 67.1682 81.5165 68.5301C80.1546 69.892 79.4737 71.6932 79.4737 73.9337C79.4737 75.2517 79.6494 76.5477 80.0009 77.8217C80.3962 79.0958 81.1431 80.3698 82.2414 81.6438C83.3397 82.8739 84.9213 84.148 86.9861 85.4659ZM86.393 111.628C89.0289 111.628 91.0937 110.837 92.5874 109.255C94.1251 107.674 94.8939 105.543 94.8939 102.863C94.8939 100.623 94.4765 98.7115 93.6418 97.1299C92.851 95.5044 91.7747 94.0986 90.4128 92.9124C89.0509 91.6823 87.4913 90.5621 85.734 89.5516C85.1629 89.1562 84.5918 89.1562 84.0207 89.5516C79.9789 92.3193 77.958 96.3611 77.958 101.677C77.958 103.346 78.2216 104.95 78.7488 106.487C79.276 108.025 80.1546 109.277 81.3847 110.244C82.6148 111.166 84.2842 111.628 86.393 111.628ZM109.377 87.7065C107.752 87.7065 106.324 87.2012 105.094 86.1908C103.864 85.1364 102.897 83.7526 102.194 82.0392C101.535 80.2819 101.206 78.3269 101.206 76.1743C101.206 74.0216 101.535 72.0886 102.194 70.3752C102.897 68.6179 103.864 67.2341 105.094 66.2236C106.324 65.2132 107.752 64.708 109.377 64.708C111.003 64.708 112.409 65.2132 113.595 66.2236C114.825 67.2341 115.791 68.6179 116.494 70.3752C117.197 72.0886 117.549 74.0216 117.549 76.1743C117.549 78.3269 117.197 80.2819 116.494 82.0392C115.791 83.7526 114.825 85.1364 113.595 86.1908C112.409 87.2012 111.003 87.7065 109.377 87.7065ZM104.303 112.814C103.6 112.814 103.424 112.506 103.776 111.891L131.387 65.8941C131.563 65.5427 131.871 65.3669 132.31 65.3669H133.035C133.738 65.3669 133.913 65.6745 133.562 66.2895L105.951 112.287C105.775 112.638 105.467 112.814 105.028 112.814H104.303ZM109.377 86.3885C110.739 86.3885 111.837 85.6417 112.672 84.148C113.507 82.6103 113.924 79.9524 113.924 76.1743C113.924 72.3961 113.507 69.7602 112.672 68.2665C111.837 66.7728 110.739 66.0259 109.377 66.0259C108.015 66.0259 106.917 66.7728 106.082 68.2665C105.248 69.7602 104.83 72.3961 104.83 76.1743C104.83 79.9524 105.248 82.6103 106.082 84.148C106.917 85.6417 108.015 86.3885 109.377 86.3885ZM127.961 113.473C126.335 113.473 124.907 112.967 123.677 111.957C122.447 110.903 121.481 109.519 120.778 107.805C120.119 106.048 119.789 104.093 119.789 101.94C119.789 99.7878 120.119 97.8548 120.778 96.1414C121.481 94.3842 122.447 93.0003 123.677 91.9899C124.907 90.9794 126.335 90.4742 127.961 90.4742C129.586 90.4742 130.992 90.9794 132.178 91.9899C133.408 93.0003 134.375 94.3842 135.078 96.1414C135.781 97.8548 136.132 99.7878 136.132 101.94C136.132 104.093 135.781 106.048 135.078 107.805C134.375 109.519 133.408 110.903 132.178 111.957C130.992 112.967 129.586 113.473 127.961 113.473ZM127.961 112.155C129.322 112.155 130.421 111.408 131.255 109.914C132.09 108.377 132.508 105.719 132.508 101.94C132.508 98.1623 132.09 95.5264 131.255 94.0327C130.421 92.539 129.322 91.7922 127.961 91.7922C126.599 91.7922 125.5 92.539 124.666 94.0327C123.831 95.5264 123.414 98.1623 123.414 101.94C123.414 105.719 123.831 108.377 124.666 109.914C125.5 111.408 126.599 112.155 127.961 112.155Z" fill="#89564C"></path>
  <path d="M89.5492 166.119C89.5492 165.222 89.7171 164.455 90.053 163.815C90.3861 163.179 90.8411 162.691 91.4181 162.353C91.9923 162.014 92.6437 161.845 93.3722 161.845C94.1008 161.845 94.7536 162.014 95.3305 162.353C95.9047 162.694 96.3597 163.183 96.6956 163.819C97.0287 164.459 97.1953 165.225 97.1953 166.119C97.1953 167.015 97.0287 167.782 96.6956 168.418C96.3597 169.058 95.9047 169.547 95.3305 169.885C94.7536 170.224 94.1008 170.393 93.3722 170.393C92.6437 170.393 91.9923 170.224 91.4181 169.885C90.8411 169.547 90.3861 169.058 90.053 168.418C89.7171 167.782 89.5492 167.015 89.5492 166.119ZM91.0646 166.119C91.0646 166.75 91.1635 167.282 91.3612 167.716C91.5562 168.152 91.827 168.481 92.1737 168.703C92.5204 168.928 92.9199 169.04 93.3722 169.04C93.8246 169.04 94.2241 168.928 94.5707 168.703C94.9174 168.481 95.1896 168.152 95.3874 167.716C95.5824 167.282 95.6799 166.75 95.6799 166.119C95.6799 165.488 95.5824 164.954 95.3874 164.518C95.1896 164.085 94.9174 163.756 94.5707 163.531C94.2241 163.309 93.8246 163.198 93.3722 163.198C92.9199 163.198 92.5204 163.309 92.1737 163.531C91.827 163.756 91.5562 164.085 91.3612 164.518C91.1635 164.954 91.0646 165.488 91.0646 166.119Z" fill="#89564C"></path>
  <path d="M82.2472 161.799L80.7184 169.977L77.6513 169.404C77.023 169.287 76.5177 169.071 76.1355 168.757C75.7507 168.443 75.4874 168.06 75.3458 167.609C75.2009 167.16 75.177 166.677 75.2741 166.157C75.3721 165.633 75.5697 165.188 75.8668 164.822C76.164 164.456 76.5501 164.196 77.0252 164.042C77.4998 163.891 78.0526 163.875 78.6836 163.992L80.7163 164.372L80.4886 165.59L78.6555 165.248C78.2881 165.179 77.9753 165.187 77.7172 165.271C77.459 165.355 77.2531 165.498 77.0995 165.701C76.9432 165.903 76.8379 166.149 76.7837 166.44C76.7294 166.73 76.7389 166.996 76.812 167.238C76.8826 167.48 77.0248 167.685 77.2389 167.851C77.4498 168.02 77.7403 168.139 78.1104 168.209L79.4682 168.462L80.7656 161.522L82.2472 161.799Z" fill="#89564C"></path>
  <path d="M61.4049 165.094L64.4106 157.335L65.8161 157.879L62.8103 165.638L61.4049 165.094Z" fill="#89564C"></path>
  <path d="M46.7197 157.734L51.0998 150.659L52.2397 151.365L52.5895 158.248L52.6482 158.284L55.6318 153.465L56.9133 154.259L52.5331 161.333L51.3863 160.623L51.0421 153.739L50.98 153.701L47.9943 158.523L46.7197 157.734Z" fill="#89564C"></path>
  <path d="M36.2892 149.802L41.8947 143.653L43.0086 144.669L37.4031 150.818L36.2892 149.802Z" fill="#89564C"></path>
  <path d="M28.2144 134.651C28.9298 134.11 29.6438 133.782 30.3563 133.664C31.065 133.547 31.7283 133.616 32.3461 133.872C32.9623 134.127 33.49 134.544 33.929 135.126C34.3681 135.707 34.6264 136.33 34.7039 136.995C34.7776 137.658 34.6616 138.316 34.3561 138.968C34.0468 139.619 33.5355 140.214 32.8222 140.752C32.1068 141.293 31.3947 141.622 30.686 141.739C29.9735 141.857 29.3092 141.788 28.6929 141.534C28.0751 141.277 27.5466 140.859 27.1076 140.277C26.6685 139.696 26.411 139.074 26.3352 138.412C26.2577 137.747 26.3736 137.09 26.683 136.438C26.9885 135.787 27.499 135.191 28.2144 134.651ZM29.1276 135.86C28.624 136.24 28.2589 136.64 28.0322 137.059C27.8017 137.477 27.7024 137.892 27.734 138.302C27.7636 138.714 27.9146 139.101 28.1872 139.462C28.4598 139.823 28.7902 140.074 29.1786 140.215C29.5647 140.358 29.9914 140.377 30.4585 140.272C30.9219 140.166 31.4054 139.923 31.909 139.543C32.4126 139.163 32.7796 138.763 33.0101 138.345C33.2368 137.926 33.3353 137.51 33.3058 137.098C33.2741 136.688 33.122 136.302 32.8494 135.941C32.5768 135.58 32.2474 135.328 31.8613 135.185C31.473 135.044 31.0471 135.026 30.5838 135.132C30.1166 135.237 29.6313 135.48 29.1276 135.86Z" fill="#89564C"></path>
  <path d="M17.649 124.977L25.0972 121.268L25.6948 122.468L22.369 128.504L22.3998 128.566L27.4731 126.04L28.145 127.389L20.6968 131.098L20.0956 129.89L23.4268 123.856L23.3942 123.791L18.3172 126.319L17.649 124.977Z" fill="#89564C"></path>
  <path d="M15.1314 112.035C14.8006 112.168 14.5786 112.398 14.4655 112.723C14.3516 113.045 14.3559 113.421 14.4782 113.851C14.5642 114.153 14.6835 114.399 14.8362 114.59C14.9889 114.78 15.1597 114.91 15.3486 114.98C15.5376 115.051 15.7327 115.058 15.934 115.004C16.1007 114.957 16.2346 114.878 16.3355 114.767C16.4357 114.654 16.5099 114.519 16.5581 114.362C16.6036 114.205 16.6321 114.038 16.6435 113.86C16.6548 113.682 16.6567 113.506 16.6491 113.331L16.6232 112.527C16.6075 112.205 16.62 111.887 16.6605 111.574C16.7003 111.259 16.7798 110.965 16.8992 110.691C17.0178 110.415 17.1875 110.175 17.4084 109.972C17.6292 109.768 17.9129 109.617 18.2594 109.519C18.7283 109.385 19.1753 109.387 19.6004 109.526C20.0228 109.664 20.3989 109.932 20.7284 110.328C21.0547 110.723 21.3089 111.24 21.4913 111.881C21.6684 112.504 21.7258 113.072 21.6635 113.585C21.6004 114.096 21.4206 114.533 21.1241 114.896C20.8268 115.256 20.4154 115.523 19.8899 115.695L19.4841 114.268C19.7569 114.168 19.9643 114.016 20.1063 113.813C20.2482 113.609 20.3304 113.373 20.3526 113.105C20.3741 112.834 20.3419 112.547 20.2559 112.245C20.1662 111.93 20.0407 111.667 19.8795 111.457C19.7149 111.245 19.5287 111.095 19.3208 111.007C19.1103 110.921 18.8901 110.909 18.6601 110.972C18.4524 111.034 18.2979 111.144 18.1966 111.302C18.0926 111.461 18.0258 111.662 17.9961 111.904C17.9631 112.144 17.9509 112.418 17.9595 112.725L17.9841 113.703C18.0023 114.41 17.8939 115.004 17.659 115.485C17.4207 115.964 17.0151 116.285 16.4419 116.448C15.9704 116.582 15.5212 116.572 15.0943 116.417C14.6666 116.26 14.292 115.988 13.9707 115.601C13.6467 115.214 13.405 114.741 13.2456 114.181C13.084 113.613 13.0415 113.087 13.1179 112.603C13.191 112.118 13.3672 111.703 13.6466 111.359C13.9234 111.015 14.2861 110.776 14.7345 110.64L15.1314 112.035Z" fill="#89564C"></path>
  <path d="M14.3735 81.6119C15.2662 81.6947 16.0152 81.9327 16.6207 82.3261C17.2238 82.7166 17.6672 83.2146 17.9511 83.8203C18.2353 84.4233 18.3437 85.0876 18.2765 85.813C18.2093 86.5385 17.9805 87.1728 17.5901 87.7161C17.1973 88.2563 16.6686 88.6643 16.0038 88.94C15.3366 89.2127 14.558 89.3079 13.668 89.2254C12.7753 89.1427 12.0274 88.9061 11.4244 88.5156C10.8189 88.1222 10.3741 87.6241 10.0899 87.0211C9.80605 86.4154 9.69772 85.7498 9.76495 85.0243C9.83217 84.2988 10.0608 83.6658 10.4509 83.1253C10.8413 82.5821 11.3701 82.1741 12.0373 81.9014C12.702 81.6257 13.4808 81.5292 14.3735 81.6119ZM14.2336 83.1209C13.6053 83.0626 13.0662 83.112 12.6164 83.2689C12.1642 83.4228 11.8116 83.6621 11.5584 83.9869C11.3026 84.3113 11.1538 84.6988 11.1121 85.1491C11.0703 85.5995 11.1454 86.0077 11.3373 86.3737C11.5264 86.7394 11.829 87.0408 12.2449 87.2779C12.6585 87.512 13.1794 87.6582 13.8078 87.7165C14.4362 87.7747 14.9765 87.7268 15.4287 87.5729C15.8784 87.416 16.2312 87.1753 16.4871 86.8509C16.7402 86.5261 16.8876 86.1386 16.9294 85.6882C16.9711 85.2378 16.8974 84.8298 16.7082 84.4641C16.5164 84.0981 16.2137 83.7981 15.8002 83.5639C15.3842 83.3268 14.862 83.1791 14.2336 83.1209Z" fill="#89564C"></path>
  <path d="M20.0156 73.381L12.0127 71.104L13.4714 65.9772L14.6867 66.323L13.6405 70.0001L15.8131 70.6182L16.7593 67.2928L17.9746 67.6386L17.0284 70.964L20.4281 71.9313L20.0156 73.381Z" fill="#89564C"></path>
  <path d="M29.0593 51.6694L22.4194 46.6552L24.2997 44.1652C24.6849 43.6551 25.1032 43.299 25.5546 43.0968C26.0075 42.8925 26.4674 42.8273 26.9341 42.9015C27.4003 42.9718 27.8441 43.1661 28.2656 43.4844C28.6914 43.806 29.0019 44.1813 29.1971 44.6104C29.3923 45.0396 29.4528 45.501 29.3786 45.9948C29.3022 46.487 29.0706 46.9892 28.6838 47.5014L27.4376 49.1517L26.4487 48.4049L27.5725 46.9168C27.7978 46.6185 27.9303 46.3351 27.9702 46.0665C28.0101 45.798 27.9736 45.5498 27.8606 45.3219C27.7492 45.0918 27.5757 44.8878 27.3401 44.7099C27.1045 44.532 26.8619 44.4218 26.6123 44.3793C26.3644 44.3346 26.1181 44.3709 25.8734 44.4881C25.6281 44.6016 25.3921 44.8086 25.1652 45.109L24.3328 46.2114L29.9676 50.4666L29.0593 51.6694Z" fill="#89564C"></path>
  <path d="M38.8087 39.6946L33.2033 33.5457L35.5091 31.4436C35.9815 31.013 36.4526 30.7338 36.9225 30.606C37.3944 30.4763 37.8474 30.4848 38.2816 30.6314C38.716 30.7742 39.112 31.0417 39.4696 31.4341C39.8291 31.8284 40.057 32.2473 40.1535 32.6908C40.2501 33.1305 40.2084 33.5772 40.0282 34.0309C39.8463 34.4826 39.5192 34.9238 39.0468 35.3544L37.4045 36.8516L36.5615 35.9269L38.0536 34.5665C38.3299 34.3147 38.5214 34.0705 38.6282 33.8339C38.7332 33.5952 38.7602 33.3636 38.7092 33.1388C38.6584 32.9102 38.5336 32.6868 38.3347 32.4687C38.1358 32.2505 37.9231 32.1036 37.6965 32.0279C37.4681 31.9502 37.2293 31.9517 36.9802 32.0322C36.7293 32.1107 36.4647 32.2768 36.1864 32.5304L35.1656 33.461L39.9226 38.6792L38.8087 39.6946ZM39.4453 34.0126L43.5075 35.4111L42.2645 36.5443L38.2293 35.1211L39.4453 34.0126Z" fill="#89564C"></path>
  <path d="M51.2316 24.9013C51.7036 25.6635 51.965 26.4048 52.016 27.1251C52.0678 27.8416 51.9376 28.4956 51.6253 29.0872C51.3154 29.6773 50.8507 30.1642 50.2312 30.5477C49.6117 30.9313 48.9676 31.131 48.2989 31.1468C47.6311 31.1589 46.9868 30.9828 46.3662 30.6185C45.7465 30.2504 45.2013 29.6864 44.7308 28.9265C44.2589 28.1642 43.997 27.4248 43.9451 26.7083C43.8942 25.988 44.0237 25.3328 44.3337 24.7427C44.6459 24.1512 45.1118 23.6636 45.7312 23.2801C46.3507 22.8965 46.9936 22.6975 47.6601 22.6831C48.3288 22.6672 48.973 22.8434 49.5928 23.2114C50.2134 23.5758 50.7597 24.1391 51.2316 24.9013ZM49.9432 25.6991C49.611 25.1625 49.2468 24.7621 48.8505 24.4977C48.4552 24.2296 48.0516 24.0924 47.64 24.0861C47.2269 24.0775 46.828 24.1922 46.4435 24.4303C46.0589 24.6684 45.7784 24.9743 45.602 25.3479C45.4241 25.7193 45.3659 26.1424 45.4274 26.6172C45.4897 27.0883 45.687 27.5922 46.0192 28.1287C46.3515 28.6653 46.7152 29.0676 47.1106 29.3357C47.5068 29.6 47.9115 29.7365 48.3246 29.7452C48.7363 29.7515 49.1344 29.6356 49.519 29.3975C49.9036 29.1594 50.1848 28.8546 50.3626 28.4833C50.539 28.1096 50.5961 27.6873 50.5337 27.2162C50.4723 26.7413 50.2754 26.2356 49.9432 25.6991Z" fill="#89564C"></path>
  <path d="M61.2006 24.4439L58.1949 16.6853L63.1652 14.7598L63.6217 15.938L60.0568 17.319L60.8728 19.4254L64.0967 18.1764L64.5531 19.3546L61.3292 20.6035L62.6061 23.8994L61.2006 24.4439Z" fill="#89564C"></path>
  <path d="M70.9017 20.8574L69.3728 12.6786L74.6922 11.6842L74.9244 12.9262L71.0866 13.6436L71.5016 15.864L75.0639 15.1981L75.296 16.4401L71.7338 17.106L72.1511 19.3384L76.0209 18.6151L76.253 19.8571L70.9017 20.8574Z" fill="#89564C"></path>
  <path d="M89.2314 12.5432C89.1935 12.1884 89.0337 11.9122 88.752 11.7144C88.473 11.5167 88.1101 11.4179 87.6632 11.4179C87.349 11.4179 87.0795 11.4653 86.8547 11.5601C86.6299 11.6549 86.4579 11.7835 86.3387 11.946C86.2196 12.1085 86.1586 12.2941 86.1559 12.5026C86.1559 12.676 86.1952 12.8263 86.2737 12.9536C86.355 13.0809 86.4647 13.1892 86.6028 13.2786C86.741 13.3653 86.894 13.4384 87.0619 13.498C87.2298 13.5576 87.3991 13.6077 87.5698 13.6483L88.3498 13.8433C88.664 13.9165 88.966 14.0153 89.2558 14.1399C89.5483 14.2645 89.8097 14.4216 90.0399 14.6112C90.2728 14.8008 90.457 15.0296 90.5924 15.2978C90.7279 15.5659 90.7956 15.8801 90.7956 16.2403C90.7956 16.7279 90.671 17.1572 90.4218 17.5282C90.1726 17.8966 89.8124 18.185 89.3411 18.3936C88.8725 18.5994 88.3051 18.7024 87.6388 18.7024C86.9915 18.7024 86.4295 18.6021 85.9528 18.4017C85.4788 18.2013 85.1077 17.9088 84.8396 17.5242C84.5742 17.1396 84.4306 16.671 84.4089 16.1185H85.8918C85.9135 16.4083 86.0029 16.6493 86.16 16.8416C86.3171 17.0339 86.5216 17.1775 86.7735 17.2723C87.0281 17.3671 87.3125 17.4145 87.6266 17.4145C87.9544 17.4145 88.2415 17.3657 88.4879 17.2682C88.7371 17.168 88.9321 17.0299 89.073 16.8538C89.2138 16.6751 89.2856 16.4665 89.2883 16.2282C89.2856 16.0115 89.2219 15.8327 89.0974 15.6919C88.9728 15.5483 88.7981 15.4291 88.5733 15.3343C88.3512 15.2368 88.0911 15.1502 87.7932 15.0743L86.8466 14.8306C86.1613 14.6545 85.6196 14.3877 85.2215 14.0302C84.8261 13.67 84.6283 13.1919 84.6283 12.5961C84.6283 12.1058 84.7611 11.6765 85.0265 11.3082C85.2946 10.9398 85.6589 10.6541 86.1194 10.4509C86.5798 10.2451 87.1012 10.1422 87.6835 10.1422C88.274 10.1422 88.7913 10.2451 89.2355 10.4509C89.6824 10.6541 90.0331 10.9371 90.2877 11.3C90.5423 11.6603 90.6737 12.0747 90.6818 12.5432L89.2314 12.5432Z" fill="#89564C"></path>
  <path d="M103.522 13.7718C103.549 13.4161 103.443 13.1152 103.203 12.8691C102.965 12.6235 102.626 12.4596 102.187 12.3775C101.878 12.3197 101.604 12.3168 101.366 12.3687C101.128 12.4206 100.935 12.5154 100.788 12.6533C100.641 12.7911 100.547 12.9623 100.506 13.1668C100.474 13.3372 100.485 13.4922 100.539 13.6317C100.595 13.7718 100.683 13.8984 100.803 14.0117C100.922 14.1223 101.059 14.2223 101.214 14.3117C101.368 14.4011 101.525 14.4815 101.685 14.5528L102.416 14.8878C102.711 15.0174 102.99 15.1701 103.252 15.3458C103.517 15.522 103.745 15.7245 103.936 15.9531C104.13 16.1823 104.269 16.4411 104.353 16.7296C104.437 17.018 104.446 17.3393 104.38 17.6934C104.29 18.1726 104.089 18.5717 103.776 18.8907C103.463 19.207 103.056 19.4243 102.554 19.5427C102.056 19.659 101.479 19.6559 100.824 19.5335C100.188 19.4145 99.654 19.2127 99.2222 18.9281C98.7931 18.644 98.4821 18.2883 98.2892 17.861C98.099 17.4341 98.044 16.9472 98.1242 16.4001L99.5819 16.6725C99.5499 16.9614 99.5935 17.2148 99.7126 17.4327C99.8316 17.6506 100.006 17.8292 100.236 17.9687C100.469 18.1087 100.74 18.2075 101.049 18.2653C101.371 18.3255 101.662 18.3303 101.922 18.2797C102.186 18.227 102.403 18.1271 102.574 17.9799C102.745 17.8301 102.854 17.6383 102.9 17.4045C102.937 17.191 102.908 17.0036 102.811 16.8422C102.715 16.6782 102.565 16.529 102.362 16.3945C102.161 16.2578 101.922 16.1249 101.643 15.9956L100.757 15.582C100.116 15.283 99.6323 14.9213 99.3066 14.4967C98.9841 14.0699 98.8776 13.5637 98.9871 12.9779C99.0772 12.4961 99.2865 12.0985 99.6151 11.7851C99.9464 11.4723 100.357 11.2584 100.847 11.1433C101.337 11.0256 101.869 11.0202 102.441 11.1272C103.022 11.2357 103.511 11.4319 103.91 11.7159C104.312 11.9977 104.605 12.3404 104.788 12.7439C104.972 13.1448 105.025 13.5763 104.947 14.0384L103.522 13.7718Z" fill="#89564C"></path>
  <path d="M118.09 15.4416L115.085 23.2003L113.679 22.6558L116.685 14.8971L118.09 15.4416Z" fill="#89564C"></path>
  <path d="M131.093 26.653C130.621 27.4153 130.074 27.9797 129.452 28.3464C128.834 28.7122 128.19 28.8871 127.521 28.8713C126.855 28.8568 126.212 28.6579 125.593 28.2743C124.973 27.8908 124.507 27.4032 124.195 26.8116C123.886 26.2192 123.757 25.564 123.806 24.8461C123.86 24.1272 124.122 23.3878 124.592 22.6279C125.064 21.8657 125.609 21.3017 126.227 20.9359C126.85 20.5692 127.494 20.3931 128.16 20.4075C128.829 20.4234 129.473 20.6231 130.092 21.0066C130.712 21.3902 131.177 21.877 131.487 22.4672C131.799 23.0587 131.928 23.7139 131.875 24.4328C131.826 25.1507 131.565 25.8908 131.093 26.653ZM129.804 25.8553C130.137 25.3187 130.333 24.8142 130.393 24.3417C130.457 23.8682 130.4 23.4459 130.222 23.0745C130.045 22.7009 129.765 22.395 129.38 22.1569C128.996 21.9188 128.597 21.804 128.184 21.8127C127.772 21.819 127.367 21.9555 126.97 22.2221C126.576 22.4879 126.213 22.8891 125.88 23.4257C125.548 23.9622 125.35 24.4672 125.287 24.9406C125.227 25.4131 125.285 25.8362 125.461 26.2099C125.639 26.5812 125.92 26.8859 126.305 27.1241C126.689 27.3622 127.087 27.4781 127.499 27.4717C127.912 27.4631 128.316 27.3259 128.71 27.0601C129.107 26.7935 129.472 26.3918 129.804 25.8553Z" fill="#89564C"></path>
  <path d="M144.44 31.8565L138.834 38.0055L137.843 37.1022L138.764 30.2726L138.713 30.2261L134.895 34.4145L133.781 33.399L139.387 27.2501L140.383 28.1588L139.457 34.9887L139.511 35.0379L143.332 30.8466L144.44 31.8565Z" fill="#89564C"></path>
  <path d="M144.566 43.8959L143.597 42.612L152.002 39.9354L153.123 41.4203L148.251 48.7753L147.282 47.4914L151.221 41.7321L151.181 41.6802L144.566 43.8959ZM147.202 41.972L149.846 45.4735L148.88 46.2031L146.235 42.7016L147.202 41.972Z" fill="#89564C"></path>
  <path d="M152.983 56.4242L160.431 52.7154L161.103 54.0647L154.786 57.2103L156.419 60.4907L155.288 61.0539L152.983 56.4242Z" fill="#89564C"></path>
  <path d="M166.815 85.2187L166.675 83.7057C166.919 83.6396 167.132 83.5396 167.312 83.4059C167.496 83.272 167.647 83.1124 167.766 82.9273C167.885 82.7422 167.968 82.536 168.015 82.3086C168.064 82.0836 168.078 81.8444 168.054 81.5909C168.012 81.1405 167.862 80.7519 167.603 80.425C167.347 80.0978 166.993 79.8559 166.541 79.6992C166.091 79.5424 165.554 79.4928 164.931 79.5505C164.298 79.6092 163.773 79.7572 163.357 79.9943C162.944 80.2338 162.643 80.5365 162.454 80.9022C162.267 81.2703 162.195 81.6782 162.236 82.1259C162.259 82.374 162.313 82.603 162.398 82.8127C162.486 83.0249 162.602 83.2113 162.748 83.3719C162.893 83.5353 163.066 83.6675 163.266 83.7687C163.466 83.8725 163.689 83.9361 163.936 83.9595L164.069 85.4732C163.67 85.4531 163.289 85.3646 162.926 85.2078C162.564 85.0537 162.236 84.8379 161.944 84.5603C161.654 84.2825 161.417 83.9482 161.231 83.5574C161.048 83.1663 160.933 82.7241 160.888 82.2305C160.82 81.5023 160.928 80.8368 161.212 80.2338C161.497 79.6308 161.942 79.1353 162.548 78.7473C163.154 78.3593 163.902 78.124 164.792 78.0416C165.684 77.9588 166.463 78.054 167.127 78.327C167.795 78.5997 168.323 79.0064 168.713 79.5469C169.104 80.0874 169.332 80.719 169.399 81.4418C169.442 81.903 169.417 82.3378 169.324 82.7462C169.231 83.1547 169.074 83.5256 168.852 83.859C168.633 84.1921 168.351 84.4752 168.008 84.7083C167.669 84.9438 167.271 85.1139 166.815 85.2187Z" fill="#89564C"></path>
  <path d="M169.466 97.1264L169.327 98.6272L163.914 98.1256C163.321 98.0707 162.812 97.8821 162.388 97.5598C161.963 97.2403 161.647 96.8167 161.441 96.2888C161.237 95.7613 161.166 95.1604 161.228 94.4861C161.291 93.8092 161.471 93.2302 161.769 92.7491C162.069 92.2683 162.457 91.9098 162.933 91.6738C163.409 91.4377 163.944 91.3472 164.537 91.4022L169.95 91.9037L169.811 93.4046L164.524 92.9146C164.179 92.8826 163.864 92.9297 163.58 93.0557C163.296 93.1844 163.065 93.3806 162.885 93.6441C162.709 93.9079 162.603 94.2299 162.567 94.6102C162.532 94.9905 162.577 95.3265 162.702 95.6183C162.83 95.913 163.022 96.1484 163.277 96.3244C163.533 96.5004 163.834 96.6044 164.179 96.6364L169.466 97.1264Z" fill="#89564C"></path>
  <path d="M164.646 111.041C164.997 111.101 165.307 111.023 165.574 110.807C165.841 110.592 166.035 110.27 166.157 109.84C166.243 109.538 166.271 109.266 166.242 109.024C166.212 108.782 166.135 108.581 166.012 108.422C165.888 108.263 165.726 108.154 165.526 108.094C165.36 108.046 165.204 108.043 165.06 108.084C164.916 108.127 164.782 108.203 164.658 108.311C164.537 108.421 164.424 108.548 164.321 108.693C164.218 108.838 164.123 108.987 164.038 109.14L163.637 109.837C163.48 110.119 163.303 110.383 163.103 110.627C162.903 110.875 162.681 111.083 162.436 111.253C162.189 111.425 161.919 111.539 161.624 111.596C161.329 111.653 161.008 111.632 160.662 111.534C160.193 111.4 159.814 111.163 159.525 110.822C159.239 110.481 159.06 110.056 158.989 109.545C158.919 109.038 158.975 108.464 159.158 107.824C159.335 107.201 159.585 106.688 159.908 106.284C160.231 105.883 160.614 105.606 161.057 105.454C161.499 105.304 161.989 105.294 162.527 105.424L162.121 106.85C161.836 106.792 161.58 106.812 161.352 106.91C161.124 107.009 160.93 107.166 160.77 107.383C160.609 107.601 160.486 107.862 160.4 108.164C160.31 108.479 160.278 108.769 160.305 109.033C160.333 109.3 160.412 109.525 160.543 109.709C160.677 109.893 160.857 110.019 161.086 110.087C161.295 110.144 161.484 110.132 161.654 110.05C161.826 109.97 161.989 109.834 162.141 109.644C162.296 109.457 162.45 109.231 162.605 108.965L163.098 108.121C163.455 107.51 163.86 107.062 164.313 106.777C164.768 106.495 165.282 106.436 165.855 106.599C166.326 106.733 166.703 106.978 166.984 107.334C167.265 107.693 167.44 108.122 167.51 108.62C167.582 109.119 167.538 109.649 167.379 110.209C167.217 110.777 166.977 111.246 166.657 111.617C166.339 111.992 165.971 112.252 165.552 112.397C165.136 112.543 164.702 112.556 164.249 112.436L164.646 111.041Z" fill="#89564C"></path>
  <path d="M161.669 122.498L162.8 123.061L159.841 129.004L158.71 128.44L159.857 126.138L153.54 122.993L154.206 121.654L160.523 124.8L161.669 122.498Z" fill="#89564C"></path>
  <path d="M149.275 137.306C148.56 136.766 148.048 136.169 147.741 135.516C147.434 134.866 147.319 134.209 147.396 133.545C147.472 132.883 147.73 132.261 148.169 131.679C148.608 131.098 149.136 130.679 149.754 130.423C150.372 130.17 151.037 130.102 151.747 130.217C152.458 130.337 153.17 130.666 153.883 131.204C154.599 131.745 155.11 132.339 155.417 132.989C155.725 133.642 155.841 134.3 155.765 134.962C155.687 135.626 155.429 136.249 154.99 136.831C154.551 137.412 154.023 137.83 153.407 138.084C152.789 138.341 152.125 138.409 151.414 138.29C150.704 138.174 149.991 137.846 149.275 137.306ZM150.189 136.097C150.692 136.477 151.177 136.719 151.642 136.822C152.107 136.929 152.533 136.912 152.919 136.769C153.307 136.627 153.638 136.376 153.91 136.015C154.183 135.655 154.334 135.268 154.364 134.856C154.395 134.445 154.297 134.03 154.068 133.609C153.84 133.192 153.474 132.794 152.97 132.414C152.466 132.033 151.982 131.79 151.516 131.682C151.051 131.579 150.625 131.598 150.236 131.739C149.85 131.882 149.521 132.134 149.248 132.495C148.976 132.856 148.824 133.241 148.792 133.652C148.762 134.064 148.862 134.479 149.09 134.895C149.319 135.316 149.685 135.716 150.189 136.097Z" fill="#89564C"></path>
  <path d="M150.081 143.535L148.718 144.778L142.831 141.987L142.759 142.052L144.995 148.172L143.632 149.415L138.026 143.266L139.095 142.291L142.946 146.516L143.003 146.464L140.868 140.708L141.667 139.98L147.209 142.646L147.266 142.594L143.407 138.361L144.475 137.386L150.081 143.535Z" fill="#89564C"></path>
  <path d="M132.395 148.183L136.775 155.257L132.174 158.106L131.509 157.031L134.829 154.976L133.639 153.055L130.558 154.963L129.893 153.889L132.974 151.981L131.779 150.05L128.432 152.123L127.766 151.048L132.395 148.183Z" fill="#89564C"></path>
  <path d="M118.978 155.827L121.984 163.585L119.074 164.712C118.478 164.943 117.938 165.033 117.454 164.983C116.967 164.933 116.548 164.762 116.196 164.468C115.842 164.178 115.57 163.786 115.378 163.291C115.185 162.793 115.124 162.32 115.194 161.872C115.263 161.427 115.463 161.025 115.795 160.667C116.128 160.312 116.592 160.019 117.188 159.788L119.261 158.985L119.713 160.152L117.83 160.881C117.481 161.016 117.214 161.175 117.029 161.357C116.845 161.541 116.736 161.748 116.703 161.976C116.667 162.207 116.703 162.461 116.81 162.736C116.917 163.011 117.062 163.225 117.246 163.377C117.431 163.532 117.654 163.617 117.915 163.632C118.178 163.65 118.484 163.59 118.835 163.454L120.123 162.955L117.573 156.371L118.978 155.827ZM116.332 160.895L113.049 158.123L114.618 157.516L117.866 160.301L116.332 160.895Z" fill="#89564C"></path>
  <path d="M104.537 166.573C104.64 166.915 104.848 167.157 105.161 167.3C105.472 167.443 105.847 167.474 106.286 167.391C106.595 167.334 106.851 167.238 107.054 167.103C107.258 166.969 107.403 166.811 107.491 166.629C107.578 166.447 107.604 166.254 107.568 166.048C107.536 165.878 107.47 165.737 107.369 165.627C107.266 165.516 107.138 165.43 106.986 165.368C106.834 165.308 106.671 165.264 106.495 165.236C106.319 165.209 106.143 165.19 105.968 165.182L105.165 165.133C104.843 165.119 104.528 165.078 104.22 165.008C103.91 164.94 103.624 164.833 103.363 164.689C103.099 164.546 102.876 164.354 102.694 164.116C102.511 163.877 102.387 163.581 102.321 163.227C102.231 162.747 102.275 162.303 102.451 161.892C102.629 161.484 102.93 161.134 103.355 160.843C103.777 160.554 104.316 160.349 104.971 160.226C105.608 160.108 106.178 160.103 106.684 160.212C107.187 160.322 107.605 160.541 107.939 160.87C108.271 161.2 108.498 161.634 108.621 162.173L107.163 162.445C107.089 162.164 106.957 161.944 106.767 161.784C106.577 161.624 106.35 161.52 106.085 161.473C105.817 161.427 105.529 161.432 105.22 161.49C104.898 161.55 104.624 161.651 104.4 161.792C104.174 161.937 104.007 162.108 103.901 162.307C103.796 162.509 103.763 162.727 103.804 162.962C103.847 163.174 103.942 163.338 104.091 163.454C104.24 163.572 104.433 163.657 104.672 163.709C104.908 163.764 105.179 163.801 105.486 163.821L106.461 163.887C107.167 163.934 107.749 164.097 108.206 164.375C108.661 164.656 108.943 165.09 109.052 165.676C109.143 166.158 109.091 166.604 108.898 167.015C108.702 167.426 108.396 167.774 107.981 168.058C107.566 168.345 107.073 168.542 106.5 168.649C105.92 168.758 105.392 168.752 104.918 168.631C104.441 168.513 104.045 168.299 103.728 167.989C103.411 167.682 103.206 167.299 103.112 166.84L104.537 166.573Z" fill="#89564C"></path>
</svg>
