<?xml version="1.0" encoding="UTF-8"?>
<svg xmlns="http://www.w3.org/2000/svg" width="96" height="96" viewBox="0 0 96 96" fill="none">
  <g clip-path="url(#clip0_327_4903)">
    <path d="M17.8283 47.9991C20.6921 51.4523 33.2645 65.5063 48.0031 65.5063C62.7541 65.5063 75.3141 51.4548 78.1717 48.0003C75.3079 44.5471 62.7356 30.4937 48.0031 30.4937C33.2459 30.4937 20.686 44.5446 17.8283 47.9991ZM48.0031 68C30.055 68 15.8533 49.5439 15.2546 48.7578C14.9151 48.3102 14.9151 47.6886 15.2546 47.2416C15.8533 46.4554 30.055 28 48.0031 28C65.9451 28 80.1467 46.4554 80.7454 47.2416C81.0849 47.6886 81.0849 48.3102 80.7454 48.7578C80.1467 49.5439 65.9451 68 48.0031 68Z" fill="#344428"></path>
    <path d="M47.5031 35.4611C40.8638 35.4611 35.4613 40.8614 35.4613 47.4997C35.4613 54.138 40.8638 59.5389 47.5031 59.5389C54.1363 59.5389 59.5387 54.138 59.5387 47.4997C59.5387 40.8614 54.1363 35.4611 47.5031 35.4611ZM47.5031 62C39.504 62 33 55.4953 33 47.4997C33 39.5041 39.504 33 47.5031 33C55.4961 33 62 39.5041 62 47.4997C62 55.4953 55.4961 62 47.5031 62Z" fill="#344428"></path>
    <path d="M48.0031 36C41.3852 36 36 41.3829 36 47.9997C36 54.6165 41.3852 60 48.0031 60C54.6149 60 60 54.6165 60 47.9997C60 41.3829 54.6149 36 48.0031 36Z" fill="#A0E18A"></path>
    <path d="M48.003 45.3892C46.5642 45.3892 45.3881 46.5605 45.3881 48C45.3881 49.4395 46.5642 50.6108 48.003 50.6108C49.4418 50.6108 50.6119 49.4395 50.6119 48C50.6119 46.5605 49.4418 45.3892 48.003 45.3892ZM48.003 53C45.2448 53 43 50.7571 43 48C43 45.2429 45.2448 43 48.003 43C50.7552 43 53 45.2429 53 48C53 50.7571 50.7552 53 48.003 53Z" fill="#344428"></path>
    <path d="M48 26C47.445 26 47 25.4391 47 24.748V16.252C47 15.5603 47.445 15 48 15C48.55 15 49 15.5603 49 16.252V24.748C49 25.4391 48.55 26 48 26Z" fill="#344428"></path>
    <path d="M25.8308 30C25.4686 30 25.1123 29.8282 24.8845 29.5044L20.2229 22.9079C19.8432 22.3708 19.9601 21.6198 20.4858 21.2299C21.0057 20.8394 21.7359 20.9584 22.1156 21.4955L26.7771 28.0919C27.1568 28.629 27.0399 29.38 26.5142 29.7705C26.3097 29.9255 26.0703 30 25.8308 30Z" fill="#344428"></path>
    <path d="M21.1692 75C20.9297 75 20.6903 74.9255 20.4858 74.7705C19.9601 74.38 19.8432 73.629 20.2229 73.0919L24.8845 66.4951C25.2642 65.9592 25.9943 65.8391 26.5142 66.2296C27.0399 66.6195 27.1568 67.3705 26.7771 67.9076L22.1156 74.5044C21.8878 74.8282 21.5314 75 21.1692 75Z" fill="#344428"></path>
    <path d="M48 81C47.445 81 47 80.4391 47 79.748V71.252C47 70.5603 47.445 70 48 70C48.55 70 49 70.5603 49 71.252V79.748C49 80.4391 48.55 81 48 81Z" fill="#344428"></path>
    <path d="M74.8304 75C74.4683 75 74.112 74.8282 73.8842 74.5044L69.2229 67.9076C68.8432 67.3705 68.9601 66.6195 69.4858 66.2296C70.0057 65.8391 70.7358 65.9592 71.1154 66.4951L75.7767 73.0919C76.1564 73.629 76.0396 74.38 75.5197 74.7705C75.3094 74.9255 75.0699 75 74.8304 75Z" fill="#344428"></path>
    <path d="M70.1692 30C69.9297 30 69.6902 29.9255 69.4858 29.7705C68.9601 29.38 68.8432 28.629 69.2229 28.0919L73.8842 21.4951C74.2638 20.9585 74.994 20.8396 75.5197 21.2295C76.0396 21.6194 76.1564 22.3704 75.7767 22.9081L71.1154 29.5043C70.8876 29.8282 70.5313 30 70.1692 30Z" fill="#344428"></path>
  </g>
  <defs>
    <clipPath id="clip0_327_4903">
      <rect width="66" height="66" fill="white" transform="translate(15 15)"></rect>
    </clipPath>
  </defs>
</svg>
