<?xml version="1.0" encoding="UTF-8"?>
<svg xmlns="http://www.w3.org/2000/svg" width="295" height="174" viewBox="0 0 295 174" fill="none">
  <path d="M125.13 55.9098L124.572 56.0965L125.124 55.9665L125.13 55.9098ZM135.342 53.7385L135.353 53.9013C135.533 53.843 135.837 53.7534 135.81 53.7475C135.723 53.7266 135.513 53.7385 135.342 53.7385ZM151.09 49.6632C151.291 49.6378 151.566 49.6124 151.681 49.5871C152.047 49.5019 152.376 49.4243 152.715 49.3451L151.09 49.6632ZM218.076 50.6354L218.625 50.7309L218.099 50.5936L218.076 50.6354ZM250.156 64.5278L250.511 64.8488C250.703 64.9504 251.645 65.9673 251.013 65.1311L250.433 64.7488L250.156 64.5278ZM252.273 67.3009C252.402 67.4442 252.507 67.6025 252.624 67.7548C253.098 68.394 253.577 69.2213 253.868 69.741C254.121 70.2099 253.995 69.6991 253.68 69.169C253.302 68.5343 252.968 68.1326 252.578 67.6637C252.479 67.5413 252.384 67.4158 252.273 67.3009ZM255.429 72.8262C255.33 72.9053 255.273 73.0457 255.316 74.0791C255.439 74.2164 255.52 73.8551 255.429 72.8262ZM255.258 74.8705C254.932 75.3618 255.006 77.5466 254.466 78.9383C254.979 78.2977 255.414 76.6595 255.258 74.8705ZM255.705 76.4654C255.565 77.0105 255.445 77.5764 255.349 78.2081C255.507 77.6376 255.628 77.0597 255.705 76.4654ZM251.069 85.7285C250.989 85.9002 250.879 86.1048 250.837 86.2347C250.796 86.3616 250.817 86.4184 250.814 86.5035C251.043 86.1765 251.357 85.7763 251.462 85.5702C251.612 85.2745 251.855 84.8623 251.069 85.7285ZM244.518 91.6555C244.53 91.6346 244.156 91.9228 244.093 91.984C243.844 92.2438 243.627 92.4693 243.399 92.7068C243.664 92.5052 243.93 92.3021 244.2 92.096C244.314 91.9422 244.455 91.766 244.518 91.6555ZM230.348 101.488L230.19 101.529L229.998 101.719L230.348 101.488ZM230.244 102.834L229.847 103.051L229.461 103.26L229.764 103.118L230.244 102.834ZM220.137 108.965L219.978 108.988L219.747 109.168L220.137 108.965ZM205.199 115.552C205.167 115.55 204.801 115.671 204.585 115.737C204.418 115.817 204.104 115.928 204.098 115.949C204.076 116.034 204.464 115.935 205.038 115.679C205.188 115.613 205.256 115.555 205.199 115.552ZM179.135 120.327L178.978 120.285L178.7 120.356L179.135 120.327ZM175.444 120.896L175.017 120.922L175.225 120.96L175.444 120.896ZM167.677 121.211C167.758 121.175 167.24 121.147 166.984 121.116C166.397 121.125 165.994 121.167 166.04 121.231C166.07 121.274 166.37 121.305 166.552 121.341C166.951 121.298 167.587 121.252 167.677 121.211ZM158.499 121.589C156.566 121.506 155.893 121.477 155.159 121.446C154.439 121.432 153.1 121.447 152.971 121.483C152.676 121.564 153.486 121.634 154.333 121.65C155.066 121.653 155.87 121.671 158.499 121.589ZM146.664 121.276C146.506 121.28 146.251 121.277 146.204 121.289C146.032 121.329 145.928 121.374 145.799 121.416L145.324 121.446L145.903 121.431L146.664 121.276ZM139.809 120.983L139.674 120.923L139.408 120.959L139.809 120.983ZM101.424 114.07C101.451 114.043 100.994 113.842 100.749 113.718C100.394 113.628 99.7911 113.451 99.7536 113.477C99.7206 113.501 100.302 113.748 100.617 113.899C100.907 113.963 101.397 114.1 101.424 114.07ZM89.4859 110.12C89.0374 109.823 88.6175 109.637 88.2065 109.496L89.4859 110.12ZM83.1552 106.132L83.0322 105.996L82.7533 105.891L83.1552 106.132ZM78.0859 102.473L77.5939 102.154L77.9809 102.454L78.0859 102.473ZM73.6629 63.3958L73.8399 63.1584C74.4278 62.2385 74.8103 61.1842 74.7098 60.2778C74.6768 59.8298 74.4743 59.431 74.2164 59.0995C73.9689 58.7665 73.6164 58.5575 73.195 58.4231C73.102 58.3693 73.009 58.3081 72.895 58.2752C72.9775 58.3096 73.0525 58.3499 73.117 58.4021C73.8609 58.774 74.3198 59.3579 74.5148 60.1702C74.6768 60.9856 74.4173 62.0683 73.8984 63.0105L73.6629 63.3958ZM64.3926 60.6989C64.2007 60.7989 63.9772 60.905 63.8227 61.002C63.2528 61.3619 63.1283 61.4888 63.4912 61.335C63.5407 61.3141 63.8752 61.0946 64.0777 60.9677L64.3926 60.6989ZM58.4954 64.3949L58.1309 64.6771L57.8325 64.9325L58.2614 64.6084L58.4954 64.3949ZM38.7864 81.0589L38.6485 81.1216L38.4985 81.3486L38.7864 81.0589ZM36.1633 80.4884L36.4947 79.8627L36.6912 79.5521L36.4003 79.9538C36.3043 80.1494 35.4344 81.1992 36.1633 80.4884ZM55.5708 57.9198C55.5858 58.0079 55.8332 57.7078 56.1257 57.1104C56.2037 56.9387 56.2262 56.8118 56.2727 56.6639C56.2037 56.6236 56.0672 56.9327 55.7432 57.5076C55.6503 57.6719 55.5633 57.8884 55.5708 57.9198ZM58.4414 50.2202C58.4549 50.3845 58.6259 50.1351 58.6544 49.5781C58.6694 49.3705 58.6814 49.1077 58.6769 48.9733C58.6649 48.9061 58.6469 48.8568 58.6274 48.8314C58.6004 48.7971 58.5674 48.818 58.5449 48.8523C58.5329 48.8703 58.5224 48.8942 58.5164 48.9195L58.5089 48.9614C58.5029 49.0211 58.4984 49.0823 58.4924 49.148C58.4549 49.5706 58.5029 49.8738 58.4414 50.2202ZM50.2555 49.9559L49.714 49.832C48.2352 50.4651 49.0376 50.3113 48.7347 50.5383C48.7497 50.5308 48.7527 50.5293 48.7677 50.5219L48.7347 50.5383C49.2431 50.3487 49.744 50.1291 50.2555 49.9559ZM42.7114 52.835L42.2975 53.0949L41.6601 53.6623L42.4475 53.0292L42.7114 52.835ZM36.9927 56.2951C37.0107 56.2637 36.7572 56.3772 36.6267 56.4578C36.4198 56.5848 36.2098 56.7416 36.0013 56.8864C35.9968 56.9178 35.9038 57.0208 36.0028 56.9701C36.5322 56.6923 36.9207 56.428 36.9927 56.2951ZM29.3152 61.4306L28.9282 61.7472C24.2863 64.8623 27.5499 62.9672 27.6384 63.0763C28.0058 62.8015 28.3598 62.5372 28.7047 62.2803L29.0377 61.686L29.3152 61.4306ZM17.5282 67.2561L17.8836 66.9171L17.7097 67.0082L17.5282 67.2561ZM20.9927 63.9752C21.1397 63.8393 21.3437 63.6631 21.4232 63.5765C21.6767 63.2868 21.9046 63.027 22.1416 62.7582L20.9927 63.9752ZM46.5719 10.1932C46.35 10.3276 46.137 10.4829 45.924 10.6337L46.3695 10.4142C46.6154 10.2649 46.9589 10.0678 47.0879 9.97069C47.5153 9.65709 47.3068 9.7437 46.5719 10.1932ZM36.7962 16.8459L35.5079 17.6852C35.1554 17.9241 34.827 18.1974 34.491 18.4587L35.7808 17.6075L36.7962 16.8459ZM117.423 58.8203C118.3 58.1737 121.852 56.9387 121.532 56.7162C127.753 54.8241 133.579 52.8783 140.484 51.721C142.327 51.4134 145.001 50.6563 146.859 50.15C149.438 49.3914 151.387 49.2705 152.802 49.3257C154.675 49.0973 156.182 48.9554 158.319 48.5283C162.337 47.6637 167.578 47.1903 172.956 46.7049C171.963 47.144 167.74 47.3426 166.784 47.6965C169.4 47.7025 171.722 47.3112 174.094 47.15C174.447 47.2336 174.397 47.368 176.001 47.2903C176.19 47.2814 176.551 47.2276 176.547 47.2097C176.517 47.0574 175.165 47.1276 174.114 47.147C177.673 46.3406 183.567 46.5093 188.418 46.4914C188.547 46.4735 188.71 46.4376 188.797 46.4391C189.28 46.4481 189.166 46.472 188.479 46.4989C187.689 46.6736 186.303 46.8289 186.378 47.1037C189.386 46.8752 192.109 46.799 194.826 46.6855C197.608 46.9976 194.414 47.032 195.455 47.3142C201.329 47.5143 206.103 46.908 213.323 48.6746C212.717 48.7135 212.034 48.7568 211.351 48.8001C210.42 48.7179 208.837 48.4058 208.431 48.5298C209.607 48.703 210.576 48.7747 211.447 48.8299C212.579 48.9838 213.737 49.1406 214.838 49.2914C218.246 49.7961 217.814 49.0987 220.476 49.7468C223.99 50.6906 225.941 51.1282 228.209 51.612C229.487 52.4602 226.981 51.9361 227.039 52.278C226.889 52.2452 226.738 52.2153 226.585 52.1914L227.08 52.2959C230.003 53.1845 230.217 53.0142 230.747 52.9769C231.435 52.9172 233.505 53.5354 235.703 54.6524C238.163 55.9621 235.798 55.0243 234.648 54.736C234.181 54.6076 233.383 54.3313 234.058 54.7211C235.414 55.2497 236.56 55.7336 237.559 56.1562C238.546 56.5609 239.397 56.9103 240.18 57.2314C241.617 57.7809 242.796 58.2319 243.979 58.6844L243.564 58.3977L244.062 58.7232C246.477 60.1762 248.473 61.8741 249.625 63.2286C248.863 62.5969 247.346 61.2111 247.292 61.4694C247.375 61.5322 248.932 62.7193 249.661 63.2734C250.781 64.2605 251.786 65.2311 252.717 66.372C253.637 67.5129 254.501 68.8435 255.055 70.5757C255.993 72.5126 256.029 74.536 255.712 76.4325C255.721 76.7655 255.742 77.106 255.738 77.445C255.594 77.7735 255.46 78.1036 255.307 78.4201C254.953 80.0344 254.313 81.58 253.538 83.0047C252.779 84.3964 251.849 85.5941 250.811 86.5155C248.941 88.4926 248.219 88.9779 248.131 88.9167C248.035 88.845 248.528 88.1611 248.932 87.5473C248.795 87.6608 248.519 87.8938 248.537 87.8535C248.596 87.7101 248.897 87.4085 249.308 87.074C251.151 84.9729 252.863 82.6746 253.92 80.0583C252.623 82.5133 251.195 84.7474 249.013 86.9052C246.733 89.0899 246.831 89.3543 246.579 89.9053C246.055 90.976 244.293 92.7202 241.455 94.8392L241.062 95.1155L241.41 94.8855C240.588 96.0055 239.17 97.1225 237.338 98.3426C235.633 99.4237 235.732 99.04 235.79 98.5576C233.653 100.733 235.425 99.8016 235.425 100.193C232.995 102.115 231.404 103.105 230.216 103.638L230.514 103.381L230.087 103.708C222.799 108.873 215.179 113.388 205.781 116.164C201.602 117.397 196.706 118.795 192.022 119.582C186.811 120.457 186.018 120.365 185.637 119.854C183.717 120.856 178.043 121.325 172.673 121.495C165.63 121.725 158.75 122.125 151.771 122.073C145.567 122.016 139.396 121.777 133.238 121.164C134.332 121.138 135.807 121.159 135.134 120.911C132.901 120.798 133.792 121.069 133.162 121.152C132.101 121.134 131.092 121.062 129.979 120.965C126.312 120.648 124.052 120.194 125.591 119.988C126.044 119.927 126.377 119.829 125.105 119.518C122.729 119.219 123.298 119.515 122.866 119.605C122.387 119.702 121.637 119.685 120.565 119.579C119.496 119.449 118.111 119.182 116.352 118.853C113.036 118.255 112.335 117.58 110.204 117.166C108.251 116.784 107.179 116.701 104.467 115.901C102.918 115.471 101.423 114.95 99.905 114.445C98.3857 113.943 96.8544 113.425 95.3531 112.671C93.4649 111.766 91.5946 111.173 89.8893 110.364C89.1934 110.094 88.5815 109.789 88.0746 109.444C86.5628 108.72 85.1499 107.84 83.7311 106.98C82.3063 106.133 80.8845 105.287 79.5392 104.301C78.1803 103.329 76.769 102.463 75.4027 101.407C74.0319 100.368 72.6866 99.2535 71.3817 98.029C68.6341 95.4649 67.2663 93.543 66.3934 91.9974C65.525 90.4474 65.114 89.2482 64.8141 87.631C64.3281 86.4229 64.1407 85.9614 63.9172 85.4955C63.6772 85.0341 63.5002 84.5368 63.3173 83.154C63.1928 81.3814 63.3713 79.5416 63.8962 77.8168C64.4136 76.0831 65.285 74.5405 66.1834 73.1875C67.7387 70.8699 69.4365 69.1615 70.5913 67.3412C71.5677 65.8344 72.7061 64.2679 73.5219 62.5835C73.9074 61.7771 74.1414 60.9483 74.0724 60.342C74.0169 59.7491 73.6629 59.2757 73.2175 59.1189C72.7136 58.9144 72.3041 58.8203 71.8602 58.6724C71.4027 58.5425 70.8088 58.3917 69.597 58.6247C69.2115 58.9368 68.5786 59.2593 67.6112 59.8029C66.5433 60.445 65.129 61.2917 63.1598 62.473C53.9015 68.0221 45.2986 74.8362 37.9451 82.9091L35.6713 85.4298L33.0062 83.2899C35.8048 79.5327 39.1029 76.2802 42.2915 73.1577L41.984 73.54L42.338 73.1203C43.8858 71.4672 45.5041 69.7798 46.9094 68.1864C49.3841 65.3192 49.4141 65.6059 49.705 65.6254L49.4531 65.9942L49.729 65.6015C51.7583 62.906 53.867 60.0582 55.5063 56.9163C55.8692 56.1159 56.2772 55.3229 56.6311 54.5105C56.9146 53.6758 57.27 52.8559 57.5175 52.0048C57.705 51.1416 57.9975 50.2919 58.1189 49.4123L58.1609 49.0823L58.1819 48.9225L58.1864 48.9181L58.2044 48.8912C58.2119 48.8628 58.2524 48.7926 58.1999 48.7971C58.1699 48.7881 58.1384 48.7747 58.0949 48.7672C58.1384 48.7613 57.9045 48.7598 57.7155 48.7568C57.528 48.7523 57.3405 48.7478 57.1531 48.7613C56.4017 48.7792 55.6563 48.8464 54.9109 48.9285C53.42 49.1211 51.9427 49.4542 50.4654 49.9066C49.9765 50.3039 49.594 50.6085 46.9994 51.5134C43.8858 52.9933 40.9282 54.7405 37.9706 56.4907C35.0264 58.2468 32.1393 60.0523 29.2957 61.9563C28.6763 62.452 28.1168 62.8463 27.6264 63.0882C25.9511 64.2829 24.2638 65.4999 22.6695 66.7528C18.92 69.6797 16.3538 71.633 14.5436 72.2348C13.9812 73.3384 13.8642 73.8132 11.115 76.1906C8.86832 78.1289 6.15517 80.8916 4.42889 82.3207L2.96508 80.8199C3.29803 80.5437 3.586 80.3256 3.83497 80.1673C4.99582 79.4252 5.35727 79.0249 5.94519 78.1797C7.72096 75.6261 9.10528 74.884 10.6126 73.7281C10.3636 74.0298 9.38575 74.872 9.68271 74.7705L10.6306 73.7132C14.3081 69.511 19.0745 65.3849 23.2215 61.2141C23.5814 60.7855 23.8649 60.4017 24.6133 59.7461C24.6298 59.7312 24.5683 59.8596 24.4753 59.9567C24.0928 60.3465 23.6924 60.7541 23.2979 61.1558L22.1851 62.7104C23.5154 61.5262 24.4393 60.5406 25.3827 59.4549C26.8465 57.7675 28.6358 55.8769 30.8585 53.7997C31.2154 53.5011 30.731 54.1551 31.6984 53.1621L30.914 53.737C31.3819 53.1173 32.1513 52.3169 32.9537 51.6658C34.17 50.6742 34.9244 50.3412 36.3163 48.4014C37.1607 47.2007 39.7358 44.6188 41.8655 42.6252C42.7129 41.8397 43.2679 41.4126 42.6724 42.1906C42.395 42.549 41.6151 43.339 41.0632 43.9333C40.5877 44.3246 40.1618 44.7696 39.7673 45.249L39.5273 45.5596L39.8618 45.1698C40.2263 44.783 40.5967 44.4127 40.9672 44.0588C44.7347 40.7242 46.8074 37.8077 49.618 34.6419C51.4913 32.5408 53.3706 30.3575 55.1898 28.1773C56.0582 27.12 57.1876 25.7103 57.3765 25.8163C57.7965 26.0568 59.1988 24.2603 60.4991 22.201C61.309 20.9167 61.9254 19.8565 63.3773 17.9704C64.5666 16.4368 65.7005 14.8479 66.7878 13.2246C67.8782 11.588 68.979 9.99159 69.6165 8.27129C70.2809 6.57487 70.4233 4.75899 69.5025 3.42993C68.6806 2.04711 66.9963 1.47965 65.207 1.53789C60.3866 1.65437 56.3402 4.77392 51.9652 7.26926C42.296 13.1216 33.3347 19.6116 24.2218 26.6571C18.2316 31.3177 12.4049 36.3577 6.89907 41.6217C5.32727 43.1269 3.96995 44.4456 2.66512 45.5596C1.11732 46.8603 0.191933 47.5457 1.55076 45.8508C3.5125 43.4002 5.81621 40.8108 9.57922 37.294C17.6422 29.7751 26.3471 22.8163 35.4089 16.4323C39.9623 13.2246 44.6057 10.132 49.3436 7.21252C51.7178 5.7625 54.1025 4.33638 56.5141 2.967C58.9183 1.54237 61.6045 0.417896 64.4781 0.123711C66.1714 -0.0256211 68.1061 0.141633 69.5955 1.32285C71.0818 2.4518 71.8212 4.3991 71.6337 6.18661C71.4792 7.98009 70.7473 9.58242 69.9254 11.0533C69.0765 12.5273 68.1331 13.8668 67.2183 15.2571C63.4777 20.7405 59.3503 25.9567 54.9648 30.9325C46.9949 39.9506 38.464 48.4238 29.8206 56.7595L3.99095 81.8921L3.38202 81.2679C13.0843 71.7599 23.8064 63.2808 35.3219 56.0517C39.3459 53.5638 43.3893 51.043 47.8063 49.2063C50.0095 48.2879 52.3117 47.5756 54.6799 47.1783C55.8842 47.0066 57.0271 46.8737 58.3079 46.8901C58.6589 46.8827 59.0083 46.9051 59.3593 46.9245C59.6802 46.9678 60.1257 46.9065 60.3432 47.0365L60.1137 49.1271C59.6937 52.3064 58.6094 55.3558 57.0931 58.1632C55.5753 60.9751 53.6225 63.5108 51.5843 65.933C47.4778 70.7713 42.8389 75.0542 38.7415 79.6954C37.3406 81.2709 36.0193 82.9031 34.761 84.5726L34.0411 83.9947C41.2686 75.7979 49.6225 68.6568 58.6484 62.6402C60.6446 61.3126 62.6784 60.0358 64.7616 58.8367C66.7953 57.5734 69.198 56.5012 71.7987 56.4892C73.0615 56.4802 74.6033 56.8625 75.4912 58.0662C76.4211 59.1936 76.4811 60.7945 76.1331 62.0235C75.3892 64.5293 73.9299 66.5004 72.4841 68.4433C71.0128 70.3577 69.4455 72.1542 68.1691 74.097C66.8643 76.0219 65.9509 78.1424 65.6855 80.3809C65.1155 84.8982 67.1673 89.3573 69.9929 92.9069C71.8467 95.2499 74.0349 97.3391 76.3806 99.2132C77.5504 100.151 78.8328 100.978 80.0821 101.837C81.3374 102.688 82.5673 103.58 83.9036 104.307C89.0584 107.515 94.6482 109.985 100.373 111.948C105.873 113.861 111.613 115.298 117.436 116.427C123.256 117.596 129.19 118.35 135.122 118.843C135.887 118.904 136.665 118.895 137.439 118.919L136.887 118.843L137.448 118.919L137.441 118.921C140.862 119.082 144.35 119.155 147.603 119.421C149.694 119.622 151.491 119.491 153.39 119.476C161.075 119.469 168.95 119.071 176.29 118.961L175.896 119.03L176.428 118.965C180.731 118.431 186.885 118.004 190.42 116.955C189.911 117.021 189.308 117.114 188.917 117.145C188.392 117.184 188.64 117.103 189.32 117.017C189.76 116.96 190.091 116.964 190.472 116.94C191.614 116.755 192.755 116.567 193.887 116.345C193.926 116.395 193.923 116.452 193.881 116.518L193.409 116.658L193.931 116.513C194.093 116.464 194.414 116.38 194.387 116.37C194.31 116.343 194.09 116.345 193.926 116.334C194.807 116.035 196.107 115.725 197.587 115.377C200.272 114.738 198.352 115.408 198.837 115.383C199.401 115.352 201.85 114.795 204.545 113.955C207.242 113.119 210.166 111.968 211.785 111.173C213.02 110.571 214.141 110.026 215.473 109.378C214.544 109.493 215.078 109.13 217.692 108.003C220.612 106.747 221.949 106.088 223.281 105.297C224.617 104.511 225.967 103.601 228.752 101.534C230.445 100.339 233.965 97.4391 235.865 96.1683C238.193 94.5734 240.528 92.7561 242.766 90.7371C245.002 88.7196 247.286 86.623 249.229 84.3785C251.012 82.3103 252.548 80.0329 253.196 77.548C253.866 75.0751 253.559 72.4513 252.401 70.1203C251.241 67.7832 249.398 65.7403 247.319 63.9752C245.235 62.1997 242.84 60.7721 240.395 59.3877C238.409 58.2991 236.213 57.2657 234.732 56.4086C233.491 55.8336 232.207 55.2303 230.909 54.8824C228.668 54.2164 226.073 53.4458 223.728 52.7484C215.434 50.2486 206.366 49.3287 197.758 48.6507C195.99 48.5104 194.4 48.4327 192.619 48.4432C187.657 48.3954 182.699 48.6149 177.779 48.4745C175.791 48.4641 173.722 48.6328 171.848 48.8314C170.1 49.0315 168.383 49.1749 166.676 49.3048C164.973 49.4691 163.276 49.6035 161.571 49.7259H161.513C156.922 50.1366 152.038 50.8026 147.42 51.6001C143.486 52.2138 138.561 53.2636 135.119 54.4209C133.853 54.5031 134.867 54.1477 135.311 53.9162C129.553 55.2079 123.675 56.9178 117.423 58.8203Z" fill="#A0E18A"></path>
  <path d="M120.956 56.8996L120.949 56.9224L120.917 56.9119L120.925 56.8892L120.956 56.8996Z" fill="#A0E18A"></path>
  <path d="M121.346 56.9443C117.748 57.7538 114.188 58.953 109.676 60.8493C114.248 59.2828 117.829 58.3399 121.346 56.9443Z" fill="#A0E18A"></path>
  <path d="M107.471 62.3554C107.918 62.1611 108.678 61.8614 108.761 61.7925C109.002 61.593 108.304 61.7878 107.392 62.1224C106.942 62.2878 106.127 62.6326 106.068 62.6872C105.89 62.8606 106.606 62.6487 107.471 62.3554Z" fill="#A0E18A"></path>
  <path d="M215.114 48.8043C215.684 48.8225 215.269 48.6766 214.341 48.4867C213.484 48.33 212.759 48.2595 212.367 48.2828C212.553 48.3577 212.608 48.4338 212.953 48.5069C213.792 48.6815 214.622 48.7812 215.114 48.8043Z" fill="#A0E18A"></path>
  <path d="M203.427 79.0896C203.557 79.2845 203.673 79.4898 203.828 79.6667C203.694 79.4868 203.596 79.2815 203.485 79.0851L203.427 79.0896ZM198.509 80.8839L198.409 80.7535C198.278 80.9274 198.042 81.2047 198.07 81.1942C198.162 81.1522 198.353 81.0023 198.509 80.8839ZM194 75.3135C194.189 75.1531 194.445 74.9388 194.556 74.8458C194.902 74.5326 195.204 74.2597 195.537 73.9944C194.993 74.3991 194.484 74.8444 194 75.3135ZM164.578 81.2422L164.111 81.7054L164.598 81.2856L164.578 81.2422ZM155.625 84.0963C155.454 84.1833 155.271 84.2357 155.093 84.3032C154.883 84.4441 153.271 84.8638 154.51 84.6495L155.243 84.2732C155.372 84.2192 155.502 84.1668 155.625 84.0963ZM151.511 84.4861C151.284 84.4576 151.057 84.4081 150.836 84.3347C150.371 84.1848 149.925 83.8745 149.544 83.5372C149.198 83.1669 148.915 82.7697 148.767 82.4354C148.494 81.8343 148.593 82.4849 149.044 83.1309C149.603 83.8895 150.247 84.1863 150.947 84.3886C151.134 84.4336 151.323 84.4696 151.511 84.4861ZM147.967 78.3805C148.09 78.3281 148.172 78.1842 148.533 77.0269C148.481 76.838 148.244 77.2008 147.967 78.3805ZM148.873 76.165C149.422 75.7273 150.024 73.2809 150.633 71.7024C150.055 72.4579 149.455 74.1848 148.873 76.165ZM148.968 74.3197C149.246 73.774 149.479 73.1699 149.66 72.4909L148.968 74.3197ZM153.303 63.3408C153.337 63.1265 153.393 62.8657 153.4 62.7128C153.406 62.5629 153.37 62.5104 153.349 62.4219C153.209 62.8537 153.012 63.4053 152.955 63.6601C152.873 64.0244 152.737 64.561 153.303 63.3408ZM157.876 54.0589C157.873 54.0874 158.135 53.5972 158.177 53.5043C158.335 53.1085 158.472 52.7667 158.616 52.4055C158.423 52.7487 158.231 53.092 158.037 53.4398C157.975 53.6572 157.9 53.9135 157.876 54.0589ZM168.227 36.5158L168.364 36.3839L168.474 36.0856L168.227 36.5158ZM167.803 35.1142L168.106 34.6765L168.403 34.2523L168.161 34.5626L167.803 35.1142ZM177.641 25.2177L177.831 25.2552L178.249 25.1682L177.641 25.2177ZM172.955 41.3397C172.928 41.3652 172.714 41.7639 172.583 41.9948C172.498 42.1971 172.332 42.5494 172.342 42.5719C172.381 42.6543 172.613 42.2466 172.91 41.572C172.988 41.3951 173.001 41.2947 172.955 41.3397ZM156.458 67.8634L156.306 67.9788L156.152 68.2756L156.458 67.8634ZM154.076 71.566L153.764 71.9647L153.956 71.8058L154.076 71.566ZM148.273 78.6803C148.31 78.5859 147.879 79.0206 147.652 79.223C147.196 79.7432 146.908 80.1254 146.992 80.1299C147.046 80.1329 147.308 79.8901 147.477 79.7566C147.76 79.3774 148.229 78.7868 148.273 78.6803ZM139.035 85.309C138.63 85.2551 138.296 85.1501 137.973 85.0557C137.814 85.0047 137.662 84.9568 137.517 84.9103C137.414 84.9088 137.444 84.8114 137.439 84.7409L137.439 84.5235C137.429 83.9644 137.444 83.4982 137.51 83.0695C137.534 82.8611 137.555 82.6692 137.574 82.4879C137.598 82.35 137.62 82.221 137.641 82.0966C137.683 81.8583 137.722 81.6409 137.761 81.4176C137.893 80.5436 138.343 78.9712 138.365 78.8123C138.41 78.4435 138.002 79.3609 137.761 80.3817C137.658 80.821 137.553 81.2856 137.46 82.0472C137.412 82.332 137.348 83.1369 137.33 83.879C137.339 84.0663 137.348 84.2612 137.357 84.4666L137.372 84.7814C137.378 84.8323 137.369 84.8953 137.387 84.9388L137.553 84.9852C138.008 85.1097 138.483 85.2491 139.035 85.309ZM142.24 72.2241C142.363 72.0757 142.552 71.8478 142.598 71.7923C142.711 71.6125 142.765 71.4895 142.841 71.3441L143.003 71.1508L144.275 72.0547L144.146 72.359L144.282 72.0577L142.997 71.1448L142.744 71.4266C142.567 71.6889 142.396 71.9512 142.24 72.2241ZM140.143 77.7255L139.99 77.8109C139.932 77.9009 139.867 77.9863 139.802 78.0702C139.923 77.9608 140.032 77.8424 140.143 77.7255ZM126.925 83.4323C126.919 83.3933 126.438 83.7276 126.165 83.8999C125.858 84.1908 125.291 84.6839 125.279 84.7319C125.285 84.7769 125.908 84.3362 126.242 84.1143C126.489 83.8715 126.932 83.4727 126.925 83.4323ZM118.771 76.5442C118.942 75.9371 119.011 75.402 119.041 74.8908L118.771 76.5442ZM121.035 68.0403L121.141 67.8544L121.176 67.5081L121.035 68.0403ZM123.291 61.0324L123.474 60.3668L123.282 60.9109L123.291 61.0324ZM151.844 11.764C151.886 11.7894 151.931 11.8104 151.976 11.8299C152.238 11.8509 152.531 11.7879 152.84 11.689L153.312 11.5196L153.552 11.4252C153.586 11.4177 153.646 11.3712 153.659 11.3982L153.671 11.5271C153.73 12.2227 153.821 12.8867 154.004 13.4489L153.611 14.6826L153.267 15.531L153.558 14.8684C153.767 14.3198 153.974 13.7861 154.179 13.251C154.115 12.5914 153.868 12.1192 153.724 11.5346C153.692 11.4821 153.712 11.3472 153.641 11.3592L153.415 11.4207L152.961 11.5571C152.659 11.647 152.358 11.74 152.084 11.77L151.844 11.764ZM148.351 27.9519C148.241 28.1858 148.105 28.4481 148.025 28.6505C147.73 29.3985 147.693 29.6053 147.922 29.1961C147.948 29.1316 148.121 28.6939 148.228 28.4286L148.351 27.9519ZM145.074 35.5819L144.884 36.1006L144.728 36.5413L144.968 35.9447L145.074 35.5819ZM130.884 63.0081L130.749 63.125L130.629 63.4248L130.884 63.0081ZM124.843 72.4579L124.516 73.2134L124.318 73.5942L124.614 73.0935C124.714 72.8656 125.569 71.518 124.843 72.4579ZM111.511 78.0133C111.508 78.1227 111.833 77.7704 112.36 77.1154C112.517 76.9355 112.595 76.7976 112.709 76.6402C112.675 76.5967 112.33 76.8725 111.819 77.5396C111.671 77.727 111.511 77.9773 111.511 78.0133ZM119.266 70.8884C119.132 71.0593 119.456 70.9064 120.043 70.5017C120.518 70.1944 120.991 69.8736 121.185 69.7072C121.456 69.4778 120.996 69.6802 120.382 70.0565C119.904 70.3383 119.63 70.6156 119.266 70.8884ZM117.288 75.318L116.65 75.3615C115.022 76.4228 115.924 76.0436 115.597 76.3629C115.615 76.3509 115.618 76.3494 115.635 76.3374L115.597 76.3629L117.288 75.318ZM108.724 79.9125L108.247 80.2423L107.496 80.9184L108.419 80.1539L108.724 79.9125ZM102.036 84.1623C102.058 84.1278 101.763 84.2687 101.607 84.3646C101.363 84.5175 101.115 84.7004 100.867 84.8698C100.86 84.9043 100.746 85.0212 100.861 84.9583C101.482 84.621 101.943 84.3092 102.036 84.1623ZM92.8772 90.1419L92.4054 90.4971C86.8134 94.0363 90.7051 91.8628 90.795 91.9752C91.2414 91.6649 91.6714 91.3666 92.0893 91.0758L92.5357 90.4267L92.8772 90.1419ZM45.8001 129.44L45.5409 129.945L45.6892 129.776L45.8001 129.44ZM44.2242 134.477C44.2317 134.685 44.2782 134.957 44.3216 135.066C44.4564 135.433 44.6466 135.709 44.8953 135.942C44.5208 135.564 44.2976 135.051 44.2242 134.477ZM100.586 70.0999C100.325 70.2528 100.071 70.4222 99.8204 70.5976L100.337 70.3413C100.626 70.1719 101.031 69.9485 101.185 69.8421C101.702 69.5063 101.45 69.5873 100.586 70.0999ZM90.2048 79.0491C89.8138 79.4988 89.4034 79.932 89.0409 80.4072L88.5975 81.0023L88.1002 81.7279L88.7338 80.9109L89.3045 80.2183L90.2048 79.0491ZM211.533 83.6241C210.926 83.7411 209.525 83.5807 208.363 83.1609C207.19 82.7772 206.275 82.2225 206.305 82.4354C205.472 81.8598 204.7 81.1972 204.044 80.4267C203.73 80.0325 203.413 79.6367 203.16 79.1945C202.925 78.8302 202.799 78.5439 202.664 78.2097C202.405 77.5681 202.302 76.904 202.357 76.2894L202.365 76.165C202.366 76.1275 202.375 76.0511 202.353 76.1365L202.261 76.4153L202.07 76.9565C201.936 77.3117 201.79 77.649 201.638 77.9758C201.331 78.5949 201.174 78.9157 200.566 79.8091C200.026 80.5916 199.423 81.3381 198.755 82.0382C198.085 82.7367 197.353 83.3888 196.559 83.9794C195.702 84.5955 194.736 85.0332 193.671 85.2101C193.08 85.3 192.387 85.3735 191.633 85.1621C190.869 84.9717 190.129 84.3182 189.861 83.4922C189.574 82.6513 189.716 81.8043 189.906 81.1133C190.111 80.4117 190.351 79.8151 190.597 79.265C191.987 76.201 194.099 74.6615 195.621 73.9254C196.822 73.1579 197.962 72.6318 199.258 72.1446L199.803 73.1744C199.158 73.6616 198.478 74.2013 197.724 74.8369C195.883 76.3943 193.721 78.0882 191.394 79.8766C190.225 80.767 189.021 81.6874 187.794 82.6243C187.127 83.1309 186.456 83.6421 185.779 84.1578L184.229 85.327L182.69 86.4273C183.144 85.9866 183.817 85.4559 184.617 84.8084C185.291 84.2732 186.059 83.6631 186.829 83.0515C188.035 82.0996 189.246 81.1612 189.623 80.7025C188.336 81.539 187.159 82.3979 186.029 83.2614C185.304 83.816 184.585 84.3646 183.868 84.9118L182.744 85.7497C182.605 85.4604 182.564 84.9028 182.481 84.4876C182.509 83.8475 182.559 83.765 182.392 81.5495C182.376 81.3261 182.32 80.8944 182.304 80.8989C182.227 80.9364 182.203 81.2841 182.226 81.9407C182.263 82.6872 182.362 83.6331 182.475 84.4591C182.368 84.0738 182.269 83.6271 182.171 83.1339C182.087 82.6737 181.985 81.9992 181.938 81.581C181.835 80.7715 181.774 79.9006 181.769 78.9921C181.769 78.5379 181.777 78.0732 181.801 77.6025C181.826 77.2248 181.853 76.8425 181.881 76.4543C181.923 76.0406 181.989 75.6418 182.081 75.2086C182.165 75.0092 181.989 75.1576 181.899 75.1906L181.586 75.357C181.377 75.4709 181.17 75.5999 180.966 75.7348L180.659 75.9491L180.052 76.4108C179.652 76.7316 179.269 77.0614 178.906 77.4002C178.809 77.5081 178.704 77.6655 178.632 77.7315C178.234 78.1002 178.307 77.9938 178.851 77.4422C179.368 76.6971 180.547 75.6148 180.312 75.453C177.635 77.6865 175.731 80.2573 174.393 83.005C174.221 83.2674 174.086 83.4757 173.999 83.6091L172.455 82.9256C172.946 81.8808 172.793 82.6198 172.768 83.0425L173.702 83.4562C173.759 83.2149 173.759 83.0695 173.518 83.3603L172.964 83.116L172.967 83.113L172.976 83.098C173.698 81.0623 174.105 79.0761 174.333 77.0884L174.409 76.3419C174.429 76.0885 174.454 75.8217 174.454 75.6973C174.466 75.3795 174.468 75.0842 174.463 74.8099L174.432 74.0304L174.408 73.6661L174.393 73.4877C174.387 73.4667 174.396 73.4113 174.38 73.4173L174.302 73.5057C173.807 74.0709 173.38 74.5251 172.868 75.0047C172.393 75.45 171.902 75.9087 171.39 76.3868C170.828 76.8965 170.238 77.4122 169.617 77.9353C170.023 77.3507 170.479 76.6926 170.936 76.0346C171.307 75.6313 171.857 75.1067 172.315 74.6405C172.727 74.2268 173.075 73.8475 173.219 73.5732C172.312 74.4756 171.52 75.3315 170.843 76.1065C169.899 77.0659 168.933 78.0478 168.016 78.9802C165.156 81.8598 166.063 81.8568 163.645 83.9734C163.199 84.3631 162.779 84.7304 162.381 85.0782C161.832 85.5759 161.326 85.9581 160.839 86.3748L160.658 86.5262C160.6 86.5517 160.532 86.6926 160.487 86.5802L160.195 86.2219C160 85.9881 159.812 85.7587 159.626 85.5339C159.247 85.0872 159.001 84.5985 158.691 84.1563C157.813 82.5793 157.566 81.2602 157.439 79.7252C157.687 78.7643 157.843 79.1495 157.98 79.6877C158.08 80.2348 158.356 80.9454 158.48 80.8344C158.517 81.0158 158.532 81.2002 158.586 81.3771C158.532 81.1822 158.517 80.9813 158.48 80.782C158.329 78.9517 158.528 77.9803 158.567 77.3957C158.642 76.8126 158.558 76.5802 158.573 76.2624C158.577 75.8472 158.797 74.9808 159.38 73.9449C159.705 73.4488 160.065 72.8806 160.588 72.3725C160.823 72.0981 161.107 71.8508 161.42 71.62L161.934 71.2257C162.166 71.0818 162.411 70.9769 162.65 70.8524C163.735 70.2408 164.259 70.2618 164.446 70.2109C164.631 70.1944 164.472 70.2843 164.153 70.4327C163.989 70.5062 163.792 70.5931 163.573 70.6906C163.357 70.8285 163.122 70.9799 162.882 71.1343C162.647 71.2932 162.405 71.4356 162.192 71.599C162.024 71.7609 161.865 71.9168 161.725 72.0547C161.268 72.4489 160.668 73.2929 161.362 72.6573C162.701 71.2512 164.8 70.4162 166.163 70.3173C166.097 71.3306 166.009 72.2495 165.866 73.131C165.774 73.5792 165.685 74.0094 165.6 74.4246C165.511 74.7529 165.426 75.0707 165.342 75.378C164.972 76.5862 164.608 77.607 164.129 78.5664L164.511 78.0628L164.073 78.6639C162.06 81.5435 159.311 83.3663 157.267 84.0364C158.357 83.5327 160.48 82.2091 160.203 82.0786C160.203 82.0786 159.696 82.4669 159.075 82.9136C158.442 83.3438 157.674 83.8085 157.201 84.0588C156.39 84.4606 155.571 84.7754 154.739 85.0317C153.914 85.2955 153.026 85.4889 152.031 85.4679C151.042 85.4619 149.904 85.0857 149.05 84.2792C148.159 83.4727 147.738 82.263 147.633 81.1268C147.161 78.445 148.144 76.2774 148.953 74.3542L149.155 73.2734L149.73 72.263C150.287 70.5272 150.846 68.7853 151.4 67.0569C151.962 65.3795 152.578 63.798 153.349 62.407C155.917 56.7002 155.321 58.8438 154.897 60.5047C154.999 60.3233 155.192 59.9471 155.189 59.998C155.178 60.1779 154.973 60.6351 154.666 61.1718C153.471 64.2268 152.329 67.3013 151.242 70.3923C152.579 67.4272 153.49 64.4831 155.008 61.2167C156.58 57.8469 156.366 57.5996 156.437 56.904C156.597 55.5279 157.753 52.8507 159.791 49.2185L160.077 48.7329L159.819 49.1481C160.245 47.5816 161.22 45.7003 162.586 43.5013C163.84 41.4911 163.895 41.9348 164.009 42.4535C165.305 39.1061 163.912 41.0039 163.769 40.6082C165.423 37.3658 166.584 35.504 167.52 34.3048L167.33 34.726L167.618 34.1639C168.843 31.8823 170.16 29.4389 172.097 27.4033C173.067 26.3869 174.192 25.4201 175.629 24.7965C175.8 24.7275 175.981 24.6406 176.267 24.5416L177.101 24.3528C177.669 24.1804 178.19 24.2343 178.736 24.1924C179.26 24.2148 179.729 24.3033 180.256 24.3692L181.052 24.4877L181.252 24.5176C181.321 24.5266 181.404 24.5266 181.357 24.6046L181.276 24.9494L180.951 26.342C180.78 26.8501 180.5 27.4377 180.279 27.9864L179.341 30.1959C178.787 31.4176 178.228 32.6468 177.665 33.8895C176.49 36.3524 175.224 38.8288 173.833 41.3232C171.349 45.7753 168.555 51.0249 165.618 55.7573C162.331 61.0129 161.674 61.6754 161.013 61.6769C160.297 64.0709 156.416 69.5303 152.386 74.4441C151.066 76.0571 149.756 77.6625 148.418 79.235L146.409 81.6004C145.702 82.4084 144.934 83.1864 144.053 83.8895C143.171 84.582 142.159 85.2266 140.921 85.5579C140.661 85.6448 140.181 85.7048 139.748 85.7303C139.319 85.7467 138.882 85.7198 138.483 85.6373C138.086 85.5489 137.685 85.4469 137.279 85.33C137.191 85.2925 137.05 85.294 137.003 85.2251L136.94 84.3212C136.888 83.9344 136.936 83.4832 136.964 83.044L137.009 82.3829L137.063 81.9662C137.128 81.4221 137.231 80.8839 137.345 80.3488C137.576 79.277 137.908 78.2291 138.323 77.2143C139.309 74.8024 140.777 72.5883 142.633 70.773L144.754 72.2795C142.543 76.958 138.707 80.7325 134.117 82.9691C135.285 82.2795 136.746 81.2077 135.923 81.497C133.598 82.9241 134.644 82.5343 134.027 83.0035C133.41 83.3273 133.049 83.5432 131.849 84.0169C130.839 84.3736 129.829 84.6989 128.706 85.0182C128.351 85.1202 128.003 85.2206 127.695 85.3075C127.767 84.531 127.878 83.6796 127.976 82.9825C128.068 82.2705 128.165 81.6004 128.384 80.9454C128.475 80.6261 128.562 80.3203 128.645 80.0295C128.745 79.7162 128.857 79.5168 128.911 79.3819C129.054 79.0761 129.169 78.8063 129.304 78.6024C129.816 77.7689 130.005 77.682 129.771 78.5739C129.63 79.1316 129.585 79.5198 130.435 78.1617C131.999 75.6778 131.522 76.2234 131.702 75.7048C131.946 75.1516 132.548 74.4006 133.607 73.5057C134.675 72.6363 136.277 71.6619 138.56 71.0923C139.015 70.9889 139.445 70.9319 139.82 70.8704L140.847 73.3123C138.456 75.1516 137.484 75.5639 135.741 77.0194C133.956 78.5095 133.179 79.5033 130.59 81.5405C129.118 82.6992 127.705 83.879 126.264 85.0617C125.509 85.6493 124.622 86.4393 123.141 86.7091C122.393 86.8215 121.613 86.7286 120.884 86.3838C120.151 86.0286 119.597 85.4275 119.254 84.8308C118.424 83.3048 118.35 81.9362 118.305 80.6336C118.295 80.0025 118.352 79.2904 118.428 78.7478C118.5 78.1872 118.571 77.631 118.641 77.0824C118.719 76.2085 118.854 75.4155 119.056 74.7259C120.582 66.9865 122.868 59.7282 125.641 51.9812C127.133 47.9234 128.213 45.5205 129.148 43.7471C130.042 41.9528 130.868 40.8195 131.951 39.3235C133.236 36.6852 132.617 37.1934 134.06 34.5461C134.978 32.8657 136.078 31.2483 137.104 29.6128C138.205 28.0239 139.292 26.4484 140.381 24.9644C141.337 23.7172 142.251 22.5254 143.121 21.3922C144.026 20.2814 144.866 19.2066 145.612 18.1243C145.788 17.8215 146.382 17.1335 146.914 16.5114C147.464 15.8803 148.019 15.2402 148.584 14.5911C149.159 13.9465 149.744 13.2915 150.334 12.6289L151.224 11.6425L152.236 10.5737C152.723 10.8376 153.24 11.0594 153.752 11.2753C154.164 11.635 154.558 12.0128 155.114 12.1897L154.99 12.5914C154.271 14.8894 153.755 16.1606 153.153 17.4842C152.856 18.1288 152.536 18.8214 152.155 19.6443C152.019 19.9351 151.872 20.2484 151.709 20.5977C151.58 20.8915 151.436 21.2153 151.275 21.5796C151.195 22.8267 150.493 25.2717 148.262 30.4778C143.135 42.4565 137.018 54.0364 130.241 65.3241C126.777 71.0983 122.822 76.6672 118.782 81.9377L119.092 81.446L118.735 81.9917C117.949 83.08 117.146 84.1893 116.354 85.2865C115.533 86.4423 114.519 87.5651 113.391 88.478C112.373 89.3054 111.395 89.7716 110.586 89.998C110.402 90.0384 110.153 90.1164 109.894 90.1449C109.649 90.1554 109.424 90.1644 109.217 90.1734C108.805 90.2183 108.518 90.0924 108.276 90.0654C107.366 89.8001 107.493 89.6307 107.39 89.5063C107.674 89.5722 107.941 89.6682 108.23 89.7042C107.921 89.6607 107.635 89.5573 107.331 89.4838C106.981 89.3069 106.627 89.145 106.265 88.9292L105.992 88.7763C105.937 88.7103 105.727 88.7043 105.806 88.5859L105.941 87.9983C106.16 87.2023 106.223 86.4123 106.585 85.5444C106.996 84.4711 107.439 83.5012 107.951 82.4894C108.982 80.4972 110.267 78.5814 111.773 76.8081C114.779 73.2584 118.665 70.2843 123.009 68.3176C123.548 68.0912 124.085 67.8664 124.597 67.652L125.98 70.4012C123.108 72.0307 120.341 73.6017 117.525 75.2011C117.014 75.7483 116.62 76.2519 113.648 77.7914C106.551 82.2405 99.6481 86.3509 92.7918 90.701C92.0384 91.2602 91.3613 91.7099 90.7786 91.9887C88.7443 93.3363 86.6936 94.7019 84.7237 96.081C80.1054 99.3144 76.9117 101.418 74.8085 102.076C73.9951 103.26 73.7869 103.777 70.3131 106.324C66.9471 108.76 62.6659 112.456 60.714 113.555C59.2984 114.341 58.8326 114.775 58.0521 115.691C55.7093 118.457 54.1678 119.335 52.4541 120.749C52.7343 120.388 53.8652 119.392 53.5372 119.53C53.1597 119.933 52.7957 120.35 52.4347 120.765C50.3405 123.246 48.1654 125.901 46.5206 128.919C45.7387 130.421 44.8923 132.035 44.6661 133.533C44.3935 135.06 45.1395 136.243 46.5042 136.414C47.0255 136.433 47.4778 136.375 48.507 136.222C48.5294 136.219 48.4021 136.297 48.2628 136.325C47.7055 136.448 47.1153 136.498 46.5895 136.439C46.0008 136.459 45.4136 136.363 44.9373 135.985C45.4795 136.634 46.3079 136.857 47.0899 136.835C47.8763 136.829 48.6373 136.613 49.3773 136.327C51.6407 135.297 54.3446 133.783 57.3301 131.941C57.7974 131.669 57.0889 132.3 58.4131 131.373L57.4065 131.881C58.0956 131.296 59.1306 130.535 60.1493 129.903C61.6727 128.914 62.588 128.595 64.4051 126.478C65.527 125.197 68.6114 122.276 71.0157 119.836C71.9744 118.881 72.593 118.339 71.91 119.268C71.5954 119.697 70.7026 120.648 70.0584 121.355C69.5102 121.822 69.0218 122.356 68.5425 122.903L68.2504 123.26L68.6533 122.81C69.0937 122.363 69.5192 121.932 69.9461 121.498C74.2708 117.462 76.5267 113.865 79.5347 109.893C81.5285 107.241 83.4864 104.464 85.3199 101.656C86.2172 100.313 87.3212 98.4884 87.5324 98.5694C87.9983 98.7553 89.3809 96.4423 90.6347 93.852C91.4107 92.2375 91.9874 90.9094 93.3925 88.4675C96.8214 82.4399 99.6721 75.9656 102.151 69.4419L103.941 69.974C103.407 72.3964 102.136 74.6045 100.393 76.2954C99.2227 77.4167 97.9015 78.3161 96.4035 78.9412C95.6245 79.2425 94.7812 79.4583 93.824 79.3564C92.8578 79.2755 91.8211 78.5964 91.4422 77.5801C91.0377 76.5218 91.3568 75.5159 91.7193 74.7589C92.1088 73.9824 92.6196 73.3303 93.2158 72.7547C94.4306 71.6634 95.6335 70.8375 96.9712 70.004C98.4932 69.0731 100.096 68.2816 101.745 67.6355L102.539 69.4014C97.6648 72.0457 93.379 75.6703 89.9202 79.971C89.4903 80.5107 89.0649 81.0563 88.6649 81.6184C88.3174 82.0651 87.9653 82.6468 87.6208 83.0635L86.5752 84.3512C86.5527 84.3706 86.5318 84.4216 86.5078 84.4171L86.4284 84.3452L86.2696 84.1997L85.9506 83.9119C85.7378 83.7186 85.5206 83.5267 85.3274 83.3273L84.7267 82.7322C84.532 82.5223 84.3672 82.26 84.1859 82.0247C84.0182 81.7893 83.8009 81.5345 83.6976 81.2946L83.4055 80.734C83.2482 80.3503 83.0759 79.968 82.9666 79.5693C82.0049 76.4378 82.7029 72.6902 85.3289 70.3053L87.2883 71.7893C87.1654 72.0292 87.0411 72.2765 86.9153 72.5224C84.7492 76.6672 81.8596 80.3952 78.2719 83.5357C77.7416 83.9689 77.1724 84.3377 76.4833 84.612C76.1492 84.7379 75.7568 84.8683 75.237 84.9028C74.7531 84.9328 74.2663 84.8563 73.8304 84.657C72.9466 84.2597 72.3608 83.3663 72.2365 82.3844C72.1197 81.5525 72.226 81.0008 72.2665 80.3413C72.581 77.7884 73.757 75.429 75.4392 73.5822C77.3551 71.464 79.683 70.2169 81.915 69.8256C83.2332 69.5798 84.2848 69.6802 84.6263 69.7657C84.9754 69.8646 84.6188 69.9246 83.2796 70.1644C81.3517 70.5751 79.4912 71.479 77.7596 72.9616C76.0848 74.4606 74.4086 76.5697 73.7555 79.5453C73.6746 79.995 73.5802 80.4432 73.5697 80.9019C73.5323 81.3546 73.5053 81.8208 73.5877 82.251C73.6551 82.6767 73.8723 83.0905 74.2393 83.3228C74.5988 83.5672 75.0662 83.5807 75.4751 83.4877C76.3365 83.2853 77.108 82.7547 77.7626 82.1311C78.4427 81.5135 79.0958 80.8659 79.7234 80.1959C82.24 77.5141 84.3462 74.4486 85.9371 71.1328L86.3251 71.4281C84.2908 73.2884 83.6272 76.3898 84.4061 79.0101C84.5739 79.6547 84.8975 80.3383 85.209 80.8374C85.5161 81.3396 85.9176 81.7728 86.3595 82.1521C86.4179 82.2495 86.4524 82.1266 86.4958 82.0786L86.6187 81.8958L86.8658 81.533L87.3721 80.818C87.7541 80.2783 88.2245 79.6877 88.6604 79.1361C92.284 74.6555 96.7989 70.8824 101.879 68.1467L102.246 68.9622C100.545 69.6217 98.9111 70.4432 97.3727 71.4146C96.6027 71.8973 95.8597 72.4219 95.1407 72.9751C94.3947 73.5297 93.794 74.0903 93.3101 74.8084C92.8413 75.4949 92.5177 76.3299 92.7109 76.9595C92.8982 77.5981 93.5378 78.0133 94.3138 77.9758C95.1017 77.9623 95.8987 77.667 96.6746 77.2488C97.4476 76.841 98.1711 76.3389 98.8287 75.7617C100.637 74.1698 101.955 72.0067 102.475 69.6532L103.555 69.974C98.9036 82.257 92.7319 93.9914 85.1716 104.765C81.9659 109.319 78.5415 113.719 74.8789 117.914C71.2179 122.107 67.3022 126.115 62.9325 129.611C60.75 131.356 58.4566 132.973 56.0358 134.384C54.8225 135.086 53.5896 135.751 52.3208 136.349C51.073 136.947 49.7398 137.562 48.2838 137.784C47.5587 137.895 46.7978 137.922 46.0353 137.757C45.2728 137.61 44.5238 137.169 44.019 136.543C43.4962 135.918 43.2535 135.101 43.2281 134.338C43.1951 133.567 43.3359 132.831 43.5366 132.133C44.4459 129.397 45.8555 126.955 47.4958 124.663C50.8228 120.107 55.0921 116.418 59.3793 112.903C63.6695 109.367 68.0871 105.99 72.5616 102.698C81.5135 96.1125 90.786 89.9815 100.168 84.0453C108.386 78.8557 116.697 73.816 125.009 68.7973L125.307 69.3894C123.987 69.9605 122.675 70.5571 121.442 71.3022C118.247 73.1505 115.39 75.5909 113.019 78.4345C111.825 79.8481 110.768 81.3771 109.852 82.984C108.943 84.567 108.109 86.3988 107.664 87.682C108.191 88.1617 109.054 88.2996 109.765 88.1302C110.579 87.9443 111.392 87.5006 112.104 86.9654C113.566 85.8847 114.643 84.4111 115.736 82.9031C117.952 79.9335 120.097 76.9295 122.139 73.8835C130.736 61.1793 138.286 47.784 144.336 33.8266C145.662 30.7926 146.923 27.7241 148.136 24.6346C148.724 23.0831 149.357 21.5481 149.91 19.9816L150.526 18.2847L151.048 16.8037L151.872 14.3842C151.347 14.9044 150.705 15.6164 150.135 16.2161C149.42 16.9836 148.623 17.9459 147.879 18.7944L147.593 19.1257L147.208 19.6068L146.439 20.5692L144.901 22.494C143.9 23.7951 142.949 25.1322 141.972 26.4484L139.211 30.5152C135.646 36.0062 132.559 41.7804 129.988 47.727C127.135 54.3572 124.769 61.1823 123.026 68.1587C122.128 71.6409 121.457 75.1741 120.897 78.7193C120.726 79.6337 120.657 80.3922 120.696 81.2272C120.74 82.0337 120.903 82.8341 121.224 83.4263C121.863 84.597 123.014 84.4831 124.341 83.3678C129.199 79.3789 134.213 75.315 139.238 71.2902L140.14 73.4353C137.694 73.7441 135.365 75.0197 133.631 76.8485C132.763 77.7614 132.038 78.8138 131.509 79.95L131.212 80.6621L131.118 80.9574C131.076 81.1447 131.008 81.3891 131.034 81.542C131.357 81.4535 131.6 81.3861 131.978 81.2242C132.9 80.8314 133.801 80.3802 134.653 79.8496C135.396 79.4119 136.06 78.8362 136.713 78.2741L136.203 78.6279L136.72 78.2681L136.714 78.2726C139.093 76.3164 141 73.786 142.324 71.1388L144.51 72.6918C143.996 73.1894 143.485 73.6856 143.028 74.2223C141.5 75.9701 140.744 77.8784 140.149 79.8676C139.996 80.3742 139.872 80.8899 139.776 81.4116C139.725 81.6709 139.676 81.9317 139.644 82.1941L139.59 82.5883L139.574 82.7457L139.562 82.9571C139.562 83.026 139.535 83.113 139.634 83.1085C139.77 83.1429 139.914 83.1504 140.049 83.1235C140.703 83.014 141.673 82.5268 142.437 81.9107C143.238 81.2856 143.987 80.5241 144.697 79.7087C147.663 76.2909 150.512 72.8447 153.264 69.5093L153.017 69.9126L153.372 69.3894C156.254 65.1726 160.55 59.2935 162.469 55.375C162.132 55.8817 161.746 56.4933 161.473 56.8711C161.103 57.3732 161.233 57.0929 161.683 56.4154C161.975 55.9776 162.226 55.6793 162.498 55.3166C163.244 54.1653 163.967 52.9976 164.676 51.8209C164.74 51.8224 164.78 51.8643 164.795 51.9483L164.535 52.4729L164.83 51.9018C164.918 51.7204 165.104 51.3741 165.077 51.3891C164.998 51.4386 164.83 51.638 164.698 51.7789C165.162 50.779 165.934 49.3864 166.843 47.817C168.494 44.9703 167.462 47.1634 167.824 46.7152C168.224 46.183 169.779 43.6302 171.358 40.6651C172.953 37.709 174.565 34.3437 175.404 32.3725C176.038 30.869 176.613 29.5049 177.299 27.877C176.967 28.3102 176.836 28.3312 176.979 27.868C176.999 27.808 177.02 27.7435 177.046 27.6701L177.088 27.5547L177.086 27.5502C177.086 27.5502 177.085 27.5397 177.092 27.5322C177.1 27.5232 177.166 27.4872 177.241 27.3823C177.25 27.2983 177.158 27.2414 177.038 27.2279C177.082 27.1409 176.312 27.4198 175.949 27.6056C175.084 28.0478 174.445 28.586 173.848 29.1796C172.634 30.4208 171.632 31.8599 169.761 35.558C168.609 37.736 166.193 42.5944 164.801 44.9238C161.317 50.6621 158.309 57.3492 155.476 64.0484C154.17 67.1364 152.918 70.2483 151.724 73.3828C151.161 74.9658 150.466 76.5307 150.136 77.9953C149.793 79.4673 149.711 81.0743 150.243 82.0681C151.147 84.1698 155.063 83.002 157.568 81.5195C160.224 79.9425 162.379 77.4571 163.543 74.5865L163.864 73.7411L163.973 73.3693C164.025 73.1594 164.067 72.9466 164.103 72.7142C163.849 72.6528 163.467 72.7652 163.13 72.8761C163.043 72.8926 162.719 73.1789 162.43 73.3903C162.15 73.6241 161.913 73.912 161.653 74.1728C161.425 74.4636 161.218 74.7739 161.009 75.0737C160.842 75.405 160.673 75.7288 160.531 76.0586C160.087 77.1978 159.803 78.5394 159.818 79.8796C159.827 80.5481 159.91 81.2122 160.072 81.8433C160.125 82.1686 160.285 82.4489 160.376 82.7547C160.436 82.9376 160.469 83.0065 160.496 83.05L160.586 83.2314C160.656 83.3858 160.752 83.4817 160.841 83.6166C160.941 83.6421 161.061 83.4697 161.176 83.3993L161.837 82.8281L162.839 81.9347C164.172 80.7385 165.492 79.5153 166.798 78.2726C168.104 77.0299 169.396 75.7677 170.674 74.4936L173.314 71.8133L176.358 68.6639C176.436 68.7508 176.414 69.1181 176.414 69.4254L176.405 70.3488L176.372 72.1521C176.345 73.3498 176.253 74.6135 176.089 75.8832C175.833 77.6865 175.494 79.193 175.013 80.794C174.724 81.7503 174.415 82.6483 174.081 83.5327L172.456 82.8132C172.974 81.8238 173.545 80.8689 174.21 79.8931C175.326 78.2426 176.662 76.7376 178.162 75.4125C178.544 75.0887 178.923 74.7634 179.324 74.4636C179.476 74.3377 179.883 74.0424 180.174 73.855C180.49 73.6481 180.806 73.4128 181.122 73.2299C181.756 72.8551 182.388 72.4924 183.015 72.1596L183.979 71.6454C184.307 71.4715 184.66 71.2662 184.804 71.3067C184.476 72.9961 184.079 74.8189 183.89 76.3704L183.782 77.2848L183.71 78.0193L183.604 79.4898C183.573 80.0609 183.573 80.6411 183.597 81.2197L183.637 81.8868L183.689 82.3425C183.736 82.6243 183.772 82.9571 183.86 83.1354C184.089 82.9436 184.317 82.7547 184.537 82.5703L184.819 82.335L185.238 82.0007L186.464 81.0653C187.285 80.4522 188.101 79.8466 188.914 79.241C190.55 78.0433 192.194 76.877 193.85 75.7168L193.91 75.6778C195.571 74.4951 197.269 73.2869 198.984 72.0652L199.716 73.4473C196.55 74.5206 193.777 76.856 192.099 79.7087C191.561 80.6651 190.928 81.8253 190.983 82.7847C191.016 83.2404 191.247 83.6646 191.609 83.879C191.976 84.1053 192.517 84.1758 193.071 84.0963C194.199 83.9344 195.264 83.3948 196.093 82.6123C196.986 81.8373 197.729 80.9828 198.323 80.1569C199.367 79.187 198.72 80.2079 198.439 80.7115C198.952 80.1449 199.423 79.5363 199.859 78.8992C200.314 78.2306 200.879 77.2893 201.316 76.2444C201.652 75.9536 201.926 75.6433 202.125 75.3105C202.218 75.1427 202.329 74.9778 202.401 74.8024L202.522 74.543C202.551 74.4621 202.543 74.5325 202.542 74.582L202.536 74.7229C202.492 75.411 202.617 76.117 203.282 76.8635C203.304 77.2982 203.433 77.5546 203.538 77.8484C203.646 78.1347 203.743 78.457 203.896 78.6729C204.103 79.0506 204.357 79.4014 204.622 79.7492C205.174 80.4252 205.818 81.0368 206.531 81.5765C207.981 82.6228 209.694 83.3738 211.533 83.6241Z" fill="#A0E18A"></path>
  <path d="M206.304 82.4354L206.333 82.4258L206.346 82.4645L206.317 82.4741L206.304 82.4354Z" fill="#A0E18A"></path>
  <path d="M206.345 82.4624C208.089 83.8535 210.405 84.6885 212.858 84.7064C215.321 84.7754 217.911 84.1788 220.63 83.1639C215.191 84.8683 210.301 84.9013 206.345 82.4624Z" fill="#A0E18A"></path>
  <path d="M223.297 81.5219C222.769 81.7528 221.875 82.1007 221.772 82.1729C221.478 82.3873 222.303 82.1623 223.375 81.7535C223.905 81.5533 224.861 81.1328 224.931 81.0716C225.144 80.8782 224.311 81.1596 223.297 81.5219Z" fill="#A0E18A"></path>
  <path d="M168.193 79.8635C167.772 80.3841 168.189 80.0798 169.003 79.324C169.751 78.6232 170.334 78.0003 170.597 77.6237C170.402 77.7525 170.298 77.7572 169.988 78.0336C169.237 78.7046 168.555 79.4152 168.193 79.8635Z" fill="#A0E18A"></path>
  <path d="M186.125 168.463L186.104 168.602L186.175 168.485L186.125 168.463ZM187.394 166.285L187.544 166.345C187.544 166.297 187.55 166.22 187.536 166.222C187.493 166.226 187.442 166.261 187.394 166.285ZM187.772 162.341C187.793 162.297 187.828 162.242 187.831 162.212C187.833 162.129 187.834 162.038 187.836 161.948L187.772 162.341ZM194.039 147.637L194.063 147.505L193.999 147.619L194.039 147.637ZM196.204 139.502L196.205 139.383C196.169 139.319 196.259 139.007 196.088 139.205L196.184 139.407L196.204 139.502ZM196.652 138.79L196.662 138.65C196.694 138.461 196.752 138.244 196.747 138.094C196.743 137.961 196.641 138.052 196.625 138.199C196.605 138.374 196.635 138.514 196.644 138.668L196.652 138.79ZM196.494 137.172C196.595 137.193 196.697 137.201 196.836 137.001C196.744 136.932 196.632 136.979 196.494 137.172ZM196.975 136.859C197.372 136.881 197.273 136.307 197.389 135.989C197.076 136.069 197.001 136.436 196.975 136.859ZM196.586 136.346C196.692 136.255 196.744 136.136 196.727 135.98L196.586 136.346ZM197.381 134.12C197.345 134.062 197.315 133.996 197.275 133.951C197.236 133.906 197.188 133.882 197.143 133.849C197.147 133.948 197.14 134.069 197.167 134.134C197.204 134.225 197.245 134.357 197.381 134.12ZM198.475 132.312C198.481 132.32 198.551 132.227 198.553 132.206C198.565 132.118 198.56 132.04 198.563 131.957L198.407 132.153C198.428 132.209 198.446 132.272 198.475 132.312ZM200.984 128.875L201.048 128.86L201.024 128.784L200.984 128.875ZM200.063 128.323L200.14 128.24L200.218 128.157L200.142 128.213L200.063 128.323ZM201.063 125.714L201.128 125.699L201.104 125.618L201.063 125.714ZM202.272 122.047C202.284 122.044 202.318 121.96 202.344 121.912C202.341 121.866 202.351 121.786 202.335 121.776C202.271 121.741 202.224 121.824 202.223 121.981C202.221 122.022 202.248 122.052 202.272 122.047ZM204.461 116.174L204.525 116.159L204.501 116.079L204.461 116.174ZM204.474 115.24L204.512 115.146L204.446 115.174L204.474 115.24ZM205.178 113.54C205.202 113.57 205.289 113.473 205.349 113.431C205.407 113.305 205.415 113.204 205.349 113.191C205.305 113.182 205.241 113.234 205.187 113.258C205.181 113.357 205.151 113.507 205.178 113.54ZM205.819 111.461C206.077 111.071 206.186 110.944 206.26 110.783C206.33 110.628 206.424 110.325 206.402 110.284C206.351 110.19 206.218 110.346 206.134 110.527C206.062 110.686 206.016 110.87 205.819 111.461ZM207.027 108.925C207.033 108.887 207.049 108.829 207.042 108.814C207.013 108.761 206.977 108.721 206.944 108.677L206.946 108.557L206.925 108.695L207.027 108.925ZM207.6 107.408L207.662 107.396L207.639 107.321L207.6 107.408ZM210.838 98.7567C210.869 98.7732 210.945 98.6758 211.001 98.6278C210.998 98.5349 211.019 98.385 210.986 98.3655C210.956 98.349 210.867 98.4749 210.805 98.5379C210.814 98.6158 210.805 98.7403 210.838 98.7567ZM211.032 95.6822C211.139 95.5893 211.158 95.4814 211.14 95.3674L211.032 95.6822ZM212.109 94.2207L212.178 94.2027L212.154 94.1203L212.109 94.2207ZM212.918 92.957L212.956 92.8236L212.887 92.921L212.918 92.957ZM216.431 82.5898L216.503 82.5373C216.91 82.0906 217.017 81.509 217.135 80.9334L217.216 80.8509L217.137 80.9049C216.713 81.3351 216.802 82.0067 216.503 82.4938L216.431 82.5898ZM218.233 78.7433C218.262 78.6998 218.306 78.6548 218.318 78.6129C218.363 78.457 218.336 78.403 218.251 78.469C218.239 78.478 218.22 78.5724 218.203 78.6279L218.233 78.7433ZM218.834 77.1933L218.841 77.0779L218.832 76.9744L218.814 77.1049L218.834 77.1933ZM220.895 71.3561L220.959 71.3441L220.935 71.2662L220.895 71.3561ZM221.731 69.271L221.645 69.0641L221.627 68.9667L221.623 69.0881C221.656 69.154 221.559 69.4598 221.731 69.271ZM224.218 62.5748C224.273 62.6153 224.337 62.5418 224.384 62.3829C224.397 62.338 224.376 62.2975 224.37 62.2555C224.309 62.2285 224.247 62.2945 224.201 62.4519C224.188 62.4969 224.198 62.5628 224.218 62.5748ZM224.919 60.6441C224.969 60.707 225.04 60.6606 225.073 60.5257C225.1 60.4177 225.094 60.2963 225.07 60.2348C225.035 60.1494 224.95 60.2184 224.916 60.3548C224.89 60.4597 224.916 60.5481 224.919 60.6441ZM226.044 57.6385L226.363 57.6415C226.454 57.2578 226.246 57.3837 226.183 57.2638L226.044 57.6385ZM227.285 56.0301L227.302 55.9117L227.21 55.6598L227.273 55.9416L227.285 56.0301ZM227.822 54.5281C227.834 54.5416 227.894 54.4951 227.909 54.4606C227.933 54.4081 227.934 54.3422 227.946 54.2822C227.925 54.2687 227.901 54.2238 227.883 54.2462C227.787 54.3602 227.763 54.4711 227.822 54.5281ZM228.557 52.4519L228.563 52.326C229.179 51.1373 228.539 51.8463 228.401 51.7938C228.367 51.8988 228.338 52.0007 228.316 52.1026L228.541 52.35L228.557 52.4519ZM233.406 40.9364L233.454 40.83L233.385 40.851L233.406 40.9364ZM233.896 39.9126C233.92 39.8706 233.959 39.8166 233.962 39.7882C233.968 39.7027 233.975 39.6098 233.981 39.5183L233.896 39.9126ZM243.45 16.2175C243.474 16.1606 243.48 16.0946 243.494 16.0332L243.401 16.1216C243.374 16.1846 243.326 16.267 243.324 16.3075C243.318 16.4409 243.371 16.4064 243.45 16.2175ZM244.353 13.5448C244.413 13.4383 244.485 13.3349 244.532 13.2225C244.571 13.1295 244.583 13.0246 244.607 12.9242L244.422 13.2465L244.353 13.5448ZM185.992 170.48C185.739 170.133 185.928 169.256 185.616 169.208C186.106 167.748 186.187 166.244 187.015 164.783C187.237 164.393 187.253 163.703 187.219 163.212C187.169 162.527 187.476 162.149 187.836 161.927C188.055 161.531 188.237 161.215 188.251 160.675C188.275 159.659 188.69 158.49 188.991 157.246C189.283 157.602 188.816 158.497 189.009 158.811C189.389 158.292 189.428 157.718 189.553 157.166C189.676 157.121 189.795 157.178 189.924 156.821C189.939 156.779 189.935 156.686 189.917 156.68C189.77 156.634 189.665 156.937 189.553 157.16C189.276 156.162 190.06 154.969 190.371 153.862C190.362 153.828 190.341 153.78 190.35 153.76C190.396 153.655 190.41 153.69 190.381 153.852C190.486 154.086 190.525 154.447 190.792 154.522C190.836 153.783 190.877 153.116 190.917 152.45C191.319 151.894 191.236 152.663 191.54 152.509C191.912 151.158 191.443 149.825 192.624 148.397C192.701 148.574 192.788 148.773 192.875 148.971C192.847 149.196 192.613 149.517 192.751 149.662C192.86 149.403 192.896 149.172 192.896 148.953C192.961 148.691 193.025 148.434 193.091 148.165C193.257 147.358 192.622 147.274 192.913 146.696C193.299 145.925 193.352 145.445 193.311 144.858C193.817 144.67 193.877 145.327 194.18 145.396L194.19 145.516L194.187 145.388C194.382 144.69 194.163 144.576 193.991 144.393C193.768 144.156 193.822 143.642 194.156 143.15C194.533 142.593 194.49 143.209 194.538 143.521C194.559 143.646 194.541 143.853 194.697 143.715C195.103 142.399 194.894 141.716 194.67 141.049L194.598 141.148L194.67 141.026C194.926 140.424 195.212 139.896 195.566 139.59C195.539 139.822 195.244 140.221 195.458 140.269C195.485 140.275 195.585 139.798 195.578 139.58C195.748 138.911 195.7 138.272 196.109 137.569C196.052 137.051 196.363 136.725 196.58 136.352L196.476 136.084L196.728 135.931L196.777 134.787C196.792 134.417 196.878 134.087 197.138 133.844C197.651 132.699 197.778 133.213 197.926 133.629C197.962 133.597 198.015 133.525 198.028 133.542C198.075 133.594 198.036 133.687 197.932 133.78L197.579 135.75C197.955 135.192 197.911 134.52 198.25 133.874C198.599 133.207 198.296 133.068 198.144 132.872C197.838 132.479 197.985 131.914 198.484 131.209L198.563 131.118L198.484 131.193C198.307 130.788 198.478 130.4 198.839 129.981C199.171 129.599 199.376 129.752 199.676 129.947C199.522 129.13 199.041 129.452 198.768 129.293C198.945 128.583 199.182 128.204 199.492 127.995L199.502 128.097L199.517 127.968C200.039 125.915 200.382 123.873 201.52 121.86C202.029 120.963 202.29 119.793 202.654 118.742C203.061 117.572 203.204 117.43 203.775 117.56C203.237 116.853 203.769 115.628 204.291 114.468C204.976 112.945 205.391 111.362 205.945 109.812C206.435 108.431 206.974 107.081 207.521 105.73C207.537 106.009 207.505 106.369 207.744 106.283C207.87 105.768 207.605 105.898 207.533 105.715C207.573 105.465 207.585 105.215 207.66 104.963C207.904 104.131 208.168 103.653 208.451 104.134C208.535 104.276 208.646 104.398 208.865 104.152C209.007 103.6 208.761 103.662 208.653 103.518C208.412 103.197 208.541 102.728 208.823 101.936C209.086 101.191 209.495 101.136 209.62 100.638C209.734 100.181 209.548 99.848 209.798 99.2349C210.086 98.5364 210.159 97.7869 210.577 97.1078C210.838 96.6836 210.882 96.2129 210.957 95.7707C210.954 95.5848 211.011 95.4349 211.142 95.333C211.768 93.8969 212.467 92.5493 212.836 90.9393C213.224 89.2514 213.456 88.9441 214.232 88.4599C214.364 87.8858 213.97 87.8933 214.147 87.3207C214.374 86.5937 214.747 85.8921 215.05 85.2251C215.309 84.6539 215.625 84.1712 215.634 83.6166C215.648 82.6872 216.406 81.8313 216.507 80.8269C216.563 80.2873 217.009 80.4687 217.379 79.917C217.093 79.5498 217.141 79.0266 217.575 77.9833C218.572 75.5788 219.653 73.1984 220.443 70.6845C220.849 69.3984 221.487 68.1872 222.089 66.9969L222.09 67.1214L222.099 66.9864C222.248 66.4678 222.426 65.9386 222.541 65.435C222.745 64.5355 222.961 64.6675 223.188 64.7124L223.196 64.8309L223.194 64.7064C223.317 63.0065 224.06 61.3291 224.868 59.6877C225.214 58.9817 225.624 58.3461 226.005 57.6805C225.87 57.4706 225.707 57.2758 226.174 56.7391C226.712 55.1382 227.485 53.7036 228.193 52.2256C228.207 52.0277 228.27 51.8763 228.401 51.7894C228.578 51.3306 228.774 50.8734 228.929 50.4132C229.293 49.3354 229.735 48.6804 230.536 48.547C230.208 48.1227 229.94 47.9129 230.31 47.1259C230.668 46.3659 230.903 45.2311 231.43 44.9628C231.811 44.7679 231.827 44.6375 231.736 44.3422C231.462 43.4503 232.003 43.2809 232.379 42.9481C232.383 43.05 232.194 43.3049 232.344 43.2914L232.383 42.9451C232.47 41.554 233.379 40.3068 233.821 38.9787C233.82 38.8348 233.79 38.7014 233.927 38.502C233.927 38.502 233.965 38.5455 233.956 38.577C233.917 38.7089 233.879 38.8333 233.841 38.9607L233.984 39.5019C234.218 39.1406 234.282 38.8213 234.299 38.46C234.327 37.9009 234.462 37.2878 234.793 36.6432C234.867 36.5533 234.916 36.7796 235.007 36.4618L234.795 36.6222C234.756 36.4079 234.822 36.15 235.001 35.9597C235.273 35.6689 235.599 35.6044 235.436 34.9328C235.334 34.5206 235.662 33.7186 236.05 33.1265C236.204 32.8927 236.368 32.7817 236.383 33.0381C236.39 33.1565 236.287 33.3993 236.233 33.5852C236.116 33.6961 236.07 33.834 236.067 33.9914L236.076 34.0949L236.089 33.969C236.123 33.8475 236.173 33.7336 236.237 33.6272C237.018 32.6573 236.856 31.6829 237.165 30.7176L237.815 28.7838C237.92 28.4735 238.039 28.0553 238.248 28.1318C238.703 28.2967 238.836 27.766 238.835 27.1394C238.833 26.7497 238.788 26.4169 239.063 25.9132C239.949 24.2703 240.453 22.4235 241.28 20.7596C241.819 19.6728 242.198 18.586 242.617 17.4512C243.547 14.9239 244.271 12.371 245.408 9.86617C246.155 8.21574 246.815 6.50086 247.474 4.80547C247.661 4.32128 247.818 3.89706 248.1 3.57177C248.432 3.18952 248.684 3.00214 248.72 3.57477C248.774 4.40373 248.68 5.25367 248.28 6.41092C247.424 8.88881 246.433 11.3322 245.48 13.7816C244.529 16.246 243.684 18.7569 242.686 21.1718C241.501 24.0769 240.316 26.982 239.128 29.8961C235.659 38.1123 232.307 46.3824 228.951 54.6495L226.433 60.8929C225.304 63.6691 224.243 66.5023 223.257 69.2859C222.222 72.1971 221.034 75.0422 220.029 77.9353C218.558 82.2225 216.773 86.4408 215.448 90.7325C214.581 93.5267 213.338 96.1679 212.527 98.9636C211.757 101.653 210.709 104.315 209.696 106.968C209.632 107.139 209.633 107.337 209.603 107.523C209.372 108.309 209.188 109.128 208.716 109.781C208.414 110.2 208.409 110.653 208.255 111.079C207.629 112.797 207.102 114.598 206.161 116.109L206.152 116.006L206.137 116.135C206.035 117.198 205.32 118.5 205.436 119.476C205.491 119.365 205.541 119.229 205.601 119.149C205.68 119.045 205.702 119.119 205.628 119.266C205.58 119.362 205.502 119.418 205.437 119.491L205.138 120.269C205.082 120.256 205.031 120.233 204.983 120.202L204.977 120.074L204.974 120.211C204.977 120.256 204.97 120.338 204.986 120.338C205.031 120.337 205.087 120.301 205.138 120.28C205.184 120.533 205.114 120.851 204.98 121.193C204.738 121.813 204.721 121.286 204.598 121.364C204.315 121.543 203.458 123.518 203.295 124.38C203.232 124.706 203.187 125.008 203.06 125.342C203.385 125.234 203.499 125.441 203.066 126.012C202.101 127.285 202.187 127.201 201.905 128.871C201.823 129.368 201.64 130.469 201.285 130.923C200.415 132.046 200.042 133.48 199.535 134.858L196.724 142.477C196.535 142.99 196.352 143.549 196.025 143.865C195.865 144.158 195.705 144.46 195.691 144.796C195.667 145.366 195.489 146.009 195.23 146.543C194.322 148.419 193.781 150.521 192.884 152.389C192.701 152.771 192.564 153.123 192.466 153.539C192.197 154.694 191.928 155.855 191.263 156.859C190.995 157.265 190.916 157.76 190.833 158.206C190.679 159.037 190.365 159.78 189.999 160.513L189.989 160.525C189.491 161.512 189.106 162.618 188.687 163.651C188.33 164.529 187.915 165.651 187.945 166.571C187.652 166.784 187.625 166.507 187.545 166.355C187.008 167.653 186.639 169.062 185.992 170.48Z" fill="#A0E18A"></path>
  <path d="M185.611 169.218C185.044 169.944 184.798 170.797 184.62 171.96C185.104 170.918 185.587 170.157 185.611 169.218Z" fill="#A0E18A"></path>
  <path d="M185.02 172.748C185.035 172.63 185.086 172.441 185.06 172.408C184.989 172.308 184.871 172.451 184.788 172.665C184.748 172.772 184.712 172.982 184.737 173.008C184.812 173.093 184.92 172.943 185.02 172.748Z" fill="#A0E18A"></path>
  <path d="M192.407 147.818C192.371 147.665 192.272 147.738 192.182 147.94C192.097 148.128 192.078 148.303 192.125 148.416C192.184 148.387 192.253 148.395 192.297 148.325C192.41 148.149 192.439 147.951 192.407 147.818Z" fill="#A0E18A"></path>
  <path d="M289.724 98.2366L289.877 98.2217L289.733 98.1842L289.724 98.2366ZM287.088 97.5621L287.107 97.4017C287.058 97.4137 286.974 97.4272 286.98 97.4392C286.998 97.4796 287.049 97.5216 287.088 97.5621ZM282.869 98.1992C282.819 98.1902 282.75 98.1692 282.718 98.1737C282.619 98.1902 282.532 98.2157 282.443 98.2381L282.869 98.1992ZM265.7 96.1335L265.556 96.147L265.695 96.1785L265.7 96.1335ZM256.596 96.3494L256.474 96.3823C256.418 96.4363 256.068 96.4423 256.327 96.5457L256.505 96.3958L256.596 96.3494ZM255.717 96.129L255.569 96.1605C255.365 96.186 255.121 96.1935 254.968 96.2414C254.832 96.2834 254.959 96.3554 255.115 96.3284C255.302 96.2954 255.437 96.225 255.594 96.171L255.717 96.129ZM254.096 96.7526C254.087 96.6507 254.062 96.5502 253.81 96.4768C253.77 96.5832 253.852 96.6777 254.096 96.7526ZM253.618 96.3853C253.514 95.9986 252.952 96.2609 252.586 96.2429C252.771 96.5188 253.173 96.4828 253.618 96.3853ZM253.214 96.907C253.087 96.8321 252.946 96.8171 252.791 96.88L253.214 96.907ZM250.661 96.7976C250.613 96.8485 250.553 96.8965 250.521 96.949C250.488 96.9984 250.479 97.0524 250.459 97.1049C250.559 97.0704 250.687 97.0419 250.745 96.9984C250.828 96.9355 250.949 96.859 250.661 96.7976ZM248.441 96.2804C248.447 96.2714 248.329 96.2324 248.305 96.2354C248.212 96.2504 248.131 96.2774 248.047 96.2999L248.299 96.3898C248.35 96.3539 248.408 96.3194 248.441 96.2804ZM244.07 94.9043L244.033 94.8488L243.962 94.8953L244.07 94.9043ZM243.808 95.9521L243.696 95.9027L243.585 95.8532L243.667 95.9117L243.808 95.9521ZM240.788 95.7947L240.751 95.7378L240.676 95.7857L240.788 95.7947ZM236.613 95.7633C236.606 95.7513 236.507 95.7438 236.45 95.7348C236.402 95.7513 236.317 95.7663 236.314 95.7857C236.299 95.8577 236.401 95.8772 236.561 95.8307C236.603 95.8187 236.625 95.7842 236.613 95.7633ZM229.836 95.5174L229.799 95.4604L229.726 95.5084L229.836 95.5174ZM228.876 95.7992L228.767 95.7947L228.818 95.8487L228.876 95.7992ZM226.891 95.6718C226.912 95.6403 226.782 95.5894 226.718 95.5459C226.568 95.5294 226.464 95.5549 226.473 95.6208C226.479 95.6658 226.554 95.7093 226.599 95.7543C226.703 95.7273 226.866 95.7078 226.891 95.6718ZM224.54 95.7243C224.048 95.6044 223.88 95.5414 223.69 95.5234C223.506 95.5054 223.164 95.5114 223.13 95.5459C223.052 95.6253 223.257 95.7018 223.473 95.7228C223.66 95.7423 223.865 95.7258 224.54 95.7243ZM221.52 95.387C221.479 95.393 221.413 95.396 221.401 95.408C221.356 95.4515 221.329 95.4964 221.296 95.5429L221.174 95.5804L221.322 95.5549L221.52 95.387ZM219.765 95.3435L219.731 95.2881L219.664 95.336L219.765 95.3435ZM209.777 95.1442C209.781 95.1097 209.656 95.0707 209.587 95.0332C209.492 95.0662 209.332 95.0962 209.326 95.1337C209.319 95.1681 209.479 95.2101 209.567 95.2476C209.642 95.2131 209.772 95.1816 209.777 95.1442ZM206.58 96.0076C206.445 95.9386 206.33 95.9581 206.221 96.0136L206.58 96.0076ZM204.697 95.4964L204.654 95.438L204.579 95.4889L204.697 95.4964ZM203.114 95.1696L202.964 95.1801L203.088 95.2116L203.114 95.1696ZM191.283 95.4919L191.202 95.444C190.594 95.2206 189.966 95.3285 189.338 95.423L189.223 95.375L189.31 95.432C189.906 95.6748 190.55 95.3525 191.158 95.459L191.283 95.4919ZM186.703 95.1741C186.647 95.1621 186.584 95.1367 186.536 95.1397C186.362 95.1532 186.317 95.1981 186.419 95.2536C186.432 95.2626 186.536 95.2461 186.597 95.2431L186.703 95.1741ZM184.904 95.1636L184.785 95.1981L184.684 95.2416L184.823 95.2116L184.904 95.1636ZM178.214 95.387L178.177 95.333L178.108 95.3825L178.214 95.387ZM175.786 95.3765L175.612 95.5339L175.521 95.5849L175.645 95.5459C175.698 95.4889 176.044 95.4679 175.786 95.3765ZM168.067 95.5789C168.084 95.5129 167.983 95.4799 167.806 95.4964C167.755 95.5024 167.724 95.5369 167.684 95.5594C167.682 95.6253 167.773 95.6568 167.949 95.6418C168 95.6373 168.061 95.6014 168.067 95.5789ZM165.847 95.6628C165.889 95.5924 165.814 95.5444 165.664 95.5669C165.546 95.5834 165.428 95.6343 165.375 95.6808C165.303 95.7438 165.408 95.7962 165.558 95.7767C165.675 95.7603 165.753 95.7033 165.847 95.6628ZM162.379 95.7648L162.252 95.4694C161.829 95.5309 162.042 95.6763 161.948 95.7797L162.379 95.7648ZM160.26 95.2281L160.134 95.2581L159.921 95.4395L160.176 95.2731L160.26 95.2281ZM158.537 95.321C158.544 95.3046 158.472 95.2671 158.434 95.2671C158.371 95.2671 158.303 95.2896 158.239 95.3031C158.234 95.327 158.2 95.3675 158.228 95.375C158.383 95.417 158.504 95.396 158.537 95.321ZM156.158 95.459L156.029 95.5024C154.587 95.402 155.562 95.7138 155.568 95.8607C155.686 95.8517 155.8 95.8382 155.911 95.8172L156.062 95.5129L156.158 95.459ZM142.645 95.5789L142.519 95.5774L142.568 95.6328L142.645 95.5789ZM141.418 95.5444C141.365 95.5399 141.297 95.5264 141.267 95.5339C141.178 95.5639 141.082 95.5954 140.989 95.6268L141.418 95.5444ZM113.809 96.7751C113.743 96.7781 113.675 96.8006 113.609 96.8141L113.738 96.8605C113.813 96.8575 113.915 96.865 113.955 96.85C114.09 96.7991 114.03 96.7661 113.809 96.7751ZM110.778 97.1079C110.646 97.1004 110.513 97.0824 110.381 97.0884C110.272 97.0944 110.164 97.1319 110.055 97.1543L110.455 97.1768L110.778 97.1079ZM291.869 97.8529C291.577 98.1872 290.608 98.2261 290.647 98.5394C288.983 98.4375 287.395 98.7418 285.632 98.3101C285.161 98.1962 284.439 98.3536 283.938 98.5125C283.239 98.7358 282.757 98.5319 282.42 98.2441C281.944 98.1392 281.562 98.0463 280.996 98.1782C279.93 98.427 278.593 98.3386 277.21 98.3805C277.495 98.0043 278.563 98.2157 278.832 97.9443C278.178 97.718 277.57 97.8319 276.958 97.8604C276.876 97.754 276.9 97.622 276.49 97.5936C276.442 97.5906 276.346 97.6205 276.346 97.6385C276.343 97.7929 276.687 97.8124 276.954 97.8619C276 98.3955 274.526 97.9578 273.284 97.9533C273.249 97.9698 273.206 98.0043 273.184 98.0013C273.061 97.9848 273.092 97.9623 273.269 97.9458C273.48 97.7824 273.843 97.6475 273.841 97.3702C273.061 97.5246 272.355 97.664 271.653 97.8019C270.953 97.5651 271.777 97.4392 271.522 97.1858C270.009 97.1798 268.77 98.0208 266.928 97.2818C267.087 97.1573 267.265 97.0179 267.445 96.8785C267.686 96.844 268.09 96.979 268.2 96.8051C267.897 96.7721 267.647 96.8036 267.419 96.8635C267.127 96.874 266.841 96.886 266.541 96.8965C265.655 96.964 265.764 97.5966 265.073 97.4796C264.158 97.3252 263.643 97.4077 263.048 97.6115C262.696 97.1768 263.357 96.9355 263.334 96.6252L263.454 96.5817L263.324 96.6207C262.539 96.6297 262.489 96.871 262.355 97.0884C262.179 97.3687 261.631 97.4601 261.017 97.2773C260.323 97.0704 260.973 96.94 261.281 96.8066C261.405 96.7511 261.624 96.7106 261.43 96.5997C259.941 96.5772 259.302 96.9685 258.683 97.3717L258.809 97.4137L258.661 97.3792C257.957 97.2968 257.32 97.1858 256.891 96.934C257.14 96.892 257.645 97.0569 257.628 96.8381C257.625 96.8111 257.1 96.8545 256.878 96.9265C256.13 96.958 255.488 97.1903 254.631 97.0059C254.114 97.2113 253.678 97.0089 253.223 96.91L252.979 97.0884L252.739 96.892L251.545 97.1798C251.159 97.2743 250.792 97.2893 250.456 97.1109C249.109 96.955 249.596 96.6837 249.977 96.4183C249.932 96.3943 249.842 96.3644 249.852 96.3479C249.893 96.2879 250.001 96.2969 250.131 96.3704L252.278 96.1305C251.58 95.9341 250.901 96.1725 250.125 96.0376C249.324 95.8997 249.279 96.2279 249.126 96.4318C248.822 96.8396 248.191 96.865 247.301 96.5937L247.182 96.5442L247.283 96.5982C246.927 96.886 246.47 96.8366 245.92 96.6132C245.417 96.4108 245.507 96.171 245.609 95.8247C244.818 96.222 245.311 96.5817 245.236 96.8905C244.446 96.937 243.977 96.8291 243.661 96.5967L243.762 96.5562L243.624 96.5802C241.338 96.7106 239.127 97.0074 236.676 96.5352C235.583 96.3269 234.293 96.4288 233.091 96.4138C231.754 96.3988 231.559 96.3089 231.496 95.7273C230.955 96.4618 229.517 96.3464 228.148 96.219C226.351 96.0526 224.587 96.1635 222.809 96.1305C221.227 96.096 219.656 96.0466 218.083 95.9731C218.362 95.8652 218.739 95.7767 218.567 95.5789C217.996 95.6313 218.224 95.8367 218.064 95.9656C217.793 96.0106 217.535 96.081 217.25 96.0945C216.314 96.138 215.731 96.0481 216.121 95.6223C216.235 95.4964 216.32 95.3495 215.989 95.2251C215.376 95.2731 215.528 95.4844 215.42 95.6343C215.179 95.9686 214.656 96.0016 213.748 95.9986C212.894 95.9941 212.689 95.6268 212.136 95.6733C211.63 95.7168 211.359 96.0031 210.643 95.9686C209.829 95.9296 209.04 96.102 208.197 95.9461C207.669 95.8472 207.173 95.9671 206.697 96.0481C206.508 96.114 206.338 96.111 206.185 96.0256C204.496 95.9281 202.867 95.7333 201.098 95.9386C199.24 96.1545 198.843 96.0406 198.06 95.4769C197.428 95.5504 197.585 95.9192 196.939 95.9476C196.117 95.9896 195.264 95.8952 194.475 95.8472C193.799 95.8082 193.19 95.6838 192.626 95.8727C191.681 96.1905 190.526 95.7857 189.472 96.0466C188.907 96.186 188.917 95.7063 188.218 95.5549C187.959 95.9536 187.413 96.0945 186.191 96.0601C183.381 95.9746 180.559 95.8757 177.719 96.0556C176.267 96.1515 174.794 96.0031 173.359 95.8817L173.484 95.8337L173.344 95.8742C172.765 95.9266 172.161 95.9551 171.611 96.0421C170.627 96.1965 170.674 95.9461 170.624 95.7183L170.739 95.6673L170.617 95.7153C168.864 96.2489 166.882 96.198 164.911 96.075C164.064 96.0226 163.26 95.8847 162.438 95.7857C162.283 95.9911 162.157 96.216 161.426 95.9881C159.606 96.087 157.855 95.9611 156.085 95.8832C155.881 95.9476 155.704 95.9491 155.563 95.8622C155.032 95.8802 154.494 95.8787 153.971 95.9162C152.744 96.0061 151.907 95.8562 151.435 95.1711C151.152 95.6388 151.056 95.9671 150.115 95.9356C149.209 95.9057 147.981 96.1305 147.489 95.7573C147.134 95.4874 146.996 95.5264 146.743 95.7288C145.975 96.3404 145.575 95.9147 145.083 95.7048C145.182 95.6583 145.516 95.7288 145.438 95.5969L145.077 95.7018C143.66 96.1845 142.032 95.8577 140.525 95.9911C140.383 96.0511 140.264 96.132 140.007 96.0855C140.007 96.0855 140.035 96.0346 140.07 96.0301C140.215 96.0136 140.356 95.9971 140.5 95.9806L140.973 95.6298C140.513 95.5624 140.169 95.6328 139.805 95.7633C139.238 95.9641 138.573 96.0885 137.79 96.0466C137.668 96.0151 137.872 95.8787 137.517 95.9251L137.769 96.0541C137.574 96.177 137.291 96.2205 137.023 96.1335C136.617 96.0031 136.41 95.7288 135.818 96.1515C135.456 96.4078 134.518 96.4483 133.763 96.3404C133.465 96.2984 133.282 96.1965 133.53 96.0765C133.643 96.0196 133.929 96.0121 134.136 95.9836C134.296 96.0436 134.454 96.0286 134.611 95.9656L134.71 95.9147L134.58 95.9551C134.443 95.9731 134.308 95.9761 134.177 95.9626C132.873 95.6553 131.984 96.21 130.895 96.3314L128.7 96.5472C128.348 96.5817 127.884 96.6462 127.864 96.4243C127.824 95.9416 127.241 96.0421 126.625 96.3044C126.242 96.4678 125.933 96.6477 125.316 96.6087C123.3 96.4753 121.26 96.8246 119.252 96.7901C117.942 96.7676 116.703 96.892 115.399 96.9984C112.498 97.2308 109.67 97.688 106.699 97.7824C104.741 97.8379 102.762 98.0028 100.802 98.1587C100.243 98.2037 99.7545 98.2486 99.3066 98.1392C98.7778 98.0103 98.4752 97.8664 99.016 97.5801C99.7964 97.1678 100.668 96.8785 101.985 96.7256C104.803 96.4018 107.65 96.216 110.488 95.9911C113.34 95.7827 116.19 95.4769 119.017 95.3405C122.41 95.1666 125.807 94.9838 129.211 94.8878C138.865 94.588 148.526 94.3737 158.185 94.2327L165.476 94.1683C168.722 94.1653 171.993 94.0409 175.19 93.9509C178.533 93.8475 181.871 93.894 185.186 93.78C190.09 93.6496 195.047 93.7651 199.905 93.5552C203.07 93.4128 206.221 93.6706 209.368 93.4802C212.392 93.3183 215.492 93.4293 218.567 93.5087C218.766 93.5147 218.969 93.4473 219.169 93.4128C220.055 93.3738 220.959 93.2704 221.795 93.5102C222.331 93.6631 222.799 93.5237 223.289 93.5357C225.271 93.5837 227.302 93.5117 229.182 93.9225L229.077 93.9644L229.216 93.9374C230.341 93.6961 231.926 93.9599 232.891 93.5402C232.757 93.5237 232.599 93.5192 232.498 93.4877C232.362 93.4458 232.431 93.4023 232.609 93.4248C232.724 93.4413 232.807 93.4967 232.904 93.5357L233.808 93.5732C233.814 93.6301 233.808 93.6856 233.793 93.7411L233.662 93.786L233.805 93.7471C233.848 93.7306 233.936 93.7126 233.93 93.6976C233.914 93.6556 233.858 93.6137 233.818 93.5702C234.062 93.4488 234.414 93.4203 234.811 93.4428C235.533 93.4832 234.995 93.6601 235.118 93.7531C235.4 93.9689 237.72 94.1833 238.664 94.0754C239.021 94.0349 239.347 93.9854 239.735 94.0064C239.513 93.7276 239.689 93.5567 240.423 93.795C242.058 94.3257 241.943 94.2717 243.759 94.0289C244.301 93.9569 245.496 93.7935 246.082 93.9959C247.529 94.5011 249.132 94.4381 250.721 94.5206L259.51 94.9988C260.102 95.0362 260.737 95.0542 261.17 95.2806C261.522 95.3525 261.887 95.423 262.239 95.342C262.837 95.2041 263.559 95.1966 264.194 95.2956C266.425 95.6463 268.775 95.5684 270.989 95.9206C271.443 95.9956 271.852 96.0346 272.312 96.0181C273.595 95.9701 274.882 95.9177 276.127 96.2909C276.63 96.4423 277.17 96.3868 277.658 96.3464C278.57 96.2729 279.439 96.3779 280.311 96.5352L280.326 96.5427C281.5 96.7601 282.768 96.8291 283.966 96.979C284.986 97.1019 286.274 97.2188 287.229 96.955C287.534 97.1858 287.251 97.2818 287.118 97.3972C288.626 97.5876 290.204 97.5861 291.869 97.8529Z" fill="#A0E18A"></path>
  <path d="M290.647 98.542L290.647 98.5405H290.658L290.658 98.542H290.647Z" fill="#A0E18A"></path>
  <path d="M290.658 98.5407C291.576 98.9054 292.536 98.9265 293.802 98.8034C292.575 98.5992 291.643 98.326 290.658 98.5407Z" fill="#A0E18A"></path>
  <path d="M294.514 98.2185C294.387 98.2347 294.176 98.2332 294.148 98.2654C294.064 98.3621 294.244 98.4378 294.493 98.4637C294.616 98.4757 294.844 98.4562 294.866 98.4265C294.932 98.3312 294.746 98.2656 294.514 98.2185Z" fill="#A0E18A"></path>
  <path d="M266.393 97.6506C266.244 97.7288 266.353 97.8024 266.591 97.8327C266.811 97.8619 266.997 97.8316 267.099 97.7541C267.053 97.7065 267.039 97.6362 266.95 97.6125C266.736 97.5538 266.52 97.5828 266.393 97.6506Z" fill="#A0E18A"></path>
</svg>
