<?xml version="1.0" encoding="UTF-8"?>
<svg xmlns="http://www.w3.org/2000/svg" xmlns:xlink="http://www.w3.org/1999/xlink" xml:space="preserve" width="1200px" height="309px" version="1.1" shape-rendering="geometricPrecision" text-rendering="geometricPrecision" image-rendering="optimizeQuality" fill-rule="evenodd" clip-rule="evenodd" viewBox="0 0 1423 365">
 <g id="Warstwa_x0020_1">
  <metadata id="CorelCorpID_0Corel-Layer"></metadata>
  <g id="_1103300432">
   <path fill="#DC2626" d="M18 91l66 -41 0 271 -84 -84 18 -146zm81 -50l65 -41 19 18 0 334 -84 -21 0 -290zm98 -8l4 4 80 -14 0 306 -44 36 -40 -10 0 -322zm99 -12l15 -3 73 128 -37 128 -51 43 0 -296z"></path>
  </g>
  <path fill="none" stroke="#CBD2D8" stroke-width="7.30638" d="M479 0l0 365"></path>
  <g id="_1103298608">
   <path fill="#16202A" fill-rule="nonzero" d="M696 97l35 0 0 67c-9,7 -19,12 -31,15 -12,4 -24,6 -35,6 -17,0 -33,-4 -46,-11 -14,-7 -24,-18 -32,-30 -8,-13 -12,-28 -12,-44 0,-16 4,-31 12,-44 8,-12 18,-22 32,-30 14,-7 29,-11 46,-11 15,0 28,3 39,8 12,4 22,11 30,21l-24 22c-12,-12 -26,-18 -43,-18 -10,0 -20,2 -28,6 -8,5 -14,11 -19,19 -4,8 -6,17 -6,27 0,10 2,19 6,27 5,8 11,14 19,19 8,4 17,6 28,6 11,0 20,-2 29,-7l0 -48zm75 -79l37 0 0 164 -37 0 0 -164zm189 79l35 0 0 67c-9,7 -19,12 -31,15 -12,4 -24,6 -35,6 -17,0 -33,-4 -46,-11 -14,-7 -24,-18 -32,-30 -8,-13 -12,-28 -12,-44 0,-16 4,-31 12,-44 8,-12 18,-22 32,-30 14,-7 29,-11 46,-11 15,0 28,3 39,8 12,4 22,11 30,21l-25 22c-11,-12 -25,-18 -42,-18 -10,0 -20,2 -28,6 -8,5 -14,11 -19,19 -4,8 -6,17 -6,27 0,10 2,19 6,27 5,8 11,14 19,19 8,4 17,6 28,6 11,0 20,-2 29,-7l0 -48z"></path>
   <path fill="#16202A" fill-rule="nonzero" d="M613 258l7 0 0 15c-1,1 -4,2 -6,3 -3,1 -5,1 -8,1 -4,0 -7,0 -10,-2 -3,-2 -5,-4 -7,-7 -2,-2 -3,-6 -3,-9 0,-4 1,-7 3,-10 2,-2 4,-5 7,-6 3,-2 6,-3 10,-3 3,0 6,1 9,2 2,1 4,3 6,5l-5 5c-3,-3 -6,-5 -9,-5 -3,0 -5,1 -7,2 -1,1 -3,2 -4,4 -1,2 -1,4 -1,6 0,2 0,4 1,6 1,2 3,3 4,4 2,1 4,1 6,1 3,0 5,0 7,-1l0 -11zm61 12l0 7 -27 0 0 -36 27 0 0 7 -19 0 0 7 16 0 0 7 -16 0 0 8 19 0zm42 7c-4,0 -7,0 -10,-2 -3,-2 -5,-4 -7,-7 -2,-2 -3,-6 -3,-9 0,-4 1,-7 3,-10 2,-2 4,-5 7,-6 3,-2 6,-3 10,-3 4,0 7,1 10,3 3,1 5,4 7,6 2,3 3,6 3,10 0,3 -1,7 -3,9 -2,3 -4,5 -7,7 -3,2 -6,2 -10,2zm0 -7c2,0 4,0 6,-1 1,-1 3,-2 4,-4 1,-2 1,-4 1,-6 0,-2 0,-4 -1,-6 -1,-2 -3,-3 -4,-4 -2,-1 -4,-2 -6,-2 -2,0 -4,1 -6,2 -1,1 -3,2 -4,4 -1,2 -1,4 -1,6 0,2 0,4 1,6 1,2 3,3 4,4 2,1 4,1 6,1zm44 -29l17 0c3,0 7,1 10,2 3,2 5,4 7,7 1,2 2,5 2,9 0,4 -1,7 -2,9 -2,3 -4,5 -7,7 -3,1 -7,2 -10,2l-17 0 0 -36zm16 29c4,0 7,-1 9,-3 2,-2 3,-5 3,-8 0,-3 -1,-6 -3,-8 -2,-2 -5,-3 -9,-3l-7 0 0 22 7 0zm73 0l0 7 -28 0 0 -36 27 0 0 7 -19 0 0 7 17 0 0 7 -17 0 0 8 20 0zm54 0l0 7 -32 0 0 -6 20 -23 -19 0 0 -7 30 0 0 5 -20 24 21 0zm40 -6l0 13 -8 0 0 -13 -14 -23 9 0 9 16 10 -16 8 0 -14 23zm42 13c-3,0 -5,0 -7,-1 -2,-1 -3,-2 -5,-4l5 -5c2,2 4,4 7,4 3,0 5,-2 5,-6l0 -17 -13 0 0 -7 21 0 0 23c0,5 -1,8 -3,10 -3,2 -6,3 -10,3zm72 -36l0 36 -7 0 -17 -22 0 22 -9 0 0 -36 7 0 18 22 0 -22 8 0zm50 28l-16 0 -4 8 -8 0 16 -36 8 0 16 36 -9 0 -3 -8zm-2 -6l-6 -14 -6 14 12 0z"></path>
   <path fill="#16202A" fill-rule="nonzero" d="M589 314l8 0 0 36 -8 0 0 -36zm64 29l0 7 -31 0 0 -5 19 -24 -19 0 0 -7 30 0 0 5 -19 24 20 0zm49 -12c2,1 4,2 5,4 1,1 2,3 2,5 0,3 -1,6 -4,7 -2,2 -6,3 -10,3l-19 0 0 -36 18 0c4,0 7,1 10,3 2,1 3,4 3,6 0,2 0,4 -1,5 -1,1 -2,2 -4,3zm-18 -11l0 9 9 0c2,0 3,-1 4,-1 1,-1 2,-2 2,-3 0,-2 -1,-3 -2,-4 -1,0 -2,-1 -4,-1l-9 0zm10 24c2,0 4,-1 5,-1 1,-1 2,-2 2,-4 0,-3 -3,-4 -7,-4l-10 0 0 9 10 0zm63 -2l-16 0 -4 8 -8 0 16 -36 8 0 16 36 -9 0 -3 -8zm-2 -6l-6 -14 -6 14 12 0z"></path>
   <path fill="#16202A" fill-rule="nonzero" d="M843 331l8 0 0 14c-2,2 -4,3 -7,4 -3,1 -5,1 -8,1 -3,0 -7,-1 -10,-2 -3,-2 -5,-4 -7,-7 -1,-3 -2,-6 -2,-10 0,-3 1,-6 2,-9 2,-3 4,-5 7,-7 3,-1 7,-2 10,-2 4,0 6,0 9,1 3,2 5,3 6,5l-5 5c-2,-3 -6,-4 -9,-4 -2,0 -4,0 -6,1 -2,1 -3,3 -4,4 -1,2 -2,4 -2,6 0,3 1,5 2,6 1,2 2,3 4,4 2,1 4,2 6,2 2,0 4,-1 6,-2l0 -10zm51 19c-4,0 -7,-1 -10,-3 -3,-1 -5,-3 -7,-6 -2,-3 -2,-6 -2,-10 0,-3 0,-6 2,-9 2,-3 4,-5 7,-7 3,-1 6,-2 10,-2 4,0 7,1 10,2 3,2 6,4 7,7 2,3 3,6 3,9 0,4 -1,7 -3,10 -1,3 -4,5 -7,6 -3,2 -6,3 -10,3zm0 -7c2,0 4,-1 6,-2 2,-1 3,-2 4,-4 1,-1 1,-3 1,-6 0,-2 0,-4 -1,-6 -1,-1 -2,-3 -4,-4 -2,-1 -4,-1 -6,-1 -2,0 -4,0 -6,1 -1,1 -3,3 -4,4 -1,2 -1,4 -1,6 0,3 0,5 1,6 1,2 3,3 4,4 2,1 4,2 6,2zm56 7c-3,0 -6,0 -9,-1 -2,-1 -4,-2 -6,-3l3 -6c1,1 3,2 5,2 3,1 5,1 7,1 2,0 4,0 5,-1 1,-1 2,-1 2,-3 0,0 -1,-1 -1,-2 -1,0 -2,-1 -3,-1 -1,0 -2,-1 -4,-1 -3,-1 -5,-1 -7,-2 -2,-1 -3,-2 -4,-3 -2,-2 -2,-4 -2,-6 0,-2 0,-4 2,-6 1,-1 2,-3 5,-4 2,-1 5,-1 8,-1 2,0 4,0 7,1 2,0 4,1 5,2l-2 6c-4,-2 -7,-2 -10,-2 -2,0 -4,0 -5,1 -1,0 -2,1 -2,3 0,1 1,2 2,2 1,1 3,2 6,2 3,1 5,1 7,2 1,1 3,2 4,3 1,2 2,3 2,6 0,2 -1,4 -2,5 -1,2 -3,3 -5,4 -2,1 -5,2 -8,2zm54 -37c4,0 6,1 9,2 2,1 4,3 5,5 1,2 2,4 2,6 0,3 -1,5 -2,7 -1,2 -3,4 -5,5 -3,1 -5,1 -9,1l-7 0 0 10 -8 0 0 -36 15 0zm0 20c3,0 4,-1 6,-2 1,-1 2,-3 2,-5 0,-2 -1,-3 -2,-4 -2,-1 -3,-2 -6,-2l-7 0 0 13 7 0zm58 17c-4,0 -7,-1 -10,-3 -3,-1 -5,-3 -7,-6 -2,-3 -2,-6 -2,-10 0,-3 0,-6 2,-9 2,-3 4,-5 7,-7 3,-1 6,-2 10,-2 4,0 7,1 10,2 3,2 5,4 7,7 2,3 3,6 3,9 0,4 -1,7 -3,10 -2,3 -4,5 -7,6 -3,2 -6,3 -10,3zm0 -7c2,0 4,-1 6,-2 2,-1 3,-2 4,-4 1,-1 1,-3 1,-6 0,-2 0,-4 -1,-6 -1,-1 -2,-3 -4,-4 -2,-1 -4,-1 -6,-1 -2,0 -4,0 -6,1 -1,1 -3,3 -4,4 -1,2 -1,4 -1,6 0,3 0,5 1,6 1,2 3,3 4,4 2,1 4,2 6,2zm44 -30l17 0c4,0 7,1 10,3 3,1 5,3 7,6 2,3 2,6 2,9 0,4 0,7 -2,10 -2,2 -4,5 -7,6 -3,2 -6,2 -10,2l-17 0 0 -36zm16 29c4,0 7,-1 9,-3 2,-2 3,-4 3,-8 0,-3 -1,-6 -3,-8 -2,-2 -5,-3 -9,-3l-7 0 0 22 7 0zm68 0l-17 0 -3 7 -9 0 16 -36 8 0 16 36 -8 0 -3 -7zm-3 -7l-6 -13 -5 13 11 0zm59 14l-6 -10 -1 0 -7 0 0 10 -8 0 0 -36 15 0c3,0 6,1 8,2 3,1 5,3 6,5 1,2 2,4 2,6 0,3 -1,5 -2,7 -2,2 -3,4 -6,5l8 11 -9 0zm0 -23c0,-2 0,-3 -2,-4 -1,-1 -3,-2 -5,-2l-7 0 0 13 7 0c2,0 4,-1 5,-2 2,-1 2,-3 2,-5zm51 24c-4,0 -7,-1 -10,-2 -3,-2 -5,-4 -7,-7 -2,-3 -3,-6 -3,-10 0,-3 1,-6 3,-9 2,-3 4,-5 7,-7 3,-1 6,-2 10,-2 3,0 6,0 8,2 3,1 5,2 7,4l-6 5c-2,-3 -5,-4 -9,-4 -2,0 -4,0 -6,1 -1,1 -3,3 -4,4 -1,2 -1,4 -1,6 0,3 0,5 1,6 1,2 3,3 4,4 2,1 4,2 6,2 4,0 7,-2 9,-4l6 5c-2,2 -4,3 -7,4 -2,1 -5,2 -8,2zm67 -7l0 6 -31 0 0 -5 19 -24 -19 0 0 -7 30 0 0 6 -19 24 20 0zm47 -1l-16 0 -3 7 -9 0 16 -36 8 0 16 36 -9 0 -3 -7zm-2 -7l-6 -13 -6 13 12 0z"></path>
  </g>
 </g>
</svg>
