<?xml version="1.0" encoding="UTF-8"?>
<svg xmlns="http://www.w3.org/2000/svg" xmlns:xlink="http://www.w3.org/1999/xlink" xml:space="preserve" width="1200px" height="411px" version="1.1" shape-rendering="geometricPrecision" text-rendering="geometricPrecision" image-rendering="optimizeQuality" fill-rule="evenodd" clip-rule="evenodd" viewBox="0 0 1200 411">
 <g id="Warstwa_x0020_1">
  <metadata id="CorelCorpID_0Corel-Layer"></metadata>
  <g id="_1104504592">
   <path fill="#DC2626" d="M18 113l67 -41 0 273 -85 -85 18 -147zm81 -50l66 -41 19 18 0 335 -85 -21 0 -291zm99 -8l4 3 81 -13 0 307 -44 37 -41 -10 0 -324zm100 -13l14 -2 74 129 -37 128 -51 43 0 -298z"></path>
  </g>
  <path fill="none" stroke="#CBD5E1" stroke-width="7.35014" d="M482 22l0 367"></path>
  <g id="_1104506608">
   <path fill="#171717" fill-rule="nonzero" d="M700 83l35 0 0 66c-9,7 -19,12 -31,16 -12,3 -23,5 -35,5 -17,0 -33,-3 -46,-11 -14,-7 -25,-17 -33,-30 -7,-13 -11,-28 -11,-44 0,-16 4,-31 11,-44 8,-13 19,-23 33,-30 14,-7 29,-11 46,-11 15,0 28,2 40,7 11,5 21,12 29,21l-24 23c-12,-12 -26,-19 -43,-19 -10,0 -20,3 -28,7 -8,4 -14,11 -19,19 -4,8 -7,17 -7,27 0,10 3,19 7,27 5,8 11,15 19,19 8,5 17,7 28,7 11,0 21,-3 29,-7l0 -48zm75 -80l38 0 0 164 -38 0 0 -164zm191 80l35 0 0 66c-9,7 -20,12 -31,16 -12,3 -24,5 -36,5 -17,0 -32,-3 -46,-11 -14,-7 -24,-17 -32,-30 -8,-13 -12,-28 -12,-44 0,-16 4,-31 12,-44 8,-13 18,-23 32,-30 14,-7 30,-11 47,-11 14,0 27,2 39,7 12,5 22,12 30,21l-25 23c-11,-12 -26,-19 -42,-19 -11,0 -20,3 -28,7 -8,4 -15,11 -19,19 -5,8 -7,17 -7,27 0,10 2,19 7,27 4,8 11,15 19,19 8,5 17,7 27,7 11,0 21,-3 30,-7l0 -48z"></path>
   <path fill="#475569" fill-rule="nonzero" d="M617 244l7 0 0 15c-2,2 -4,3 -7,3 -2,1 -5,2 -7,2 -4,0 -7,-1 -10,-3 -3,-1 -6,-4 -7,-6 -2,-3 -3,-6 -3,-10 0,-4 1,-7 3,-10 1,-2 4,-5 7,-6 3,-2 6,-3 10,-3 3,0 6,1 8,2 3,1 5,3 7,5l-5 5c-3,-3 -6,-5 -10,-5 -2,0 -4,1 -6,2 -2,1 -3,2 -4,4 -1,2 -2,4 -2,6 0,2 1,4 2,6 1,2 2,3 4,4 2,1 4,2 6,2 2,0 5,-1 7,-2l0 -11zm61 12l0 7 -28 0 0 -36 28 0 0 7 -19 0 0 7 16 0 0 7 -16 0 0 8 19 0zm42 8c-3,0 -7,-1 -10,-3 -3,-1 -5,-4 -7,-6 -2,-3 -2,-6 -2,-10 0,-4 0,-7 2,-10 2,-2 4,-5 7,-6 3,-2 7,-3 10,-3 4,0 7,1 10,3 3,1 6,4 7,6 2,3 3,6 3,10 0,4 -1,7 -3,10 -1,2 -4,5 -7,6 -3,2 -6,3 -10,3zm0 -7c2,0 4,-1 6,-2 2,-1 3,-2 4,-4 1,-2 2,-4 2,-6 0,-2 -1,-4 -2,-6 -1,-2 -2,-3 -4,-4 -2,-1 -4,-2 -6,-2 -2,0 -4,1 -5,2 -2,1 -4,2 -5,4 0,2 -1,4 -1,6 0,2 1,4 1,6 1,2 3,3 5,4 1,1 3,2 5,2zm45 -30l16 0c4,0 8,1 11,2 3,2 5,4 7,7 1,2 2,5 2,9 0,4 -1,7 -2,9 -2,3 -4,5 -7,7 -3,1 -7,2 -11,2l-16 0 0 -36zm16 29c3,0 6,-1 8,-3 3,-2 4,-5 4,-8 0,-3 -1,-6 -4,-8 -2,-2 -5,-3 -8,-3l-8 0 0 22 8 0zm73 0l0 7 -28 0 0 -36 27 0 0 7 -19 0 0 7 17 0 0 7 -17 0 0 8 20 0zm54 0l0 7 -31 0 0 -5 19 -24 -19 0 0 -7 30 0 0 5 -19 24 20 0zm41 -6l0 13 -9 0 0 -13 -14 -23 9 0 10 16 9 -16 9 0 -14 23zm42 14c-3,0 -5,-1 -7,-2 -2,-1 -4,-2 -5,-4l5 -5c2,2 4,4 6,4 4,0 5,-2 5,-6l0 -17 -12 0 0 -7 21 0 0 23c0,5 -1,8 -4,10 -2,3 -5,4 -9,4zm73 -37l0 36 -7 0 -18 -22 0 22 -8 0 0 -36 6 0 18 22 0 -22 9 0zm50 28l-17 0 -3 8 -9 0 16 -36 9 0 16 36 -9 0 -3 -8zm-3 -6l-6 -14 -5 14 11 0z"></path>
   <path fill="#475569" fill-rule="nonzero" d="M592 300l9 0 0 36 -9 0 0 -36zm65 30l0 6 -32 0 0 -5 20 -24 -19 0 0 -7 30 0 0 6 -20 24 21 0zm50 -12c2,0 3,2 4,3 2,2 2,3 2,6 0,3 -1,5 -3,7 -3,2 -7,2 -11,2l-19 0 0 -36 18 0c4,0 8,1 10,3 2,2 3,4 3,7 0,2 0,3 -1,5 -1,1 -2,2 -3,3zm-19 -11l0 8 9 0c2,0 3,0 4,-1 1,-1 2,-2 2,-3 0,-1 -1,-2 -2,-3 -1,-1 -2,-1 -4,-1l-9 0zm10 23c2,0 4,0 5,-1 1,-1 2,-2 2,-3 0,-3 -2,-5 -7,-5l-10 0 0 9 10 0zm64 -1l-17 0 -3 7 -9 0 16 -36 9 0 16 36 -9 0 -3 -7zm-3 -7l-6 -13 -5 13 11 0z"></path>
   <path fill="#475569" fill-rule="nonzero" d="M617 391l7 0 0 15c-2,2 -4,3 -7,3 -2,1 -5,2 -7,2 -4,0 -7,-1 -10,-3 -3,-1 -6,-4 -7,-6 -2,-3 -3,-6 -3,-10 0,-4 1,-7 3,-10 1,-2 4,-5 7,-6 3,-2 6,-3 10,-3 3,0 6,1 8,2 3,1 5,3 7,5l-5 5c-3,-3 -6,-5 -10,-5 -2,0 -4,1 -6,2 -2,1 -3,2 -4,4 -1,2 -2,4 -2,6 0,2 1,4 2,6 1,2 2,3 4,4 2,1 4,2 6,2 2,0 5,-1 7,-2l0 -11zm51 20c-4,0 -7,-1 -10,-3 -3,-1 -6,-4 -7,-6 -2,-3 -3,-6 -3,-10 0,-4 1,-7 3,-10 1,-2 4,-5 7,-6 3,-2 6,-3 10,-3 4,0 7,1 10,3 3,1 5,4 7,6 2,3 3,6 3,10 0,4 -1,7 -3,10 -2,2 -4,5 -7,6 -3,2 -6,3 -10,3zm0 -7c2,0 4,-1 6,-2 1,-1 3,-2 4,-4 1,-2 1,-4 1,-6 0,-2 0,-4 -1,-6 -1,-2 -3,-3 -4,-4 -2,-1 -4,-2 -6,-2 -2,0 -4,1 -6,2 -2,1 -3,2 -4,4 -1,2 -1,4 -1,6 0,2 0,4 1,6 1,2 2,3 4,4 2,1 4,2 6,2zm56 7c-3,0 -6,-1 -9,-2 -2,0 -4,-1 -6,-3l3 -6c1,1 3,2 5,3 2,1 5,1 7,1 2,0 4,0 5,-1 1,-1 2,-2 2,-3 0,-1 -1,-2 -1,-2 -1,-1 -2,-1 -3,-1 -1,-1 -2,-1 -4,-2 -3,0 -5,-1 -7,-2 -2,0 -3,-1 -4,-3 -2,-1 -2,-3 -2,-5 0,-3 0,-4 1,-6 2,-2 3,-3 6,-4 2,-1 5,-2 8,-2 2,0 4,1 7,1 2,1 4,2 5,3l-2 6c-3,-2 -7,-3 -10,-3 -2,0 -4,0 -5,1 -1,1 -2,2 -2,3 0,1 1,2 2,3 1,1 3,1 6,2 3,0 5,1 7,2 1,0 3,1 4,3 1,1 2,3 2,5 0,3 -1,4 -2,6 -1,2 -3,3 -5,4 -2,1 -5,2 -8,2zm55 -37c3,0 6,1 8,2 2,1 4,2 6,4 1,2 1,4 1,7 0,3 0,5 -1,7 -2,2 -4,3 -6,4 -2,2 -5,2 -8,2l-7 0 0 10 -9 0 0 -36 16 0zm-1 19c3,0 5,0 6,-1 1,-1 2,-3 2,-5 0,-2 -1,-4 -2,-5 -1,-1 -3,-1 -6,-1l-6 0 0 12 6 0zm59 18c-4,0 -7,-1 -10,-3 -3,-1 -6,-4 -7,-6 -2,-3 -3,-6 -3,-10 0,-4 1,-7 3,-10 1,-2 4,-5 7,-6 3,-2 6,-3 10,-3 4,0 7,1 10,3 3,1 5,4 7,6 2,3 3,6 3,10 0,4 -1,7 -3,10 -2,2 -4,5 -7,6 -3,2 -6,3 -10,3zm0 -7c2,0 4,-1 6,-2 1,-1 3,-2 4,-4 1,-2 1,-4 1,-6 0,-2 0,-4 -1,-6 -1,-2 -3,-3 -4,-4 -2,-1 -4,-2 -6,-2 -2,0 -4,1 -6,2 -2,1 -3,2 -4,4 -1,2 -1,4 -1,6 0,2 0,4 1,6 1,2 2,3 4,4 2,1 4,2 6,2zm44 -30l17 0c4,0 7,1 10,2 3,2 5,4 7,7 2,2 3,5 3,9 0,4 -1,7 -3,9 -2,3 -4,5 -7,7 -3,1 -6,2 -10,2l-17 0 0 -36zm16 29c4,0 7,-1 9,-3 2,-2 3,-5 3,-8 0,-3 -1,-6 -3,-8 -2,-2 -5,-3 -9,-3l-7 0 0 22 7 0zm68 -1l-17 0 -3 8 -8 0 16 -36 8 0 16 36 -9 0 -3 -8zm-3 -6l-5 -14 -6 14 11 0zm60 14l-7 -10 0 0 -7 0 0 10 -9 0 0 -36 16 0c3,0 6,1 8,2 2,1 4,2 6,4 1,2 1,4 1,7 0,3 0,5 -1,7 -2,2 -4,3 -6,4l8 12 -9 0zm0 -23c0,-2 -1,-4 -2,-5 -1,-1 -3,-1 -6,-1l-6 0 0 12 6 0c3,0 5,0 6,-1 1,-1 2,-3 2,-5zm51 24c-4,0 -7,-1 -10,-3 -3,-1 -5,-4 -7,-6 -2,-3 -3,-6 -3,-10 0,-4 1,-7 3,-10 2,-2 4,-5 7,-6 3,-2 6,-3 10,-3 3,0 6,1 8,2 3,1 5,3 7,5l-6 5c-2,-3 -5,-5 -9,-5 -2,0 -4,1 -6,2 -1,1 -3,2 -4,4 -1,2 -1,4 -1,6 0,2 0,4 1,6 1,2 3,3 4,4 2,1 4,2 6,2 4,0 7,-2 9,-5l6 5c-2,2 -4,4 -7,5 -2,1 -5,2 -8,2zm67 -8l0 7 -31 0 0 -5 20 -24 -20 0 0 -7 31 0 0 5 -20 24 20 0zm48 -1l-17 0 -3 8 -8 0 16 -36 8 0 16 36 -9 0 -3 -8zm-3 -6l-5 -14 -6 14 11 0z"></path>
  </g>
 </g>
</svg>
