<?xml version="1.0" encoding="UTF-8"?>
<svg xmlns="http://www.w3.org/2000/svg" xmlns:xlink="http://www.w3.org/1999/xlink" xml:space="preserve" width="25.4mm" height="25.3998mm" version="1.0" shape-rendering="geometricPrecision" text-rendering="geometricPrecision" image-rendering="optimizeQuality" fill-rule="evenodd" clip-rule="evenodd" viewBox="0 0 1437 1437">
 <g id="Warstwa_x0020_1">
  <metadata id="CorelCorpID_0Corel-Layer"></metadata>
  <g id="_1954569580256">
   <path fill="whitesmoke" fill-rule="nonzero" d="M1437 718c0,397 -322,719 -719,719 -396,0 -718,-322 -718,-719 0,-396 322,-718 718,-718 397,0 719,322 719,718z"></path>
   <path fill="#D4213E" fill-rule="nonzero" d="M219 1225c-3,0 -6,-1 -8,-3 -3,-4 -2,-9 2,-12 4,-4 102,-78 280,-120 165,-38 431,-56 764,83 5,2 7,7 5,12 -2,4 -7,6 -11,4 -329,-136 -591,-119 -752,-82 -176,42 -274,116 -275,117 -2,1 -4,1 -5,1z"></path>
   <path fill="#1D1D1E" fill-rule="nonzero" d="M949 522c0,170 -138,308 -308,308 -170,0 -307,-138 -307,-308 0,-170 137,-308 307,-308 170,0 308,138 308,308z"></path>
   <path fill="#FEFEFE" fill-rule="nonzero" d="M519 733c0,0 15,352 19,355 281,213 257,61 257,61l-54 -358 -222 -58z"></path>
   <path fill="#1D1D1E" fill-rule="nonzero" d="M546 1083c155,117 209,116 227,105 17,-10 13,-37 13,-37l-53 -353 -205 -53c6,129 15,313 18,338zm208 128c-46,0 -120,-39 -221,-116 -4,-3 -8,-6 -23,-361 0,-3 1,-6 3,-7 2,-2 5,-3 8,-2l222 57c3,1 6,4 7,8l54 358c0,1 6,39 -22,56 -8,4 -17,7 -28,7z"></path>
   <path fill="#FEFEFE" fill-rule="nonzero" d="M936 385l35 222c15,89 6,179 -26,263l-37 102c0,0 -222,11 -384,-164 -162,-176 -82,-625 412,-423z"></path>
   <path fill="#1D1D1E" fill-rule="nonzero" d="M711 342c-117,0 -178,56 -208,99 -71,102 -59,268 27,361 142,153 333,161 371,161 0,0 0,0 1,0l35 -96c31,-82 39,-172 25,-258l-34 -217c-88,-36 -160,-50 -217,-50zm190 639c-40,0 -237,-8 -384,-167 -91,-99 -104,-274 -29,-383 49,-70 171,-169 452,-54 2,1 5,4 5,7l35 222c15,90 6,182 -26,268l-38 101c-1,3 -4,6 -8,6 0,0 -3,0 -7,0z"></path>
   <path fill="#1D1D1E" fill-rule="nonzero" d="M1023 539c-3,0 -6,-2 -8,-5 -4,-10 -21,-21 -42,-23 -11,-2 -34,-2 -51,18 -3,4 -9,4 -13,1 -3,-3 -4,-9 0,-13 16,-19 40,-27 67,-24 25,3 47,17 55,33 2,4 0,9 -4,12 -1,0 -3,1 -4,1z"></path>
   <path fill="#1D1D1E" fill-rule="nonzero" d="M803 525c-3,0 -6,-2 -8,-5 -4,-9 -21,-20 -41,-23 -12,-1 -35,-1 -52,19 -3,3 -9,4 -12,0 -4,-3 -4,-8 -1,-12 16,-19 40,-28 67,-24 25,3 48,16 55,32 2,5 1,10 -4,12 -1,1 -2,1 -4,1z"></path>
   <path fill="#1D1D1E" fill-rule="nonzero" d="M791 610c0,12 -7,21 -16,21 -8,-1 -14,-10 -14,-22 0,-11 7,-20 16,-20 8,0 14,10 14,21z"></path>
   <path fill="#1D1D1E" fill-rule="nonzero" d="M973 618c-1,12 -8,21 -16,21 -8,-1 -14,-10 -14,-21 0,-12 7,-21 15,-21 9,1 15,10 15,21z"></path>
   <path fill="#D4213E" fill-rule="nonzero" d="M970 563l0 0c-39,1 -69,34 -68,73 1,19 9,36 22,49 14,13 32,19 51,19 19,-1 36,-9 49,-23 13,-14 19,-32 19,-50 -1,-19 -9,-37 -23,-49 -14,-13 -32,-20 -50,-19zm2 158c-47,0 -86,-37 -88,-84 -2,-49 36,-90 85,-92l0 0c24,-1 46,8 63,24 18,16 28,37 28,61 1,24 -7,46 -23,63 -16,18 -38,28 -61,28 -1,0 -3,0 -4,0z"></path>
   <path fill="#1D1D1E" fill-rule="nonzero" d="M879 771c-1,0 -1,0 -1,0l-70 -8c-5,0 -8,-5 -8,-9 1,-5 5,-9 10,-8l59 6 -21 -225c0,-5 3,-9 8,-10 5,0 9,4 10,8l22 237c0,2 -1,5 -3,7 -2,1 -4,2 -6,2z"></path>
   <path fill="#D4213E" fill-rule="nonzero" d="M894 638c0,0 -1,0 -1,0l-53 -8c-5,-1 -8,-5 -7,-10 0,-5 5,-8 10,-8l53 8c4,1 8,5 7,10 -1,5 -4,8 -9,8z"></path>
   <path fill="#1D1D1E" fill-rule="nonzero" d="M611 433l15 225 -135 -12 27 162c0,0 -194,-78 -153,-294 110,-588 691,-112 553,-106 -138,5 -307,25 -307,25z"></path>
   <path fill="#FEFEFE" fill-rule="nonzero" d="M579 646c8,-41 -20,-81 -61,-88 -41,-8 -81,20 -88,61 -8,41 20,81 61,89l88 -62z"></path>
   <path fill="#1D1D1E" fill-rule="nonzero" d="M491 716c0,0 -1,0 -1,0 -47,-8 -77,-52 -69,-98 4,-23 16,-42 35,-55 19,-13 41,-18 64,-14 46,8 77,53 68,99 -1,5 -5,8 -10,7 -5,-1 -8,-6 -7,-10 6,-37 -18,-72 -54,-78 -18,-4 -36,0 -51,10 -14,11 -24,26 -28,44 -3,17 1,35 11,50 11,15 26,25 44,28 5,1 8,5 7,10 -1,4 -5,7 -9,7z"></path>
   <path fill="#D4213E" fill-rule="nonzero" d="M754 551c-17,0 -34,6 -47,18 -14,13 -22,30 -23,49 -1,18 5,36 18,50 12,14 29,23 48,24 19,1 37,-5 51,-18 14,-13 22,-30 23,-49 1,-18 -5,-36 -18,-50 -12,-14 -29,-23 -48,-24 -1,0 -3,0 -4,0zm0 159c-2,0 -3,0 -5,0 -23,-2 -45,-12 -61,-30 -15,-17 -23,-40 -22,-63 1,-24 12,-46 29,-61 18,-16 40,-24 64,-23 23,2 45,12 61,30 15,17 23,40 22,63 -1,24 -12,46 -29,61 -17,15 -37,23 -59,23z"></path>
   <path fill="#1D1D1E" fill-rule="nonzero" d="M830 870c-30,0 -69,-8 -107,-40 -3,-3 -4,-8 -1,-12 3,-4 9,-4 13,-1 70,58 142,28 145,26 5,-2 10,0 12,5 2,4 0,10 -5,12 -1,0 -24,10 -57,10z"></path>
   <path fill="#1D1D1E" fill-rule="nonzero" d="M1041 252c0,87 -61,157 -137,157 -76,0 -137,-70 -137,-157 0,-86 61,-157 137,-157 76,0 137,71 137,157z"></path>
   <path fill="#1D1D1E" fill-rule="nonzero" d="M851 252c0,62 -44,112 -99,112 -54,0 -98,-50 -98,-112 0,-63 44,-113 98,-113 55,0 99,50 99,113z"></path>
  </g>
 </g>
</svg>
