<?xml version="1.0" encoding="UTF-8"?>
<svg xmlns="http://www.w3.org/2000/svg" xmlns:xlink="http://www.w3.org/1999/xlink" xml:space="preserve" width="25.4mm" height="25.4mm" version="1.0" shape-rendering="geometricPrecision" text-rendering="geometricPrecision" image-rendering="optimizeQuality" fill-rule="evenodd" clip-rule="evenodd" viewBox="0 0 8072 8072">
 <g id="Warstwa_x0020_1">
  <metadata id="CorelCorpID_0Corel-Layer"></metadata>
  <g id="_1954569572672">
   <path fill="whitesmoke" fill-rule="nonzero" d="M0 4036c0,-2229 1807,-4036 4036,-4036 2229,0 4036,1807 4036,4036 0,2229 -1807,4036 -4036,4036 -2229,0 -4036,-1807 -4036,-4036z"></path>
   <path fill="#FEFEFE" fill-rule="nonzero" d="M5363 2982c-227,-116 -378,-44 -465,38 -12,11 -23,23 -34,36 95,-493 25,-868 -209,-1116 -204,-216 -538,-334 -967,-343 -322,-7 -587,51 -590,52 -8,2 -14,7 -18,14 -26,56 -645,1370 -603,2059 41,689 53,907 53,907 0,8 4,15 10,19 4,4 255,193 706,207l-74 589c-1,7 2,15 7,21 8,8 118,115 492,115 265,0 660,-53 1244,-232 11,-3 19,-12 19,-24l64 -1331c183,15 387,-118 495,-340 132,-271 76,-566 -130,-671z"></path>
   <path fill="#212127" fill-rule="nonzero" d="M3069 3593c-10,0 -19,-3 -28,-8 -64,-43 -275,-190 -292,-290 -5,-31 5,-52 15,-65 36,-48 254,-540 383,-838 11,-26 40,-37 65,-26 26,11 37,40 26,65 -33,78 -322,747 -389,852 14,38 126,137 248,219 23,15 29,46 13,69 -9,14 -25,22 -41,22z"></path>
   <path fill="#212127" fill-rule="nonzero" d="M5048 1368c-231,0 -442,82 -607,218 626,175 1088,767 1088,1470 0,31 -1,62 -3,93 284,-166 476,-473 476,-826 0,-527 -427,-955 -954,-955z"></path>
   <path fill="#212127" fill-rule="nonzero" d="M4878 3626l584 -30 329 -645c162,-319 135,-701 -71,-994 -230,-325 -509,-695 -588,-695 -90,0 -1143,-151 -1801,-186 -370,-20 -685,264 -704,634l100 778 377 -849c0,0 590,637 1580,566l194 1421z"></path>
   <path fill="#D4213E" fill-rule="nonzero" d="M3732 2506c-184,0 -333,149 -333,333 0,183 149,333 333,333 184,0 333,-150 333,-333 0,-184 -149,-333 -333,-333zm0 766c-239,0 -433,-194 -433,-433 0,-239 194,-433 433,-433 239,0 433,194 433,433 0,239 -194,433 -433,433z"></path>
   <path fill="#212127" fill-rule="nonzero" d="M3078 3858c-25,0 -47,-18 -50,-44 -3,-27 17,-52 44,-55l389 -45c28,-3 52,17 55,45 3,27 -16,52 -44,55l-389 44c-2,0 -3,0 -5,0z"></path>
   <path fill="#FEFEFE" fill-rule="nonzero" d="M4895 3938c191,94 448,-39 574,-297 126,-257 73,-542 -118,-635 -191,-94 -448,39 -574,297l118 635z"></path>
   <path fill="#1D1D1E" fill-rule="nonzero" d="M5026 4018c-53,0 -105,-11 -153,-35 -24,-12 -35,-42 -23,-67 13,-25 42,-35 67,-23 166,82 394,-42 507,-274 114,-232 71,-487 -95,-568 -166,-81 -393,42 -507,274 -12,25 -42,35 -67,23 -24,-12 -35,-42 -23,-67 138,-282 426,-425 641,-320 216,105 279,420 141,702 -107,219 -305,355 -488,355z"></path>
   <path fill="#D4213E" fill-rule="nonzero" d="M3315 2733l-264 0c-27,0 -50,-23 -50,-50 0,-28 23,-50 50,-50l264 0c27,0 50,22 50,50 0,27 -23,50 -50,50z"></path>
   <path fill="#212127" fill-rule="nonzero" d="M3646 2774c0,77 33,139 74,139 41,0 74,-62 74,-139 0,-76 -33,-138 -74,-138 -41,0 -74,62 -74,138z"></path>
   <path fill="#212127" fill-rule="nonzero" d="M2798 2668c0,76 33,138 73,138 41,0 74,-62 74,-138 0,-77 -33,-139 -74,-139 -40,0 -73,62 -73,139z"></path>
   <path fill="#D4213E" fill-rule="nonzero" d="M4890 3175c-6,0 -12,-1 -17,-3l-775 -286c-26,-10 -40,-39 -30,-64 10,-26 38,-40 64,-30l775 286c26,9 39,38 30,64 -8,20 -27,33 -47,33z"></path>
   <path fill="#212127" fill-rule="nonzero" d="M3289 4883c-480,0 -747,-203 -764,-216 -11,-9 -18,-22 -19,-37 0,0 -12,-218 -53,-907 -41,-694 580,-2014 606,-2070 12,-25 42,-35 67,-23 25,11 35,41 23,66 -6,14 -636,1352 -596,2021 33,561 48,810 52,883 108,71 703,406 1661,-76 25,-12 55,-2 67,22 13,25 3,55 -22,67 -405,204 -748,270 -1022,270z"></path>
   <path fill="#212127" fill-rule="nonzero" d="M4908 5373c-1,0 -2,0 -3,0 -27,-1 -49,-25 -47,-52l65 -1344c1,-28 27,-48 52,-48 27,2 49,25 47,53l-64 1343c-2,27 -24,48 -50,48z"></path>
   <path fill="#212127" fill-rule="nonzero" d="M3199 5497c-3,0 -5,0 -7,-1 -27,-3 -47,-28 -43,-55l77 -607c3,-28 28,-47 55,-44 28,4 47,29 44,56l-77 607c-3,25 -25,44 -49,44z"></path>
   <path fill="#D4213E" fill-rule="nonzero" d="M2709 3148c-238,0 -433,-194 -433,-433 0,-239 195,-433 433,-433 205,0 384,145 425,346 5,27 -12,53 -39,59 -28,5 -54,-12 -59,-39 -32,-154 -169,-266 -327,-266 -183,0 -333,149 -333,333 0,184 150,333 333,333 45,0 89,-9 130,-26 26,-11 55,1 65,26 11,26 -1,55 -26,66 -54,23 -110,34 -169,34z"></path>
   <path fill="#1D1D1E" fill-rule="nonzero" d="M4993 6488l-1895 0c-63,0 -113,-50 -113,-113l0 -1098c0,-62 50,-113 113,-113l1895 0c62,0 113,51 113,113l0 1098c0,63 -51,113 -113,113z"></path>
   <path fill="#1D1D1E" fill-rule="nonzero" d="M6780 6696c0,0 -207,-336 -498,-457 -137,-90 -309,-152 -501,-173l-2748 -308c-413,-46 -831,102 -1059,376 -147,176 -285,813 -289,1160 0,7 0,15 0,22 662,475 1474,756 2351,756 1119,0 2132,-455 2863,-1191 -74,-116 -119,-185 -119,-185z"></path>
  </g>
 </g>
</svg>
