<?xml version="1.0" encoding="UTF-8"?>
<svg xmlns="http://www.w3.org/2000/svg" xmlns:xlink="http://www.w3.org/1999/xlink" xml:space="preserve" width="25.4mm" height="25.3998mm" version="1.0" shape-rendering="geometricPrecision" text-rendering="geometricPrecision" image-rendering="optimizeQuality" fill-rule="evenodd" clip-rule="evenodd" viewBox="0 0 474 474">
 <g id="Warstwa_x0020_1">
  <metadata id="CorelCorpID_0Corel-Layer"></metadata>
  <path fill="whitesmoke" fill-rule="nonzero" d="M474 237c0,131 -106,237 -237,237 -131,0 -237,-106 -237,-237 0,-131 106,-237 237,-237 131,0 237,106 237,237z"></path>
  <path fill="#EFAE9B" fill-rule="nonzero" d="M158 191c-12,-9 -23,-3 -23,-3l-1 -1c0,0 12,-7 25,3l-1 1z"></path>
  <path fill="#1D1D1E" fill-rule="nonzero" d="M148 198c0,3 -2,5 -5,5 -2,0 -4,-2 -4,-5 0,-2 2,-4 4,-4 3,0 5,2 5,4z"></path>
  <path fill="#1D1D1E" fill-rule="nonzero" d="M279 264c0,0 22,-10 24,-23 3,-12 -1,-25 5,-35 5,-10 38,-14 -15,-65 -52,-51 -141,-136 -145,-89 -5,47 8,65 9,72 0,8 -23,60 -33,84 -10,24 -9,35 -3,51 10,27 40,45 69,58 29,13 82,-22 89,-53z"></path>
  <path fill="#FEFEFE" fill-rule="nonzero" d="M126 202c0,0 18,-7 34,4 15,12 28,29 50,29 21,0 24,-31 24,-60 0,-17 -25,-30 -25,-51 0,-1 -4,7 -25,-5 -20,-11 -35,-26 -35,-26 0,0 -9,52 -14,63 -6,10 -18,24 -18,24 0,0 -3,12 9,22z"></path>
  <path fill="#1D1D1E" fill-rule="nonzero" d="M139 197c6,0 14,1 22,7 4,3 8,6 12,10 11,9 22,18 37,18 19,0 21,-30 21,-57 0,-7 -5,-13 -11,-20 -6,-8 -12,-17 -14,-27 -5,1 -13,-1 -23,-6 -14,-8 -26,-18 -32,-23 -2,14 -9,49 -14,58 -5,9 -15,22 -18,25 0,2 0,9 7,16 3,0 7,-1 13,-1zm71 41c-17,0 -29,-10 -41,-20 -3,-3 -7,-6 -11,-9 -14,-11 -31,-5 -31,-4 -1,0 -2,0 -3,-1 -13,-11 -10,-24 -10,-24 0,-1 0,-1 0,-2 1,0 13,-14 18,-24 5,-8 12,-47 14,-61 1,-1 1,-2 2,-2 2,-1 3,0 3,0 1,1 15,15 35,26 5,3 16,8 21,5 1,-1 2,-2 4,-1 0,1 1,2 1,3 0,10 7,19 13,27 6,8 12,15 12,24 0,29 -3,63 -27,63z"></path>
  <path fill="#212127" fill-rule="nonzero" d="M151 100c-1,0 -2,0 -2,-1 -10,-17 -14,-38 -10,-58 0,-2 1,-3 3,-2 2,0 3,1 2,3 -3,18 1,38 10,54 1,1 0,3 -1,4 -1,0 -1,0 -2,0z"></path>
  <path fill="#FEFEFE" fill-rule="nonzero" d="M157 244c-4,0 -8,0 -11,-2 -2,-1 -2,-3 -1,-4 0,-2 2,-2 3,-1 8,3 17,2 23,-3 1,-1 3,-1 4,0 1,1 1,3 0,4 -5,4 -11,6 -18,6z"></path>
  <path fill="#212127" fill-rule="nonzero" d="M272 201c-2,0 -3,-1 -3,-3 0,-9 4,-18 11,-24 1,-1 3,-1 4,0 1,1 1,3 -1,4 -5,5 -9,13 -8,20 0,1 -1,3 -3,3 0,0 0,0 0,0z"></path>
  <path fill="#212127" fill-rule="nonzero" d="M179 174c-2,0 -3,-1 -3,-2 -1,-3 -3,-5 -6,-6 -2,-1 -5,-1 -7,0 -2,1 -4,0 -4,-1 -1,-2 0,-4 1,-4 4,-2 9,-2 13,0 4,2 7,5 8,9 1,2 0,3 -2,4 0,0 0,0 0,0z"></path>
  <path fill="#212127" fill-rule="nonzero" d="M181 147c0,0 -1,0 -1,0 -4,-1 -8,-2 -12,-2 -1,0 -3,-1 -3,-3 0,-1 1,-3 3,-3 5,0 9,1 14,2 1,1 2,2 2,4 -1,1 -2,2 -3,2z"></path>
  <path fill="#FEFEFE" fill-rule="nonzero" d="M304 289c-16,-26 -24,-62 -24,-62 0,0 21,-53 13,-65 -8,-13 -39,18 -39,18 0,0 17,75 2,100 -15,25 -72,28 -72,28 0,0 4,10 11,27l109 -46z"></path>
  <path fill="#1D1D1E" fill-rule="nonzero" d="M195 338c-2,0 -3,0 -3,-2 -6,-16 -11,-26 -11,-26 -1,-1 -1,-2 0,-3 0,-1 1,-2 2,-2 1,0 57,-3 71,-27 14,-23 -3,-97 -3,-97 0,-1 0,-2 1,-3 2,-3 24,-23 36,-22 3,0 5,2 7,4 8,13 -9,58 -12,67 1,5 9,38 23,60 1,2 1,4 -1,4 -1,1 -3,1 -4,-1 -16,-25 -23,-61 -24,-63 0,0 0,-1 0,-2 8,-19 18,-53 13,-62 0,-1 -1,-1 -2,-1 -7,-1 -22,11 -31,19 3,11 16,77 2,100 -13,23 -57,29 -71,30 2,4 5,12 9,23 1,2 0,4 -2,4 0,0 0,0 0,0z"></path>
  <path fill="#D4213E" fill-rule="nonzero" d="M144 458c0,0 0,0 -1,0 -1,-1 -2,-3 -1,-4l39 -114c0,-1 1,-1 2,-2l127 -55c1,0 2,0 3,1l16 21c7,-2 32,-6 50,4 11,6 37,24 48,72 0,2 -1,4 -3,4 -1,0 -3,-1 -3,-2 -10,-46 -34,-64 -44,-69 -20,-11 -48,-3 -49,-3 -1,1 -2,0 -3,-1l-15 -21 -124 54 -39 113c0,1 -1,2 -3,2z"></path>
  <path fill="#D4213E" fill-rule="nonzero" d="M207 389c0,0 -1,0 -1,0 -1,0 -2,-1 -2,-2l-11 -34 -18 25c-1,1 -3,2 -4,1 -2,-1 -2,-3 -1,-4l21 -30c1,-1 2,-2 3,-1 1,0 2,0 2,2l12 36 94 -63c1,-1 3,-1 4,1 0,1 0,3 -1,4l-96 65c-1,0 -2,0 -2,0z"></path>
  <path fill="#D4213E" fill-rule="nonzero" d="M297 468c0,0 0,0 0,0 -2,0 -3,-2 -3,-4l6 -28c0,-2 2,-3 3,-3 2,1 3,2 3,4l-6 28c0,2 -1,3 -3,3z"></path>
  <path fill="#D4213E" fill-rule="nonzero" d="M182 398c-1,0 -2,1 -2,2 0,1 1,2 2,2 0,0 1,-1 1,-2 0,-1 -1,-2 -1,-2zm0 10c-5,0 -8,-4 -8,-8 0,-4 3,-7 8,-7 4,0 7,3 7,7 0,4 -3,8 -7,8z"></path>
  <path fill="#D4213E" fill-rule="nonzero" d="M168 444c-1,0 -2,1 -2,2 0,1 1,2 2,2 1,0 2,-1 2,-2 0,-1 -1,-2 -2,-2zm0 9c-4,0 -8,-3 -8,-7 0,-4 4,-8 8,-8 4,0 7,4 7,8 0,4 -3,7 -7,7z"></path>
  <path fill="#D4213E" fill-rule="nonzero" d="M144 458c0,0 0,0 0,0 -2,-1 -3,-2 -2,-4l19 -80c1,-2 2,-3 4,-2 1,0 2,2 2,3l-20 81c0,1 -1,2 -3,2z"></path>
 </g>
</svg>
