<?xml version="1.0" encoding="UTF-8"?>
<svg xmlns="http://www.w3.org/2000/svg" xmlns:xlink="http://www.w3.org/1999/xlink" xml:space="preserve" width="25.4mm" height="25.5496mm" version="1.0" shape-rendering="geometricPrecision" text-rendering="geometricPrecision" image-rendering="optimizeQuality" fill-rule="evenodd" clip-rule="evenodd" viewBox="0 0 963 969">
 <g id="Warstwa_x0020_1">
  <metadata id="CorelCorpID_0Corel-Layer"></metadata>
  <g id="_1954284655152">
   <path fill="whitesmoke" fill-rule="nonzero" d="M0 481c0,-265 216,-481 481,-481 266,0 482,216 482,481 0,266 -216,482 -482,482 -265,0 -481,-216 -481,-482z"></path>
   <path fill="#FEFEFE" fill-rule="nonzero" d="M472 756l1 0c-41,0 -74,-33 -74,-73l0 -268c0,-41 33,-74 74,-74l-1 0c41,0 74,33 74,74l0 268c0,40 -33,73 -74,73z"></path>
   <path fill="#D4213E" fill-rule="nonzero" d="M472 347c-37,0 -67,31 -67,68l0 268c0,37 30,67 67,67 38,0 68,-30 68,-67l0 -268c0,-37 -30,-68 -68,-68zm1 415c-1,0 -1,0 -1,0 0,0 0,0 0,0 -44,0 -79,-36 -79,-79l0 -268c0,-44 35,-79 79,-80 0,0 0,0 0,0 0,0 1,0 1,0 43,1 79,36 79,80l0 268c0,43 -36,79 -79,79 0,0 0,0 0,0z"></path>
   <polygon fill="#FEFEFE" fill-rule="nonzero" points="460,787 384,722 319,779 364,664 425,681 "></polygon>
   <path fill="#D4213E" fill-rule="nonzero" d="M384 716c1,0 2,1 4,1l60 51 -28 -82 -53 -15 -34 87 47 -40c1,-1 2,-2 4,-2zm76 77c-1,0 -2,-1 -3,-2l-73 -61 -61 53c-2,2 -5,2 -7,1 -3,-2 -4,-5 -3,-7l45 -115c1,-3 5,-5 8,-4l60 17c2,1 4,2 4,4l36 106c1,2 0,5 -2,7 -1,0 -2,1 -4,1z"></path>
   <path fill="#D4213E" fill-rule="nonzero" d="M127 815c0,0 -1,0 -2,0 -3,-1 -4,-4 -3,-8l22 -67c10,-30 34,-53 64,-60l144 -36c3,-1 6,1 7,4 1,3 -1,6 -4,7l-144 36c-26,7 -47,26 -56,52l-22 68c-1,3 -3,4 -6,4z"></path>
   <polygon fill="#FEFEFE" fill-rule="nonzero" points="480,963 460,787 "></polygon>
   <path fill="#D4213E" fill-rule="nonzero" d="M480 969c-3,0 -5,-3 -6,-6l-20 -176c0,-3 2,-6 6,-6 3,-1 6,2 6,5l20 176c1,3 -2,6 -5,7 0,0 -1,0 -1,0z"></path>
   <polygon fill="#FEFEFE" fill-rule="nonzero" points="492,787 569,722 634,779 589,664 528,681 "></polygon>
   <path fill="#D4213E" fill-rule="nonzero" d="M532 686l-27 82 60 -51c2,-1 6,-1 8,1l46 40 -34 -87 -53 15zm-40 107c-1,0 -2,-1 -3,-1 -2,-2 -3,-5 -3,-7l36 -106c1,-2 2,-3 4,-4l61 -17c3,-1 6,1 7,4l45 115c1,2 0,5 -2,7 -2,1 -5,1 -7,-1l-61 -53 -73 61c-1,1 -2,2 -4,2z"></path>
   <path fill="#D4213E" fill-rule="nonzero" d="M825 815c-2,0 -5,-1 -5,-4l-23 -68c-8,-26 -29,-45 -56,-52l-143 -36c-3,-1 -5,-4 -5,-7 1,-3 4,-5 8,-4l143 36c31,7 55,30 65,60l22 67c1,4 -1,7 -4,8 -1,0 -1,0 -2,0z"></path>
   <polygon fill="#FEFEFE" fill-rule="nonzero" points="475,910 492,787 "></polygon>
   <path fill="#D4213E" fill-rule="nonzero" d="M475 916c0,0 -1,0 -1,0 -3,-1 -5,-4 -5,-7l17 -123c1,-3 4,-6 7,-5 3,0 5,3 5,7l-17 123c-1,3 -3,5 -6,5z"></path>
   <path fill="#1D1D1E" fill-rule="nonzero" d="M304 416c0,0 -49,-183 -13,-237 37,-56 83,-48 149,-14 66,34 59,-21 149,10 50,17 83,54 80,92 -3,37 -3,135 -37,173 -33,37 -275,71 -328,-24z"></path>
   <path fill="#FEFEFE" fill-rule="nonzero" d="M357 436c9,34 2,65 -15,70 -18,4 -40,-19 -49,-53 -9,-33 -2,-65 15,-70 18,-4 40,19 49,53z"></path>
   <path fill="#1D1D1E" fill-rule="nonzero" d="M313 389c-1,0 -2,0 -3,0 -12,4 -20,30 -11,63 9,32 29,51 41,48 6,-2 11,-9 14,-20 2,-12 1,-27 -3,-43 0,0 0,0 0,0 -8,-30 -26,-48 -38,-48zm24 123c-20,0 -41,-23 -50,-57 -10,-38 -1,-72 20,-77 21,-6 46,19 56,56l0 0c4,18 5,35 2,49 -3,15 -11,25 -22,28 -2,1 -4,1 -6,1z"></path>
   <path fill="#FEFEFE" fill-rule="nonzero" d="M580 436c-9,34 -2,65 16,70 18,4 39,-19 48,-53 10,-33 3,-65 -15,-70 -18,-4 -39,19 -49,53z"></path>
   <path fill="#1D1D1E" fill-rule="nonzero" d="M624 389c-12,0 -30,18 -38,48 -4,16 -5,31 -2,43 2,11 7,18 13,20 13,3 33,-16 42,-48 9,-33 1,-59 -12,-63 -1,0 -2,0 -3,0zm-24 123c-2,0 -4,0 -6,-1 -11,-3 -18,-13 -22,-28 -3,-14 -2,-31 3,-49 10,-37 34,-62 56,-56 21,5 29,39 19,77 -9,34 -30,57 -50,57z"></path>
   <path fill="#FEFEFE" fill-rule="nonzero" d="M566 659l-194 0c-23,0 -41,-19 -41,-42l0 -358c0,-23 18,-41 41,-41l194 0c23,0 42,18 42,41l0 358c0,23 -19,42 -42,42z"></path>
   <path fill="#1D1D1E" fill-rule="nonzero" d="M420 224c-46,0 -83,37 -83,83l0 263c0,45 37,83 83,83l98 0c46,0 84,-38 84,-83l0 -263c0,-46 -38,-83 -84,-83l-98 0zm98 441l-98 0c-53,0 -95,-43 -95,-95l0 -263c0,-53 42,-95 95,-95l98 0c53,0 95,42 95,95l0 263c0,52 -42,95 -95,95z"></path>
   <path fill="#1D1D1E" fill-rule="nonzero" d="M380 441c3,10 12,15 18,12 7,-2 9,-12 6,-21 -4,-9 -12,-15 -19,-12 -7,3 -9,12 -5,21z"></path>
   <path fill="#1D1D1E" fill-rule="nonzero" d="M425 412c-1,0 -2,-1 -3,-1 -7,-5 -15,-8 -25,-9 -11,-1 -22,2 -29,8 -3,2 -7,2 -9,-1 -2,-3 -1,-6 1,-8 9,-8 23,-12 38,-11 12,1 23,5 31,11 3,2 3,6 1,9 -1,1 -3,2 -5,2z"></path>
   <path fill="#1D1D1E" fill-rule="nonzero" d="M519 441c3,10 12,15 18,12 7,-2 9,-12 6,-21 -4,-9 -12,-15 -19,-12 -7,3 -9,12 -5,21z"></path>
   <path fill="#1D1D1E" fill-rule="nonzero" d="M564 412c-1,0 -2,-1 -3,-1 -7,-5 -15,-8 -25,-9 -11,-1 -22,2 -29,8 -3,2 -7,2 -9,-1 -2,-3 -1,-6 1,-8 9,-8 23,-12 38,-11 12,1 23,5 31,11 3,2 3,6 1,9 -1,1 -3,2 -5,2z"></path>
   <path fill="#1D1D1E" fill-rule="nonzero" d="M462 505c-4,0 -8,-2 -10,-5 -5,-5 -5,-13 -4,-17 1,-26 4,-52 7,-78 0,-3 3,-6 6,-5 3,0 6,3 5,6 -2,26 -5,52 -6,77 -1,4 -1,8 1,9 0,1 0,1 1,1 1,-3 3,-5 6,-4 3,0 6,3 5,7 0,4 -3,7 -8,8 -1,0 -2,1 -3,1z"></path>
   <path fill="#1D1D1E" fill-rule="nonzero" d="M336 362c0,0 11,-92 39,-79 28,12 29,39 73,42 44,3 72,-13 87,3 16,15 44,50 82,25 37,-25 49,-108 -11,-140 -59,-31 -156,-13 -206,-16 -71,-13 -114,84 -64,165z"></path>
   <path fill="#1D1D1E" fill-rule="nonzero" d="M614 506c0,0 -7,26 -35,32 -29,7 -48,-15 -86,-18 -1,0 -3,0 -4,0 -6,-1 -13,-2 -20,-1 -8,-1 -14,0 -21,1 -1,0 -2,0 -4,0 -38,3 -57,25 -85,18 -28,-6 -36,-32 -36,-32 -60,201 158,193 158,193 0,0 194,8 133,-193z"></path>
   <path fill="#FEFEFE" fill-rule="nonzero" d="M458 576c-2,0 -5,0 -8,0 -3,0 -5,-3 -5,-7 0,-3 3,-5 6,-5 16,1 31,-1 46,-8 3,-1 7,0 8,3 1,3 0,7 -3,8 -15,6 -29,9 -44,9z"></path>
  </g>
 </g>
</svg>
