<?xml version="1.0" encoding="UTF-8"?>
<svg xmlns="http://www.w3.org/2000/svg" id="Expanded" viewBox="0 0 64 64">
  <path d="M47,8c-1.65,0-3,1.35-3,3v4c0,1.65,1.35,3,3,3s3-1.35,3-3v-4c0-1.65-1.35-3-3-3ZM48,15c0,.55-.45,1-1,1s-1-.45-1-1v-4c0-.55.45-1,1-1s1,.45,1,1v4ZM47,20c-1.65,0-3,1.35-3,3s1.35,3,3,3,3-1.35,3-3-1.35-3-3-3ZM47,24c-.55,0-1-.45-1-1s.45-1,1-1,1,.45,1,1-.45,1-1,1ZM55,4h-16c-2.76,0-5,2.24-5,5v5.61c-1.63-.4-3.3-.61-5-.61-2.37,0-4.65.41-6.78,1.14-.07.02-.13.04-.2.07-5.97,2.11-10.7,6.84-12.81,12.81-.03.06-.05.13-.07.19-.73,2.13-1.14,4.41-1.14,6.78s.41,4.65,1.14,6.78c.02.07.04.13.07.19,2.1,5.94,6.8,10.66,12.73,12.78.1.06.21.09.32.12,2.12.72,4.38,1.13,6.73,1.13s4.62-.41,6.73-1.13c.11-.02.22-.06.32-.12,5.93-2.13,10.63-6.84,12.73-12.78.03-.06.05-.13.07-.19.73-2.13,1.14-4.41,1.14-6.78,0-1.7-.21-3.37-.61-5h5.61c2.76,0,5-2.24,5-5V9c0-2.76-2.24-5-5-5ZM37.76,29.83c.15,1.67.24,3.4.24,5.17,0,2.92-.21,5.74-.61,8.4-2.66.4-5.47.6-8.39.6s-5.74-.21-8.4-.61c-.4-2.66-.6-5.47-.6-8.39s.21-5.74.61-8.4c2.66-.4,5.47-.6,8.39-.6,1.77,0,3.5.09,5.17.24.45,1.76,1.83,3.13,3.59,3.59ZM10,35c0-2.02.33-3.97.91-5.8,2.14-.95,4.74-1.72,7.62-2.26-.35,2.57-.54,5.27-.54,8.06s.19,5.49.54,8.06c-2.88-.54-5.48-1.31-7.62-2.26-.59-1.83-.91-3.78-.91-5.8ZM34,16.68v7.54c-1.62-.13-3.29-.22-5-.22-2.79,0-5.49.19-8.06.54.54-2.88,1.31-5.48,2.26-7.62,1.83-.59,3.78-.91,5.8-.91,1.7,0,3.38.24,5,.68ZM20.62,17.97c-.74,2.05-1.33,4.38-1.76,6.88-2.5.43-4.83,1.03-6.88,1.76,1.85-3.75,4.9-6.79,8.65-8.65ZM11.97,43.38c2.05.74,4.38,1.33,6.88,1.76.43,2.5,1.03,4.83,1.76,6.88-3.75-1.85-6.79-4.9-8.65-8.65ZM23.2,53.09c-.95-2.14-1.72-4.74-2.26-7.62,2.57.35,5.27.54,8.06.54s5.49-.19,8.06-.54c-.54,2.88-1.31,5.48-2.26,7.62-1.83.59-3.78.91-5.8.91s-3.97-.33-5.8-.91ZM37.38,52.03c.74-2.05,1.33-4.38,1.76-6.88,2.5-.43,4.83-1.03,6.88-1.76-1.85,3.75-4.9,6.79-8.65,8.65ZM48,35c0,2.02-.33,3.97-.91,5.8-2.14.95-4.74,1.72-7.62,2.26.35-2.57.54-5.27.54-8.06,0-1.71-.09-3.38-.22-5h7.54c.44,1.62.68,3.3.68,5ZM58,25c0,1.65-1.35,3-3,3h-16c-1.65,0-3-1.35-3-3V9c0-1.65,1.35-3,3-3h16c1.65,0,3,1.35,3,3v16ZM53.97,33.85c.02.38.03.76.03,1.15,0,13.79-11.21,25-25,25S4,48.79,4,35,15.21,10,29,10c.39,0,.77.01,1.15.03.55.03.97.5.94,1.05-.03.55-.5.97-1.05.94-.34-.02-.68-.03-1.03-.03-12.68,0-23,10.32-23,23s10.32,23,23,23,23-10.32,23-23c0-.35,0-.69-.03-1.03-.03-.55.39-1.02.94-1.05.56-.02,1.02.39,1.05.94Z"></path>
</svg>
