<?xml version="1.0" encoding="UTF-8"?>
<svg xmlns="http://www.w3.org/2000/svg" id="Expanded" viewBox="0 0 64 64">
  <path d="M49.91,20.09c-.43-2.32-2.46-4.09-4.91-4.09h-9v-1.59l5.3-5.3c.87-.87,1.12-2.12.65-3.26-.47-1.14-1.54-1.85-2.78-1.85h-14.34c-1.24,0-2.3.71-2.78,1.85-.47,1.14-.22,2.39.65,3.26l5.3,5.3v1.59h-9c-2.45,0-4.48,1.77-4.91,4.09-2.32.43-4.09,2.46-4.09,4.91v30c0,2.76,2.24,5,5,5h34c2.76,0,5-2.24,5-5v-30c0-2.45-1.77-4.48-4.09-4.91ZM30,13c0-.55.45-1,1-1h2c.55,0,1,.45,1,1v6c0,.55-.45,1-1,1h-2c-.55,0-1-.45-1-1v-6ZM23.9,6.62c.06-.15.3-.62.93-.62h14.34c.62,0,.87.47.93.62.06.14.22.65-.21,1.08l-4.12,4.12c-.46-1.07-1.52-1.83-2.76-1.83h-2c-1.24,0-2.3.75-2.76,1.83l-4.12-4.12c-.44-.44-.27-.94-.21-1.08ZM19,18h9v1c0,1.65,1.35,3,3,3h2c1.65,0,3-1.35,3-3v-1h9c1.65,0,3,1.35,3,3v30c0,1.65-1.35,3-3,3h-26c-1.65,0-3-1.35-3-3v-30c0-1.65,1.35-3,3-3ZM52,55c0,1.65-1.35,3-3,3H15c-1.65,0-3-1.35-3-3v-30c0-1.3.84-2.4,2-2.82v28.82c0,2.76,2.24,5,5,5h26c2.76,0,5-2.24,5-5v-28.82c1.16.41,2,1.51,2,2.82v30ZM29,38h6c1.65,0,3-1.35,3-3v-1c0-1.6-.62-3.1-1.75-4.25-.15-.15-.32-.29-.49-.43.15-.42.24-.86.24-1.33,0-2.21-1.79-4-4-4s-4,1.79-4,4c0,.47.1.91.24,1.33-1.4,1.13-2.24,2.85-2.24,4.67v1c0,1.65,1.35,3,3,3ZM32,26c1.1,0,2,.9,2,2s-.9,2-2,2-2-.9-2-2,.9-2,2-2ZM28,34c0-1.18.51-2.25,1.37-3.01.7.62,1.62,1.01,2.63,1.01s1.92-.39,2.63-1.01c.07.06.14.11.2.17.75.76,1.17,1.77,1.17,2.84v1c0,.55-.45,1-1,1h-6c-.55,0-1-.45-1-1v-1ZM19,43c0-.55.45-1,1-1h6c.55,0,1,.45,1,1s-.45,1-1,1h-6c-.55,0-1-.45-1-1ZM19,47c0-.55.45-1,1-1h16c.55,0,1,.45,1,1s-.45,1-1,1h-16c-.55,0-1-.45-1-1ZM19,51c0-.55.45-1,1-1h11c.55,0,1,.45,1,1s-.45,1-1,1h-11c-.55,0-1-.45-1-1ZM43,26c1.65,0,3-1.35,3-3s-1.35-3-3-3-3,1.35-3,3,1.35,3,3,3ZM43,22c.55,0,1,.45,1,1s-.45,1-1,1-1-.45-1-1,.45-1,1-1Z"></path>
</svg>
