<?xml version="1.0" encoding="UTF-8"?>
<svg xmlns="http://www.w3.org/2000/svg" xmlns:xlink="http://www.w3.org/1999/xlink" xml:space="preserve" width="700px" height="700px" version="1.1" shape-rendering="geometricPrecision" text-rendering="geometricPrecision" image-rendering="optimizeQuality" fill-rule="evenodd" clip-rule="evenodd" viewBox="0 0 3455 3455">
 <g id="Warstwa_x0020_1">
  <metadata id="CorelCorpID_0Corel-Layer"></metadata>
  <g id="_849870064">
   <path fill="whitesmoke" d="M1727 54l0 0c924,0 1674,749 1674,1673l0 0c0,924 -750,1674 -1674,1674l0 0c-924,0 -1673,-750 -1673,-1674l0 0c0,-924 749,-1673 1673,-1673z"></path>
   <path fill="#6B6B6B" fill-rule="nonzero" d="M1727 0c477,0 909,193 1222,506 312,313 506,744 506,1221 0,477 -194,909 -506,1222 -301,300 -712,491 -1168,505l0 0 -29 0c-8,1 -16,1 -25,1l0 -1c-477,0 -909,-193 -1221,-505 -301,-301 -491,-712 -505,-1168l-1 0 0 -29c0,-8 0,-16 0,-25l0 0c0,-477 194,-909 506,-1221 313,-313 744,-506 1221,-506zm1145 582c-293,-293 -698,-474 -1145,-474 -447,0 -852,181 -1145,474 -287,288 -467,682 -474,1119l0 26c0,447 181,852 474,1145 288,288 682,468 1119,475l26 0c447,0 852,-182 1145,-475 293,-293 475,-698 475,-1145 0,-447 -182,-852 -475,-1145z"></path>
   <path fill="#D4213E" fill-rule="nonzero" d="M2360 2185l-431 -389 -39 27c-26,18 -45,31 -60,40 -18,12 -34,19 -52,24l-3 1c-16,4 -32,6 -48,6 -16,0 -32,-2 -48,-6 -18,-5 -35,-13 -55,-25 -15,-9 -34,-22 -60,-40l-38 -27 -431 389c4,6 9,12 14,17l0 0c12,12 25,22 41,30 16,8 37,12 65,14 34,3 78,3 138,3l749 0c112,0 168,0 203,-17 15,-8 29,-18 41,-30l0 0c5,-5 10,-11 14,-17zm-341 -452l373 336c1,-29 1,-66 1,-111l0 -487 -374 262zm-956 336l373 -336 -374 -262 0 487c0,45 0,82 1,111zm-108 -690c-2,-10 -2,-20 2,-29 3,-43 11,-75 26,-105 13,-25 30,-48 50,-68l0 0c20,-20 43,-37 68,-50 58,-29 123,-29 252,-29l749 0c61,0 107,0 146,3 43,3 76,11 106,26 24,12 45,28 65,47 1,1 2,2 3,3 20,19 37,43 50,68 15,30 22,62 26,105 3,9 4,19 2,29 1,32 1,71 1,118l0 461c0,61 0,107 -3,146 -4,43 -11,76 -26,106 -13,25 -30,48 -50,68l0 0 0 0c-20,20 -43,37 -68,50 -58,29 -123,29 -252,29l-749 0c-61,0 -107,0 -146,-3 -43,-4 -76,-11 -106,-26 -25,-13 -48,-30 -68,-50l0 0c-20,-20 -37,-43 -50,-68 -29,-58 -29,-123 -29,-252l0 -461c0,-47 0,-85 1,-118zm111 -36l560 392c22,15 38,27 54,36 10,6 18,10 25,12l1 0c6,2 14,3 21,3 8,0 15,-1 22,-3l2 0c6,-2 14,-6 24,-12 15,-9 32,-21 54,-36l560 -392c-3,-21 -7,-36 -14,-49 -7,-15 -17,-29 -29,-41l-3 -2c-11,-11 -24,-20 -38,-28 -17,-8 -37,-12 -66,-15 -33,-2 -78,-2 -137,-2l-749 0c-112,0 -168,0 -203,17 -16,8 -29,18 -41,30l0 0c-12,12 -22,25 -30,41 -6,13 -10,28 -13,49z"></path>
  </g>
 </g>
</svg>
