<?xml version="1.0" encoding="UTF-8"?>
<svg xmlns="http://www.w3.org/2000/svg" xmlns:xlink="http://www.w3.org/1999/xlink" xml:space="preserve" width="700px" height="700px" version="1.1" shape-rendering="geometricPrecision" text-rendering="geometricPrecision" image-rendering="optimizeQuality" fill-rule="evenodd" clip-rule="evenodd" viewBox="0 0 2204 2204">
 <g id="Warstwa_x0020_1">
  <metadata id="CorelCorpID_0Corel-Layer"></metadata>
  <g id="_849868592">
   <path fill="whitesmoke" d="M1102 34l0 0c589,0 1067,478 1067,1068l0 0c0,589 -478,1067 -1067,1067l0 0c-590,0 -1068,-478 -1068,-1067l0 0c0,-590 478,-1068 1068,-1068z"></path>
   <path fill="#6B6B6B" fill-rule="nonzero" d="M1102 0c304,0 579,123 779,323 199,199 323,475 323,779 0,304 -124,579 -323,779 -192,192 -454,313 -745,322l0 0 -18 0c-5,1 -11,1 -16,1l0 -1c-305,0 -580,-123 -779,-322 -192,-192 -314,-454 -322,-745l-1 0 0 -18c0,-6 0,-11 0,-16l0 0c0,-304 123,-580 323,-779 199,-200 475,-323 779,-323zm730 371c-187,-186 -445,-302 -730,-302 -285,0 -544,116 -731,302 -183,184 -298,435 -302,714l0 17c0,285 116,543 302,730 184,183 436,298 714,303l17 0c285,0 543,-116 730,-303 187,-187 303,-445 303,-730 0,-285 -116,-544 -303,-731z"></path>
   <path fill="#D4213E" fill-rule="nonzero" d="M1189 860c-18,-3 -30,-21 -27,-40 4,-19 22,-31 40,-27 26,5 51,13 74,26 23,12 44,28 62,46l0 0 1 0c18,18 33,39 46,63l0 0 0 0c12,23 21,47 26,73 4,19 -9,37 -27,40 -19,4 -37,-8 -41,-27 -3,-19 -10,-37 -19,-54l0 0c-9,-17 -20,-32 -34,-46l0 0c-14,-14 -30,-26 -46,-35 -17,-9 -35,-15 -55,-19zm3 -183c-19,-2 -32,-19 -30,-38 2,-19 19,-33 38,-30 50,5 99,19 144,41 45,22 87,51 122,87 36,36 66,77 87,122 22,45 36,94 42,144 2,19 -12,36 -30,38 -19,2 -36,-11 -38,-30 -5,-43 -17,-84 -35,-122 -19,-38 -44,-73 -74,-104 -31,-30 -66,-55 -104,-73 -38,-18 -79,-30 -122,-35zm-198 533c-28,-28 -53,-58 -75,-89 -23,-33 -43,-67 -60,-103l0 0 0 0 -1 -2c-3,-6 -5,-10 -6,-15 -4,-12 -4,-25 -2,-36 2,-12 6,-24 13,-34 1,0 2,-1 2,-2 2,-2 3,-4 5,-6 1,0 1,-1 2,-2 2,-2 3,-3 5,-5l0 0 0 0c15,-14 22,-22 25,-26 6,-10 9,-21 9,-32 0,-11 -3,-22 -9,-31 -2,-2 -4,-5 -7,-8 -5,-5 -10,-11 -18,-19l-9 -9 0 1c-22,-22 -33,-33 -41,-37 -8,-4 -17,-6 -26,-6 -9,0 -18,2 -26,6 -3,2 -8,5 -13,9 -6,6 -16,15 -28,27l0 1 -7 7c-12,12 -21,21 -27,28 -6,6 -10,11 -13,17 -4,7 -7,16 -9,25 -3,9 -4,19 -4,26 0,7 0,13 2,20 1,7 4,16 8,29 19,68 47,134 83,196 36,60 80,117 132,169 52,52 109,96 169,131 62,37 128,65 196,84l2 1c21,6 33,9 46,9 8,0 17,-2 27,-4 9,-2 18,-6 24,-9 13,-7 24,-18 46,-41l7 -7c22,-22 33,-33 37,-41 4,-8 6,-17 6,-26 0,-9 -2,-17 -6,-26 -4,-7 -15,-18 -37,-40l-2 -2 -7 -7 0 0c-14,-15 -22,-22 -26,-25 -10,-6 -21,-9 -32,-9 -11,0 -22,3 -31,9 -2,1 -5,3 -8,7 -4,3 -10,9 -19,18l-1 1c-3,3 -4,4 -6,6 0,0 -1,1 -2,2 -2,2 -4,3 -6,4 -9,7 -21,12 -33,14 -12,2 -24,1 -36,-2l0 0 0 0c-3,-1 -6,-2 -9,-3l-8 -4c-36,-17 -70,-37 -103,-60 -32,-23 -63,-49 -91,-77l-2 -2zm-19 -129c20,28 43,55 68,80l2 2c26,26 53,49 82,70 30,21 60,39 92,54l5 2 2 1 0 0c2,1 3,1 5,0 2,0 4,-1 5,-2l1 0 4 -4 2 -2c7,-7 13,-13 20,-20 6,-5 12,-10 18,-14 21,-13 45,-20 68,-20 24,0 48,7 69,20 12,8 20,16 38,34l0 0 7 7 2 2c27,27 40,40 49,59 9,18 14,37 14,56 0,20 -5,39 -14,57 -9,19 -22,32 -49,59l-7 7c-27,27 -40,40 -61,52 -12,6 -26,12 -41,15 -15,4 -30,7 -44,6 -23,0 -38,-4 -65,-11 0,0 -2,-1 -2,-1 -73,-21 -145,-51 -212,-91 -66,-38 -127,-85 -183,-141 -56,-56 -103,-118 -142,-183 -39,-68 -70,-139 -91,-213 -3,-13 -6,-23 -8,-33 -3,-11 -4,-21 -4,-34 0,-13 2,-29 6,-43 4,-15 10,-30 16,-41 6,-11 13,-20 22,-30 8,-9 17,-19 30,-31l7 -7 0 0 0 0c12,-12 21,-22 30,-30 10,-9 19,-15 28,-20 18,-9 38,-13 57,-13 20,0 39,4 57,13 18,10 32,23 59,50l0 0 9 9c8,8 15,15 19,20 6,6 11,12 14,18 14,21 21,45 21,68 0,24 -7,48 -21,69 -7,12 -16,20 -33,38l0 0 -5 4 -1 2 -1 0c-1,2 -1,3 -2,5 0,2 0,4 0,5 1,1 1,3 3,5l1 3 0 0c15,31 33,62 54,92z"></path>
  </g>
 </g>
</svg>
