<?xml version="1.0" encoding="UTF-8"?>
<svg xmlns="http://www.w3.org/2000/svg" xmlns:xlink="http://www.w3.org/1999/xlink" xml:space="preserve" width="700px" height="700px" version="1.1" shape-rendering="geometricPrecision" text-rendering="geometricPrecision" image-rendering="optimizeQuality" fill-rule="evenodd" clip-rule="evenodd" viewBox="0 0 285 285">
 <g id="Warstwa_x0020_1">
  <metadata id="CorelCorpID_0Corel-Layer"></metadata>
  <path fill="whitesmoke" d="M142 4l0 0c77,0 139,62 139,138l0 0c0,77 -62,139 -139,139l0 0c-76,0 -138,-62 -138,-139l0 0c0,-76 62,-138 138,-138z"></path>
  <path fill="#6B6B6B" fill-rule="nonzero" d="M142 0c40,0 75,16 101,42 26,26 42,61 42,100 0,40 -16,75 -42,101 -25,25 -58,41 -96,42l0 0 -2 0c-1,0 -2,0 -3,0l0 0c-39,0 -74,-16 -100,-42 -25,-25 -41,-58 -42,-96l0 0 0 -2c0,-1 0,-2 0,-3l0 0c0,-39 16,-74 42,-100 26,-26 61,-42 100,-42zm95 48c-24,-24 -58,-39 -95,-39 -36,0 -70,15 -94,39 -24,24 -39,56 -39,92l0 2c0,37 15,71 39,95 24,24 56,38 92,39l2 0c37,0 71,-15 95,-39 24,-24 39,-58 39,-95 0,-36 -15,-70 -39,-94z"></path>
  <path fill="#D4213E" fill-rule="nonzero" d="M142 144c4,0 8,-2 10,-4 2,-2 4,-6 4,-9 0,-4 -2,-7 -4,-10 -2,-2 -6,-4 -10,-4 -3,0 -7,2 -9,4 -2,3 -4,6 -4,10 0,3 2,7 4,9 2,2 6,4 9,4zm16 2c-4,4 -9,7 -16,7 -6,0 -11,-3 -15,-7 -4,-4 -7,-9 -7,-15 0,-7 3,-12 7,-16 4,-4 9,-7 15,-7 7,0 12,3 16,7 4,4 7,9 7,16 0,6 -3,11 -7,15z"></path>
  <path fill="#D4213E" fill-rule="nonzero" d="M142 196l3 -3c21,-21 41,-40 41,-62 0,-12 -5,-23 -13,-31 -8,-8 -19,-12 -31,-12 -11,0 -22,4 -30,12 -8,8 -13,19 -13,31 0,22 20,41 41,62l2 3zm9 3c-1,1 -1,2 -5,6 -2,2 -5,2 -7,0 -4,-4 -4,-5 -5,-6 -23,-22 -43,-42 -43,-68 0,-15 5,-28 15,-37 9,-10 22,-15 36,-15 15,0 28,5 37,15 10,9 15,22 15,37 0,26 -20,46 -43,68z"></path>
 </g>
</svg>
