<?xml version="1.0" encoding="UTF-8"?>
<svg xmlns="http://www.w3.org/2000/svg" id="Expanded" viewBox="0 0 64 64">
  <path d="M60,25c0-.13-.03-.26-.08-.38-.05-.12-.12-.23-.22-.33l-9.71-9.71v-5.59c0-2.76-2.24-5-5-5h-26c-2.76,0-5,2.24-5,5v5.59l-9.71,9.71c-.09.09-.17.21-.22.33-.05.12-.08.25-.08.38v30c0,1.36.55,2.6,1.44,3.5.01.01.01.03.02.04s.03.01.04.02c.9.89,2.14,1.44,3.5,1.44h46c1.36,0,2.6-.55,3.5-1.44.01-.01.03-.01.04-.02s.01-.03.02-.04c.89-.9,1.44-2.14,1.44-3.5v-30ZM58,55c0,.46-.11.89-.3,1.29l-14.29-14.29,14.59-14.59v27.59ZM57.59,25l-7.59,7.59v-15.17l7.59,7.59ZM16,9c0-1.65,1.35-3,3-3h26c1.65,0,3,1.35,3,3v25.59l-6,6-6.46-6.46c-1.95-1.95-5.12-1.95-7.07,0l-6.46,6.46-6-6V9ZM6.3,56.29c-.19-.39-.3-.82-.3-1.29v-27.59l14.59,14.59-14.29,14.29ZM14,32.59l-7.59-7.59,7.59-7.59v15.17ZM9,58c-.46,0-.89-.11-1.29-.3l22.16-22.16c1.17-1.17,3.08-1.17,4.25,0l22.16,22.16c-.39.19-.82.3-1.29.3H9ZM22,23h8c1.65,0,3-1.35,3-3v-8c0-1.65-1.35-3-3-3h-8c-1.65,0-3,1.35-3,3v8c0,1.65,1.35,3,3,3ZM21,12c0-.55.45-1,1-1h8c.55,0,1,.45,1,1v8c0,.55-.45,1-1,1h-8c-.55,0-1-.45-1-1v-8ZM41,23c1.65,0,3-1.35,3-3v-6c0-1.65-1.35-3-3-3s-3,1.35-3,3v6c0,1.65,1.35,3,3,3ZM40,14c0-.55.45-1,1-1s1,.45,1,1v6c0,.55-.45,1-1,1s-1-.45-1-1v-6ZM41,31c1.65,0,3-1.35,3-3s-1.35-3-3-3-3,1.35-3,3,1.35,3,3,3ZM41,27c.55,0,1,.45,1,1s-.45,1-1,1-1-.45-1-1,.45-1,1-1ZM29,47c0-.55.45-1,1-1h4c.55,0,1,.45,1,1s-.45,1-1,1h-4c-.55,0-1-.45-1-1ZM39,51c0,.55-.45,1-1,1h-12c-.55,0-1-.45-1-1s.45-1,1-1h12c.55,0,1,.45,1,1Z"></path>
</svg>
