<?xml version="1.0" encoding="UTF-8"?>
<svg xmlns="http://www.w3.org/2000/svg" id="Expanded" viewBox="0 0 64 64">
  <path d="M21.71,30.29c.39.39.39,1.02,0,1.41-.2.2-.45.29-.71.29s-.51-.1-.71-.29l-2.29-2.29v5.59c0,.55-.45,1-1,1s-1-.45-1-1v-5.59l-2.29,2.29c-.39.39-1.02.39-1.41,0s-.39-1.02,0-1.41l4-4c.09-.09.19-.15.3-.2.03-.01.06-.02.1-.03.08-.03.16-.04.25-.05.03,0,.07,0,.1,0,.11,0,.21.02.32.06,0,0,.02,0,.03,0,0,0,0,0,0,0,.11.05.21.12.29.2,0,0,.02.01.03.02l4,4ZM26,31c0,4.96-4.04,9-9,9s-9-4.04-9-9,4.04-9,9-9,9,4.04,9,9ZM24,31c0-3.86-3.14-7-7-7s-7,3.14-7,7,3.14,7,7,7,7-3.14,7-7ZM26.82,24.02c-.48.28-.63.89-.35,1.37,1,1.69,1.53,3.63,1.53,5.61,0,6.07-4.93,11-11,11s-11-4.93-11-11,4.93-11,11-11c1.98,0,3.92.53,5.61,1.53.48.28,1.09.12,1.37-.35.28-.48.12-1.09-.35-1.37-2-1.18-4.29-1.81-6.63-1.81-7.17,0-13,5.83-13,13s5.83,13,13,13,13-5.83,13-13c0-2.34-.63-4.63-1.81-6.63-.28-.47-.89-.63-1.37-.35ZM20,51v6c0,1.65-1.35,3-3,3s-3-1.35-3-3v-6c0-1.65,1.35-3,3-3s3,1.35,3,3ZM18,51c0-.55-.45-1-1-1s-1,.45-1,1v6c0,.55.45,1,1,1s1-.45,1-1v-6ZM28,47v6c0,1.65-1.35,3-3,3s-3-1.35-3-3v-6c0-1.65,1.35-3,3-3s3,1.35,3,3ZM26,47c0-.55-.45-1-1-1s-1,.45-1,1v6c0,.55.45,1,1,1s1-.45,1-1v-6ZM12,47v6c0,1.65-1.35,3-3,3s-3-1.35-3-3v-6c0-1.65,1.35-3,3-3s3,1.35,3,3ZM10,47c0-.55-.45-1-1-1s-1,.45-1,1v6c0,.55.45,1,1,1s1-.45,1-1v-6ZM60,9v12c0,2.76-2.24,5-5,5h-9.17c-.27,0-.52.1-.71.29l-3,3c-.58.58-1.33.89-2.1.89-.39,0-.78-.08-1.17-.24-1.14-.47-1.85-1.54-1.85-2.77v-.17c0-.55-.45-1-1-1h-1c-2.76,0-5-2.24-5-5v-12c0-2.76,2.24-5,5-5h20c2.76,0,5,2.24,5,5ZM58,9c0-1.65-1.35-3-3-3h-20c-1.65,0-3,1.35-3,3v12c0,1.65,1.35,3,3,3h1c1.65,0,3,1.35,3,3v.17c0,.62.47.86.62.92.15.06.65.22,1.09-.22l3-3c.57-.57,1.32-.88,2.12-.88h9.17c1.65,0,3-1.35,3-3v-12ZM36,12h6c.55,0,1-.45,1-1s-.45-1-1-1h-6c-.55,0-1,.45-1,1s.45,1,1,1ZM50,14h-14c-.55,0-1,.45-1,1s.45,1,1,1h14c.55,0,1-.45,1-1s-.45-1-1-1ZM46,18h-10c-.55,0-1,.45-1,1s.45,1,1,1h10c.55,0,1-.45,1-1s-.45-1-1-1Z"></path>
</svg>
